%TF.GenerationSoftware,KiCad,Pcbnew,8.0.4*%
%TF.CreationDate,2024-08-31T15:59:03-07:00*%
%TF.ProjectId,aunisoma-pir,61756e69-736f-46d6-912d-7069722e6b69,rev?*%
%TF.SameCoordinates,Original*%
%TF.FileFunction,Copper,L2,Bot*%
%TF.FilePolarity,Positive*%
%FSLAX46Y46*%
G04 Gerber Fmt 4.6, Leading zero omitted, Abs format (unit mm)*
G04 Created by KiCad (PCBNEW 8.0.4) date 2024-08-31 15:59:03*
%MOMM*%
%LPD*%
G01*
G04 APERTURE LIST*
G04 Aperture macros list*
%AMRoundRect*
0 Rectangle with rounded corners*
0 $1 Rounding radius*
0 $2 $3 $4 $5 $6 $7 $8 $9 X,Y pos of 4 corners*
0 Add a 4 corners polygon primitive as box body*
4,1,4,$2,$3,$4,$5,$6,$7,$8,$9,$2,$3,0*
0 Add four circle primitives for the rounded corners*
1,1,$1+$1,$2,$3*
1,1,$1+$1,$4,$5*
1,1,$1+$1,$6,$7*
1,1,$1+$1,$8,$9*
0 Add four rect primitives between the rounded corners*
20,1,$1+$1,$2,$3,$4,$5,0*
20,1,$1+$1,$4,$5,$6,$7,0*
20,1,$1+$1,$6,$7,$8,$9,0*
20,1,$1+$1,$8,$9,$2,$3,0*%
G04 Aperture macros list end*
%TA.AperFunction,ComponentPad*%
%ADD10RoundRect,0.250000X-0.350000X-0.625000X0.350000X-0.625000X0.350000X0.625000X-0.350000X0.625000X0*%
%TD*%
%TA.AperFunction,ComponentPad*%
%ADD11O,1.200000X1.750000*%
%TD*%
%TA.AperFunction,ComponentPad*%
%ADD12C,1.192000*%
%TD*%
G04 APERTURE END LIST*
D10*
%TO.P,J1,1,Pin_1*%
%TO.N,GND*%
X103000000Y-80000000D03*
D11*
%TO.P,J1,2,Pin_2*%
%TO.N,/PIR_OUT*%
X105000000Y-80000000D03*
%TO.P,J1,3,Pin_3*%
%TO.N,+3.3V*%
X107000000Y-80000000D03*
%TD*%
D12*
%TO.P,U1,1,VDD*%
%TO.N,GND*%
X105000000Y-72500000D03*
%TO.P,U1,2,OUT*%
%TO.N,/PIR_OUT*%
X102460000Y-69960000D03*
%TO.P,U1,3,GND*%
%TO.N,+3.3V*%
X105000000Y-67420000D03*
%TD*%
%TA.AperFunction,Conductor*%
%TO.N,GND*%
G36*
X124442539Y-60520185D02*
G01*
X124488294Y-60572989D01*
X124499500Y-60624500D01*
X124499500Y-84375500D01*
X124479815Y-84442539D01*
X124427011Y-84488294D01*
X124375500Y-84499500D01*
X85624500Y-84499500D01*
X85557461Y-84479815D01*
X85511706Y-84427011D01*
X85500500Y-84375500D01*
X85500500Y-79325013D01*
X101900000Y-79325013D01*
X101900000Y-79750000D01*
X102719670Y-79750000D01*
X102699925Y-79769745D01*
X102650556Y-79855255D01*
X102625000Y-79950630D01*
X102625000Y-80049370D01*
X102650556Y-80144745D01*
X102699925Y-80230255D01*
X102719670Y-80250000D01*
X101900001Y-80250000D01*
X101900001Y-80674986D01*
X101910494Y-80777697D01*
X101965641Y-80944119D01*
X101965643Y-80944124D01*
X102057684Y-81093345D01*
X102181654Y-81217315D01*
X102330875Y-81309356D01*
X102330880Y-81309358D01*
X102497302Y-81364505D01*
X102497309Y-81364506D01*
X102600019Y-81374999D01*
X102749999Y-81374999D01*
X102750000Y-81374998D01*
X102750000Y-80280330D01*
X102769745Y-80300075D01*
X102855255Y-80349444D01*
X102950630Y-80375000D01*
X103049370Y-80375000D01*
X103144745Y-80349444D01*
X103230255Y-80300075D01*
X103250000Y-80280330D01*
X103250000Y-81374999D01*
X103399972Y-81374999D01*
X103399986Y-81374998D01*
X103502697Y-81364505D01*
X103669119Y-81309358D01*
X103669124Y-81309356D01*
X103818345Y-81217315D01*
X103942315Y-81093345D01*
X103981945Y-81029094D01*
X104033893Y-80982368D01*
X104102855Y-80971145D01*
X104166937Y-80998988D01*
X104175166Y-81006508D01*
X104283072Y-81114414D01*
X104423212Y-81216232D01*
X104577555Y-81294873D01*
X104742299Y-81348402D01*
X104913389Y-81375500D01*
X104913390Y-81375500D01*
X105086610Y-81375500D01*
X105086611Y-81375500D01*
X105257701Y-81348402D01*
X105422445Y-81294873D01*
X105576788Y-81216232D01*
X105716928Y-81114414D01*
X105839414Y-80991928D01*
X105899682Y-80908975D01*
X105955012Y-80866311D01*
X106024626Y-80860332D01*
X106086421Y-80892938D01*
X106100315Y-80908973D01*
X106160586Y-80991928D01*
X106283072Y-81114414D01*
X106423212Y-81216232D01*
X106577555Y-81294873D01*
X106742299Y-81348402D01*
X106913389Y-81375500D01*
X106913390Y-81375500D01*
X107086610Y-81375500D01*
X107086611Y-81375500D01*
X107257701Y-81348402D01*
X107422445Y-81294873D01*
X107576788Y-81216232D01*
X107716928Y-81114414D01*
X107839414Y-80991928D01*
X107941232Y-80851788D01*
X108019873Y-80697445D01*
X108073402Y-80532701D01*
X108100500Y-80361611D01*
X108100500Y-79638389D01*
X108073402Y-79467299D01*
X108019873Y-79302555D01*
X107941232Y-79148212D01*
X107839414Y-79008072D01*
X107716928Y-78885586D01*
X107576788Y-78783768D01*
X107422445Y-78705127D01*
X107257701Y-78651598D01*
X107257699Y-78651597D01*
X107257698Y-78651597D01*
X107126271Y-78630781D01*
X107086611Y-78624500D01*
X106913389Y-78624500D01*
X106873728Y-78630781D01*
X106742302Y-78651597D01*
X106577552Y-78705128D01*
X106423211Y-78783768D01*
X106343256Y-78841859D01*
X106283072Y-78885586D01*
X106283070Y-78885588D01*
X106283069Y-78885588D01*
X106160588Y-79008069D01*
X106160581Y-79008078D01*
X106100317Y-79091023D01*
X106044987Y-79133689D01*
X105975374Y-79139667D01*
X105913579Y-79107061D01*
X105899683Y-79091023D01*
X105851899Y-79025257D01*
X105839414Y-79008072D01*
X105716928Y-78885586D01*
X105576788Y-78783768D01*
X105422445Y-78705127D01*
X105257701Y-78651598D01*
X105257699Y-78651597D01*
X105257698Y-78651597D01*
X105126271Y-78630781D01*
X105086611Y-78624500D01*
X104913389Y-78624500D01*
X104873728Y-78630781D01*
X104742302Y-78651597D01*
X104577552Y-78705128D01*
X104423211Y-78783768D01*
X104283073Y-78885585D01*
X104175166Y-78993492D01*
X104113843Y-79026976D01*
X104044151Y-79021992D01*
X103988218Y-78980120D01*
X103981946Y-78970906D01*
X103942317Y-78906656D01*
X103818345Y-78782684D01*
X103669124Y-78690643D01*
X103669119Y-78690641D01*
X103502697Y-78635494D01*
X103502690Y-78635493D01*
X103399986Y-78625000D01*
X103250000Y-78625000D01*
X103250000Y-79719670D01*
X103230255Y-79699925D01*
X103144745Y-79650556D01*
X103049370Y-79625000D01*
X102950630Y-79625000D01*
X102855255Y-79650556D01*
X102769745Y-79699925D01*
X102750000Y-79719670D01*
X102750000Y-78625000D01*
X102600027Y-78625000D01*
X102600012Y-78625001D01*
X102497302Y-78635494D01*
X102330880Y-78690641D01*
X102330875Y-78690643D01*
X102181654Y-78782684D01*
X102057684Y-78906654D01*
X101965643Y-79055875D01*
X101965641Y-79055880D01*
X101910494Y-79222302D01*
X101910493Y-79222309D01*
X101900000Y-79325013D01*
X85500500Y-79325013D01*
X85500500Y-73431333D01*
X104422218Y-73431333D01*
X104422218Y-73431334D01*
X104509374Y-73485300D01*
X104509378Y-73485302D01*
X104698778Y-73558675D01*
X104898443Y-73596000D01*
X105101557Y-73596000D01*
X105301226Y-73558674D01*
X105490612Y-73485305D01*
X105490625Y-73485299D01*
X105577780Y-73431334D01*
X105577780Y-73431333D01*
X105000001Y-72853553D01*
X105000000Y-72853553D01*
X104422218Y-73431333D01*
X85500500Y-73431333D01*
X85500500Y-72499999D01*
X103899305Y-72499999D01*
X103899305Y-72500000D01*
X103918045Y-72702248D01*
X103973633Y-72897620D01*
X104064170Y-73079442D01*
X104065389Y-73081056D01*
X104065390Y-73081056D01*
X104646447Y-72500000D01*
X104603660Y-72457213D01*
X104675000Y-72457213D01*
X104675000Y-72542787D01*
X104697149Y-72625445D01*
X104739936Y-72699554D01*
X104800446Y-72760064D01*
X104874555Y-72802851D01*
X104957213Y-72825000D01*
X105042787Y-72825000D01*
X105125445Y-72802851D01*
X105199554Y-72760064D01*
X105260064Y-72699554D01*
X105302851Y-72625445D01*
X105325000Y-72542787D01*
X105325000Y-72499999D01*
X105353553Y-72499999D01*
X105353553Y-72500000D01*
X105934608Y-73081055D01*
X105934609Y-73081055D01*
X105935829Y-73079441D01*
X105935830Y-73079440D01*
X106026366Y-72897620D01*
X106081954Y-72702248D01*
X106100695Y-72500000D01*
X106100695Y-72499999D01*
X106081954Y-72297751D01*
X106026366Y-72102379D01*
X105935828Y-71920556D01*
X105934608Y-71918942D01*
X105353553Y-72499999D01*
X105325000Y-72499999D01*
X105325000Y-72457213D01*
X105302851Y-72374555D01*
X105260064Y-72300446D01*
X105199554Y-72239936D01*
X105125445Y-72197149D01*
X105042787Y-72175000D01*
X104957213Y-72175000D01*
X104874555Y-72197149D01*
X104800446Y-72239936D01*
X104739936Y-72300446D01*
X104697149Y-72374555D01*
X104675000Y-72457213D01*
X104603660Y-72457213D01*
X104065390Y-71918943D01*
X104064168Y-71920561D01*
X104064166Y-71920565D01*
X103973633Y-72102379D01*
X103918045Y-72297751D01*
X103899305Y-72499999D01*
X85500500Y-72499999D01*
X85500500Y-69878711D01*
X88149500Y-69878711D01*
X88149500Y-70121288D01*
X88181161Y-70361785D01*
X88243947Y-70596104D01*
X88287758Y-70701872D01*
X88336776Y-70820212D01*
X88458064Y-71030289D01*
X88458066Y-71030292D01*
X88458067Y-71030293D01*
X88605733Y-71222736D01*
X88605739Y-71222743D01*
X88777256Y-71394260D01*
X88777263Y-71394266D01*
X88890321Y-71481018D01*
X88969711Y-71541936D01*
X89179788Y-71663224D01*
X89403900Y-71756054D01*
X89638211Y-71818838D01*
X89818586Y-71842584D01*
X89878711Y-71850500D01*
X89878712Y-71850500D01*
X90121289Y-71850500D01*
X90169388Y-71844167D01*
X90361789Y-71818838D01*
X90596100Y-71756054D01*
X90820212Y-71663224D01*
X90983993Y-71568665D01*
X104422217Y-71568665D01*
X105000000Y-72146447D01*
X105000001Y-72146447D01*
X105577781Y-71568665D01*
X105490622Y-71514698D01*
X105490621Y-71514697D01*
X105301221Y-71441324D01*
X105101557Y-71404000D01*
X104898443Y-71404000D01*
X104698778Y-71441324D01*
X104509380Y-71514696D01*
X104509374Y-71514699D01*
X104422218Y-71568664D01*
X104422217Y-71568665D01*
X90983993Y-71568665D01*
X91030289Y-71541936D01*
X91222738Y-71394265D01*
X91394265Y-71222738D01*
X91541936Y-71030289D01*
X91663224Y-70820212D01*
X91756054Y-70596100D01*
X91818838Y-70361789D01*
X91850500Y-70121288D01*
X91850500Y-69959999D01*
X101358802Y-69959999D01*
X101358802Y-69960000D01*
X101377551Y-70162340D01*
X101433162Y-70357797D01*
X101523739Y-70539700D01*
X101523744Y-70539708D01*
X101646206Y-70701874D01*
X101796379Y-70838774D01*
X101796381Y-70838776D01*
X101969150Y-70945750D01*
X101969156Y-70945753D01*
X102009298Y-70961304D01*
X102158643Y-71019160D01*
X102358394Y-71056500D01*
X102358396Y-71056500D01*
X102561604Y-71056500D01*
X102561606Y-71056500D01*
X102761357Y-71019160D01*
X102950846Y-70945752D01*
X103123620Y-70838775D01*
X103273795Y-70701872D01*
X103396257Y-70539706D01*
X103486837Y-70357799D01*
X103542448Y-70162345D01*
X103561198Y-69960000D01*
X103553665Y-69878711D01*
X118149500Y-69878711D01*
X118149500Y-70121288D01*
X118181161Y-70361785D01*
X118243947Y-70596104D01*
X118287758Y-70701872D01*
X118336776Y-70820212D01*
X118458064Y-71030289D01*
X118458066Y-71030292D01*
X118458067Y-71030293D01*
X118605733Y-71222736D01*
X118605739Y-71222743D01*
X118777256Y-71394260D01*
X118777263Y-71394266D01*
X118890321Y-71481018D01*
X118969711Y-71541936D01*
X119179788Y-71663224D01*
X119403900Y-71756054D01*
X119638211Y-71818838D01*
X119818586Y-71842584D01*
X119878711Y-71850500D01*
X119878712Y-71850500D01*
X120121289Y-71850500D01*
X120169388Y-71844167D01*
X120361789Y-71818838D01*
X120596100Y-71756054D01*
X120820212Y-71663224D01*
X121030289Y-71541936D01*
X121222738Y-71394265D01*
X121394265Y-71222738D01*
X121541936Y-71030289D01*
X121663224Y-70820212D01*
X121756054Y-70596100D01*
X121818838Y-70361789D01*
X121850500Y-70121288D01*
X121850500Y-69878712D01*
X121818838Y-69638211D01*
X121756054Y-69403900D01*
X121663224Y-69179788D01*
X121541936Y-68969711D01*
X121394265Y-68777262D01*
X121394260Y-68777256D01*
X121222743Y-68605739D01*
X121222736Y-68605733D01*
X121030293Y-68458067D01*
X121030292Y-68458066D01*
X121030289Y-68458064D01*
X120820212Y-68336776D01*
X120728472Y-68298776D01*
X120596104Y-68243947D01*
X120361785Y-68181161D01*
X120121289Y-68149500D01*
X120121288Y-68149500D01*
X119878712Y-68149500D01*
X119878711Y-68149500D01*
X119638214Y-68181161D01*
X119403895Y-68243947D01*
X119179794Y-68336773D01*
X119179785Y-68336777D01*
X118969706Y-68458067D01*
X118777263Y-68605733D01*
X118777256Y-68605739D01*
X118605739Y-68777256D01*
X118605733Y-68777263D01*
X118458067Y-68969706D01*
X118336777Y-69179785D01*
X118336773Y-69179794D01*
X118243947Y-69403895D01*
X118181161Y-69638214D01*
X118149500Y-69878711D01*
X103553665Y-69878711D01*
X103542448Y-69757655D01*
X103486837Y-69562201D01*
X103408009Y-69403895D01*
X103396260Y-69380299D01*
X103396255Y-69380291D01*
X103273793Y-69218125D01*
X103123620Y-69081225D01*
X103123618Y-69081223D01*
X102950849Y-68974249D01*
X102950843Y-68974246D01*
X102801501Y-68916392D01*
X102761357Y-68900840D01*
X102561606Y-68863500D01*
X102358394Y-68863500D01*
X102158643Y-68900840D01*
X102158640Y-68900840D01*
X102158640Y-68900841D01*
X101969156Y-68974246D01*
X101969150Y-68974249D01*
X101796381Y-69081223D01*
X101796379Y-69081225D01*
X101646206Y-69218125D01*
X101523744Y-69380291D01*
X101523739Y-69380299D01*
X101433162Y-69562202D01*
X101377551Y-69757659D01*
X101358802Y-69959999D01*
X91850500Y-69959999D01*
X91850500Y-69878712D01*
X91818838Y-69638211D01*
X91756054Y-69403900D01*
X91663224Y-69179788D01*
X91541936Y-68969711D01*
X91394265Y-68777262D01*
X91394260Y-68777256D01*
X91222743Y-68605739D01*
X91222736Y-68605733D01*
X91030293Y-68458067D01*
X91030292Y-68458066D01*
X91030289Y-68458064D01*
X90820212Y-68336776D01*
X90728472Y-68298776D01*
X90596104Y-68243947D01*
X90361785Y-68181161D01*
X90121289Y-68149500D01*
X90121288Y-68149500D01*
X89878712Y-68149500D01*
X89878711Y-68149500D01*
X89638214Y-68181161D01*
X89403895Y-68243947D01*
X89179794Y-68336773D01*
X89179785Y-68336777D01*
X88969706Y-68458067D01*
X88777263Y-68605733D01*
X88777256Y-68605739D01*
X88605739Y-68777256D01*
X88605733Y-68777263D01*
X88458067Y-68969706D01*
X88336777Y-69179785D01*
X88336773Y-69179794D01*
X88243947Y-69403895D01*
X88181161Y-69638214D01*
X88149500Y-69878711D01*
X85500500Y-69878711D01*
X85500500Y-67419999D01*
X103898802Y-67419999D01*
X103898802Y-67420000D01*
X103917551Y-67622340D01*
X103973162Y-67817797D01*
X104063739Y-67999700D01*
X104063744Y-67999708D01*
X104186206Y-68161874D01*
X104336379Y-68298774D01*
X104336381Y-68298776D01*
X104509150Y-68405750D01*
X104509156Y-68405753D01*
X104549298Y-68421304D01*
X104698643Y-68479160D01*
X104898394Y-68516500D01*
X104898396Y-68516500D01*
X105101604Y-68516500D01*
X105101606Y-68516500D01*
X105301357Y-68479160D01*
X105490846Y-68405752D01*
X105663620Y-68298775D01*
X105813795Y-68161872D01*
X105936257Y-67999706D01*
X106026837Y-67817799D01*
X106082448Y-67622345D01*
X106101198Y-67420000D01*
X106082448Y-67217655D01*
X106026837Y-67022201D01*
X105982101Y-66932361D01*
X105936260Y-66840299D01*
X105936255Y-66840291D01*
X105813793Y-66678125D01*
X105663620Y-66541225D01*
X105663618Y-66541223D01*
X105490849Y-66434249D01*
X105490843Y-66434246D01*
X105341501Y-66376392D01*
X105301357Y-66360840D01*
X105101606Y-66323500D01*
X104898394Y-66323500D01*
X104698643Y-66360840D01*
X104698640Y-66360840D01*
X104698640Y-66360841D01*
X104509156Y-66434246D01*
X104509150Y-66434249D01*
X104336381Y-66541223D01*
X104336379Y-66541225D01*
X104186206Y-66678125D01*
X104063744Y-66840291D01*
X104063739Y-66840299D01*
X103973162Y-67022202D01*
X103917551Y-67217659D01*
X103898802Y-67419999D01*
X85500500Y-67419999D01*
X85500500Y-60624500D01*
X85520185Y-60557461D01*
X85572989Y-60511706D01*
X85624500Y-60500500D01*
X124375500Y-60500500D01*
X124442539Y-60520185D01*
G37*
%TD.AperFunction*%
%TD*%
M02*
