%TF.GenerationSoftware,KiCad,Pcbnew,8.0.4*%
%TF.CreationDate,2024-08-31T15:47:31-07:00*%
%TF.ProjectId,aunisoma-panel-controller,61756e69-736f-46d6-912d-70616e656c2d,rev?*%
%TF.SameCoordinates,Original*%
%TF.FileFunction,Copper,L1,Top*%
%TF.FilePolarity,Positive*%
%FSLAX46Y46*%
G04 Gerber Fmt 4.6, Leading zero omitted, Abs format (unit mm)*
G04 Created by KiCad (PCBNEW 8.0.4) date 2024-08-31 15:47:31*
%MOMM*%
%LPD*%
G01*
G04 APERTURE LIST*
G04 Aperture macros list*
%AMRoundRect*
0 Rectangle with rounded corners*
0 $1 Rounding radius*
0 $2 $3 $4 $5 $6 $7 $8 $9 X,Y pos of 4 corners*
0 Add a 4 corners polygon primitive as box body*
4,1,4,$2,$3,$4,$5,$6,$7,$8,$9,$2,$3,0*
0 Add four circle primitives for the rounded corners*
1,1,$1+$1,$2,$3*
1,1,$1+$1,$4,$5*
1,1,$1+$1,$6,$7*
1,1,$1+$1,$8,$9*
0 Add four rect primitives between the rounded corners*
20,1,$1+$1,$2,$3,$4,$5,0*
20,1,$1+$1,$4,$5,$6,$7,0*
20,1,$1+$1,$6,$7,$8,$9,0*
20,1,$1+$1,$8,$9,$2,$3,0*%
%AMFreePoly0*
4,1,19,0.500000,-0.750000,0.000000,-0.750000,0.000000,-0.744911,-0.071157,-0.744911,-0.207708,-0.704816,-0.327430,-0.627875,-0.420627,-0.520320,-0.479746,-0.390866,-0.500000,-0.250000,-0.500000,0.250000,-0.479746,0.390866,-0.420627,0.520320,-0.327430,0.627875,-0.207708,0.704816,-0.071157,0.744911,0.000000,0.744911,0.000000,0.750000,0.500000,0.750000,0.500000,-0.750000,0.500000,-0.750000,
$1*%
%AMFreePoly1*
4,1,19,0.000000,0.744911,0.071157,0.744911,0.207708,0.704816,0.327430,0.627875,0.420627,0.520320,0.479746,0.390866,0.500000,0.250000,0.500000,-0.250000,0.479746,-0.390866,0.420627,-0.520320,0.327430,-0.627875,0.207708,-0.704816,0.071157,-0.744911,0.000000,-0.744911,0.000000,-0.750000,-0.500000,-0.750000,-0.500000,0.750000,0.000000,0.750000,0.000000,0.744911,0.000000,0.744911,
$1*%
G04 Aperture macros list end*
%TA.AperFunction,SMDPad,CuDef*%
%ADD10RoundRect,0.140000X-0.140000X-0.170000X0.140000X-0.170000X0.140000X0.170000X-0.140000X0.170000X0*%
%TD*%
%TA.AperFunction,SMDPad,CuDef*%
%ADD11RoundRect,0.200000X-0.200000X-0.275000X0.200000X-0.275000X0.200000X0.275000X-0.200000X0.275000X0*%
%TD*%
%TA.AperFunction,SMDPad,CuDef*%
%ADD12RoundRect,0.075000X0.075000X-0.662500X0.075000X0.662500X-0.075000X0.662500X-0.075000X-0.662500X0*%
%TD*%
%TA.AperFunction,SMDPad,CuDef*%
%ADD13RoundRect,0.075000X0.662500X-0.075000X0.662500X0.075000X-0.662500X0.075000X-0.662500X-0.075000X0*%
%TD*%
%TA.AperFunction,SMDPad,CuDef*%
%ADD14RoundRect,0.250000X-0.450000X-0.350000X0.450000X-0.350000X0.450000X0.350000X-0.450000X0.350000X0*%
%TD*%
%TA.AperFunction,SMDPad,CuDef*%
%ADD15R,1.000000X1.000000*%
%TD*%
%TA.AperFunction,ComponentPad*%
%ADD16C,0.800000*%
%TD*%
%TA.AperFunction,ComponentPad*%
%ADD17C,6.400000*%
%TD*%
%TA.AperFunction,SMDPad,CuDef*%
%ADD18RoundRect,0.140000X0.140000X0.170000X-0.140000X0.170000X-0.140000X-0.170000X0.140000X-0.170000X0*%
%TD*%
%TA.AperFunction,ComponentPad*%
%ADD19C,2.000000*%
%TD*%
%TA.AperFunction,SMDPad,CuDef*%
%ADD20RoundRect,0.200000X-0.275000X0.200000X-0.275000X-0.200000X0.275000X-0.200000X0.275000X0.200000X0*%
%TD*%
%TA.AperFunction,SMDPad,CuDef*%
%ADD21RoundRect,0.225000X-0.250000X0.225000X-0.250000X-0.225000X0.250000X-0.225000X0.250000X0.225000X0*%
%TD*%
%TA.AperFunction,ComponentPad*%
%ADD22RoundRect,0.250000X-0.625000X0.350000X-0.625000X-0.350000X0.625000X-0.350000X0.625000X0.350000X0*%
%TD*%
%TA.AperFunction,ComponentPad*%
%ADD23O,1.750000X1.200000*%
%TD*%
%TA.AperFunction,SMDPad,CuDef*%
%ADD24RoundRect,0.200000X0.200000X0.275000X-0.200000X0.275000X-0.200000X-0.275000X0.200000X-0.275000X0*%
%TD*%
%TA.AperFunction,ComponentPad*%
%ADD25R,1.700000X1.700000*%
%TD*%
%TA.AperFunction,ComponentPad*%
%ADD26O,1.700000X1.700000*%
%TD*%
%TA.AperFunction,SMDPad,CuDef*%
%ADD27RoundRect,0.250000X-0.850000X-0.350000X0.850000X-0.350000X0.850000X0.350000X-0.850000X0.350000X0*%
%TD*%
%TA.AperFunction,SMDPad,CuDef*%
%ADD28RoundRect,0.250000X-1.275000X-1.125000X1.275000X-1.125000X1.275000X1.125000X-1.275000X1.125000X0*%
%TD*%
%TA.AperFunction,SMDPad,CuDef*%
%ADD29RoundRect,0.249997X-2.950003X-2.650003X2.950003X-2.650003X2.950003X2.650003X-2.950003X2.650003X0*%
%TD*%
%TA.AperFunction,SMDPad,CuDef*%
%ADD30RoundRect,0.140000X-0.170000X0.140000X-0.170000X-0.140000X0.170000X-0.140000X0.170000X0.140000X0*%
%TD*%
%TA.AperFunction,SMDPad,CuDef*%
%ADD31RoundRect,0.225000X0.225000X0.250000X-0.225000X0.250000X-0.225000X-0.250000X0.225000X-0.250000X0*%
%TD*%
%TA.AperFunction,SMDPad,CuDef*%
%ADD32RoundRect,0.243750X-0.456250X0.243750X-0.456250X-0.243750X0.456250X-0.243750X0.456250X0.243750X0*%
%TD*%
%TA.AperFunction,SMDPad,CuDef*%
%ADD33RoundRect,0.225000X-0.225000X-0.250000X0.225000X-0.250000X0.225000X0.250000X-0.225000X0.250000X0*%
%TD*%
%TA.AperFunction,SMDPad,CuDef*%
%ADD34RoundRect,0.200000X0.275000X-0.200000X0.275000X0.200000X-0.275000X0.200000X-0.275000X-0.200000X0*%
%TD*%
%TA.AperFunction,SMDPad,CuDef*%
%ADD35RoundRect,0.243750X0.243750X0.456250X-0.243750X0.456250X-0.243750X-0.456250X0.243750X-0.456250X0*%
%TD*%
%TA.AperFunction,SMDPad,CuDef*%
%ADD36R,1.700000X1.000000*%
%TD*%
%TA.AperFunction,SMDPad,CuDef*%
%ADD37RoundRect,0.150000X0.150000X-0.587500X0.150000X0.587500X-0.150000X0.587500X-0.150000X-0.587500X0*%
%TD*%
%TA.AperFunction,SMDPad,CuDef*%
%ADD38RoundRect,0.250000X-0.325000X-0.650000X0.325000X-0.650000X0.325000X0.650000X-0.325000X0.650000X0*%
%TD*%
%TA.AperFunction,SMDPad,CuDef*%
%ADD39R,0.700000X1.500000*%
%TD*%
%TA.AperFunction,SMDPad,CuDef*%
%ADD40R,1.000000X0.800000*%
%TD*%
%TA.AperFunction,SMDPad,CuDef*%
%ADD41RoundRect,0.140000X0.170000X-0.140000X0.170000X0.140000X-0.170000X0.140000X-0.170000X-0.140000X0*%
%TD*%
%TA.AperFunction,SMDPad,CuDef*%
%ADD42RoundRect,0.250000X0.312500X1.450000X-0.312500X1.450000X-0.312500X-1.450000X0.312500X-1.450000X0*%
%TD*%
%TA.AperFunction,SMDPad,CuDef*%
%ADD43RoundRect,0.225000X0.250000X-0.225000X0.250000X0.225000X-0.250000X0.225000X-0.250000X-0.225000X0*%
%TD*%
%TA.AperFunction,SMDPad,CuDef*%
%ADD44FreePoly0,90.000000*%
%TD*%
%TA.AperFunction,SMDPad,CuDef*%
%ADD45FreePoly1,90.000000*%
%TD*%
%TA.AperFunction,SMDPad,CuDef*%
%ADD46R,1.000000X3.000000*%
%TD*%
%TA.AperFunction,ComponentPad*%
%ADD47C,1.600000*%
%TD*%
%TA.AperFunction,SMDPad,CuDef*%
%ADD48R,0.506000X1.012000*%
%TD*%
%TA.AperFunction,SMDPad,CuDef*%
%ADD49R,0.556000X0.503000*%
%TD*%
%TA.AperFunction,SMDPad,CuDef*%
%ADD50R,3.500000X2.350000*%
%TD*%
%TA.AperFunction,SMDPad,CuDef*%
%ADD51RoundRect,0.225000X-0.225000X-0.375000X0.225000X-0.375000X0.225000X0.375000X-0.225000X0.375000X0*%
%TD*%
%TA.AperFunction,SMDPad,CuDef*%
%ADD52RoundRect,0.162500X-0.367500X-0.162500X0.367500X-0.162500X0.367500X0.162500X-0.367500X0.162500X0*%
%TD*%
%TA.AperFunction,ViaPad*%
%ADD53C,0.800000*%
%TD*%
%TA.AperFunction,ViaPad*%
%ADD54C,0.500000*%
%TD*%
%TA.AperFunction,Conductor*%
%ADD55C,0.250000*%
%TD*%
%TA.AperFunction,Conductor*%
%ADD56C,1.000000*%
%TD*%
%TA.AperFunction,Conductor*%
%ADD57C,0.300000*%
%TD*%
%TA.AperFunction,Conductor*%
%ADD58C,0.400000*%
%TD*%
%TA.AperFunction,Conductor*%
%ADD59C,0.500000*%
%TD*%
%TA.AperFunction,Conductor*%
%ADD60C,0.350000*%
%TD*%
G04 APERTURE END LIST*
D10*
%TO.P,C1,1*%
%TO.N,/NRST*%
X9400000Y47868326D03*
%TO.P,C1,2*%
%TO.N,GND*%
X10360000Y47868326D03*
%TD*%
D11*
%TO.P,R10,1*%
%TO.N,GND*%
X49200000Y38505826D03*
%TO.P,R10,2*%
%TO.N,Net-(Q1-C)*%
X50850000Y38505826D03*
%TD*%
D12*
%TO.P,U2,1,VBAT*%
%TO.N,+3.3V*%
X27515000Y46863826D03*
%TO.P,U2,2,PC13*%
%TO.N,unconnected-(U2A-PC13-Pad2)*%
X28015000Y46863826D03*
%TO.P,U2,3,PC14-OSC32_IN*%
%TO.N,unconnected-(U2A-PC14-OSC32_IN-Pad3)*%
X28515000Y46863826D03*
%TO.P,U2,4,PC15-OSC32_OUT*%
%TO.N,unconnected-(U2A-PC15-OSC32_OUT-Pad4)*%
X29015000Y46863826D03*
%TO.P,U2,5,PD0-OSC_IN-RCC_OSC_IN*%
%TO.N,/OSC_IN*%
X29515000Y46863826D03*
%TO.P,U2,6,PD1-OSC_OUT-RCC_OSC_OUT*%
%TO.N,/OSC_OUT*%
X30015000Y46863826D03*
%TO.P,U2,7,NRST*%
%TO.N,/NRST*%
X30515000Y46863826D03*
%TO.P,U2,8,VSSA*%
%TO.N,GND*%
X31015000Y46863826D03*
%TO.P,U2,9,VDDA*%
%TO.N,+3.3V*%
X31515000Y46863826D03*
%TO.P,U2,10,PA0-WKUP-LED_B*%
%TO.N,/LED_B*%
X32015000Y46863826D03*
%TO.P,U2,11,PA1-LED_G*%
%TO.N,/LED_G*%
X32515000Y46863826D03*
%TO.P,U2,12,PA2-LED_R*%
%TO.N,/LED_R*%
X33015000Y46863826D03*
D13*
%TO.P,U2,13,PA3*%
%TO.N,unconnected-(U2A-PA3-Pad13)*%
X34427500Y48276326D03*
%TO.P,U2,14,PA4*%
%TO.N,unconnected-(U2A-PA4-Pad14)*%
X34427500Y48776326D03*
%TO.P,U2,15,PA5-SPI1_SCK*%
%TO.N,/SCK*%
X34427500Y49276326D03*
%TO.P,U2,16,PA6-SPI1_MISO*%
%TO.N,/MISO*%
X34427500Y49776326D03*
%TO.P,U2,17,PA7-SPI1_MOSI*%
%TO.N,/MOSI*%
X34427500Y50276326D03*
%TO.P,U2,18,PB0-RF_CS*%
%TO.N,/RF_CS*%
X34427500Y50776326D03*
%TO.P,U2,19,PB1-RF_RST*%
%TO.N,/RF_RST*%
X34427500Y51276326D03*
%TO.P,U2,20,PB2-PIR_2*%
%TO.N,/PIR_2*%
X34427500Y51776326D03*
%TO.P,U2,21,PB10-PIR_1*%
%TO.N,/PIR_1*%
X34427500Y52276326D03*
%TO.P,U2,22,PB11-RF_INT*%
%TO.N,/RF_INT*%
X34427500Y52776326D03*
%TO.P,U2,23,VSS_1*%
%TO.N,GND*%
X34427500Y53276326D03*
%TO.P,U2,24,VDD_1*%
%TO.N,+3.3V*%
X34427500Y53776326D03*
D12*
%TO.P,U2,25,PB12-LED_STATUS4*%
%TO.N,/LED_STATUS4*%
X33015000Y55188826D03*
%TO.P,U2,26,PB13-LED_STATUS3*%
%TO.N,/LED_STATUS3*%
X32515000Y55188826D03*
%TO.P,U2,27,PB14-LED_STATUS2*%
%TO.N,/LED_STATUS2*%
X32015000Y55188826D03*
%TO.P,U2,28,PB15-LED_STATUS1*%
%TO.N,/LED_STATUS1*%
X31515000Y55188826D03*
%TO.P,U2,29,PA8-PA8*%
%TO.N,/PA8*%
X31015000Y55188826D03*
%TO.P,U2,30,PA9-USART1_TX*%
%TO.N,/USART1_TX*%
X30515000Y55188826D03*
%TO.P,U2,31,PA10-USART1_RX*%
%TO.N,/USART1_RX*%
X30015000Y55188826D03*
%TO.P,U2,32,PA11-PA11*%
%TO.N,/PA11*%
X29515000Y55188826D03*
%TO.P,U2,33,PA12-PA12*%
%TO.N,/PA12*%
X29015000Y55188826D03*
%TO.P,U2,34,PA13-SYS_JTMS-SWDIO*%
%TO.N,/SWDIO*%
X28515000Y55188826D03*
%TO.P,U2,35,VSS_2*%
%TO.N,GND*%
X28015000Y55188826D03*
%TO.P,U2,36,VDD_2*%
%TO.N,+3.3V*%
X27515000Y55188826D03*
D13*
%TO.P,U2,37,PA14-SYS_JTCK-SWCLK*%
%TO.N,/SWCLK*%
X26102500Y53776326D03*
%TO.P,U2,38,PA15*%
%TO.N,unconnected-(U2A-PA15-Pad38)*%
X26102500Y53276326D03*
%TO.P,U2,39,PB3-SYS_JTDO-TRACESWO*%
%TO.N,/SWO*%
X26102500Y52776326D03*
%TO.P,U2,40,PB4-PB4*%
%TO.N,Net-(U2A-PB4-PB4)*%
X26102500Y52276326D03*
%TO.P,U2,41,PB5-PB5*%
%TO.N,Net-(U2A-PB5-PB5)*%
X26102500Y51776326D03*
%TO.P,U2,42,PB6-PB6*%
%TO.N,Net-(U2A-PB6-PB6)*%
X26102500Y51276326D03*
%TO.P,U2,43,PB7*%
%TO.N,unconnected-(U2A-PB7-Pad43)*%
X26102500Y50776326D03*
%TO.P,U2,44,BOOT0*%
%TO.N,/BOOT0*%
X26102500Y50276326D03*
%TO.P,U2,45,PB8*%
%TO.N,unconnected-(U2A-PB8-Pad45)*%
X26102500Y49776326D03*
%TO.P,U2,46,PB9*%
%TO.N,unconnected-(U2A-PB9-Pad46)*%
X26102500Y49276326D03*
%TO.P,U2,47,VSS_3*%
%TO.N,GND*%
X26102500Y48776326D03*
%TO.P,U2,48,VDD_3*%
%TO.N,+3.3V*%
X26102500Y48276326D03*
%TD*%
D14*
%TO.P,Y1,1,1*%
%TO.N,/OSC_IN*%
X28665000Y39126326D03*
%TO.P,Y1,2,2*%
%TO.N,GND*%
X30865000Y39126326D03*
%TO.P,Y1,3,3*%
%TO.N,Net-(C13-Pad1)*%
X30865000Y40826326D03*
%TO.P,Y1,4,4*%
%TO.N,GND*%
X28665000Y40826326D03*
%TD*%
D15*
%TO.P,PB3,1,1*%
%TO.N,Net-(U2A-PB6-PB6)*%
X22360000Y51530326D03*
%TD*%
D16*
%TO.P,H2,1,1*%
%TO.N,GND*%
X2100000Y4801326D03*
X2802944Y6498382D03*
X2802944Y3104270D03*
X4500000Y7201326D03*
D17*
X4500000Y4801326D03*
D16*
X4500000Y2401326D03*
X6197056Y6498382D03*
X6197056Y3104270D03*
X6900000Y4801326D03*
%TD*%
D18*
%TO.P,C7,1*%
%TO.N,+3.3V*%
X23680000Y46968326D03*
%TO.P,C7,2*%
%TO.N,GND*%
X22720000Y46968326D03*
%TD*%
D19*
%TO.P,X1,1,1*%
%TO.N,Net-(J4-In)*%
X66500000Y67968326D03*
%TD*%
D20*
%TO.P,R24,1*%
%TO.N,/PIR_2*%
X70000000Y44018326D03*
%TO.P,R24,2*%
%TO.N,/PIR_2_IN*%
X70000000Y42368326D03*
%TD*%
D21*
%TO.P,C13,1*%
%TO.N,Net-(C13-Pad1)*%
X33065000Y40926326D03*
%TO.P,C13,2*%
%TO.N,GND*%
X33065000Y39376326D03*
%TD*%
D22*
%TO.P,J7,1,Pin_1*%
%TO.N,/LED_OUT_B*%
X74600000Y31268326D03*
D23*
%TO.P,J7,2,Pin_2*%
%TO.N,/LED_OUT_G*%
X74600000Y29268326D03*
%TO.P,J7,3,Pin_3*%
%TO.N,/LED_OUT_R*%
X74600000Y27268326D03*
%TO.P,J7,4,Pin_4*%
%TO.N,+24V*%
X74600000Y25268326D03*
%TO.P,J7,5,Pin_5*%
%TO.N,GND*%
X74600000Y23268326D03*
%TD*%
D24*
%TO.P,R5,1*%
%TO.N,Net-(C13-Pad1)*%
X32115000Y42726326D03*
%TO.P,R5,2*%
%TO.N,/OSC_OUT*%
X30465000Y42726326D03*
%TD*%
D25*
%TO.P,J3,1,Pin_1*%
%TO.N,/PA8*%
X30970600Y60181326D03*
D26*
%TO.P,J3,2,Pin_2*%
%TO.N,/PA11*%
X30970600Y62721326D03*
%TO.P,J3,3,Pin_3*%
%TO.N,/PA12*%
X30970600Y65261326D03*
%TD*%
D24*
%TO.P,R1,1*%
%TO.N,Net-(D1-A)*%
X9050000Y29868326D03*
%TO.P,R1,2*%
%TO.N,/Power/VOUT*%
X7400000Y29868326D03*
%TD*%
D18*
%TO.P,C12,1*%
%TO.N,+3.3V*%
X31580000Y44126326D03*
%TO.P,C12,2*%
%TO.N,GND*%
X30620000Y44126326D03*
%TD*%
D25*
%TO.P,J2,1,Pin_1*%
%TO.N,GND*%
X24900000Y65246326D03*
D26*
%TO.P,J2,2,Pin_2*%
%TO.N,/USART1_TX*%
X24900000Y62706326D03*
%TO.P,J2,3,Pin_3*%
%TO.N,/USART1_RX*%
X24900000Y60166326D03*
%TD*%
D24*
%TO.P,R15,1*%
%TO.N,Net-(Q2-C)*%
X50850000Y28065826D03*
%TO.P,R15,2*%
%TO.N,+24V*%
X49200000Y28065826D03*
%TD*%
D10*
%TO.P,C15,1*%
%TO.N,+3.3V*%
X58750000Y66250000D03*
%TO.P,C15,2*%
%TO.N,GND*%
X59710000Y66250000D03*
%TD*%
D27*
%TO.P,Q5,1,G*%
%TO.N,Net-(Q2-C)*%
X57925000Y29570826D03*
D28*
%TO.P,Q5,2,D*%
%TO.N,/LED_OUT_G*%
X62550000Y28815826D03*
X62550000Y25765826D03*
D29*
X64225000Y27290826D03*
D28*
X65900000Y28815826D03*
X65900000Y25765826D03*
D27*
%TO.P,Q5,3,S*%
%TO.N,GND*%
X57925000Y25010826D03*
%TD*%
D30*
%TO.P,C10,1*%
%TO.N,+3.3V*%
X27500000Y45248326D03*
%TO.P,C10,2*%
%TO.N,GND*%
X27500000Y44288326D03*
%TD*%
D31*
%TO.P,C6,1*%
%TO.N,+3.3V*%
X24250000Y48368326D03*
%TO.P,C6,2*%
%TO.N,GND*%
X22700000Y48368326D03*
%TD*%
D20*
%TO.P,R9,1*%
%TO.N,Net-(D6-A)*%
X42282000Y71134826D03*
%TO.P,R9,2*%
%TO.N,/LED_STATUS4*%
X42282000Y69484826D03*
%TD*%
D24*
%TO.P,R20,1*%
%TO.N,Net-(Q3-B)*%
X50875000Y17785826D03*
%TO.P,R20,2*%
%TO.N,/LED_R*%
X49225000Y17785826D03*
%TD*%
D32*
%TO.P,D6,1,K*%
%TO.N,GND*%
X42282000Y75134826D03*
%TO.P,D6,2,A*%
%TO.N,Net-(D6-A)*%
X42282000Y73259826D03*
%TD*%
D33*
%TO.P,C3,1*%
%TO.N,/Power/V_IN*%
X14200000Y17968326D03*
%TO.P,C3,2*%
%TO.N,GND*%
X15750000Y17968326D03*
%TD*%
D34*
%TO.P,R25,1*%
%TO.N,GND*%
X70000000Y38618326D03*
%TO.P,R25,2*%
%TO.N,/PIR_2_IN*%
X70000000Y40268326D03*
%TD*%
D27*
%TO.P,Q4,1,G*%
%TO.N,Net-(Q1-C)*%
X57925000Y38170826D03*
D28*
%TO.P,Q4,2,D*%
%TO.N,/LED_OUT_B*%
X62550000Y37415826D03*
X62550000Y34365826D03*
D29*
X64225000Y35890826D03*
D28*
X65900000Y37415826D03*
X65900000Y34365826D03*
D27*
%TO.P,Q4,3,S*%
%TO.N,GND*%
X57925000Y33610826D03*
%TD*%
D18*
%TO.P,C11,1*%
%TO.N,+3.3V*%
X31580000Y45226326D03*
%TO.P,C11,2*%
%TO.N,GND*%
X30620000Y45226326D03*
%TD*%
D22*
%TO.P,J5,1,Pin_1*%
%TO.N,GND*%
X74600000Y53468326D03*
D23*
%TO.P,J5,2,Pin_2*%
%TO.N,/PIR_1_IN*%
X74600000Y51468326D03*
%TO.P,J5,3,Pin_3*%
%TO.N,+3.3V*%
X74600000Y49468326D03*
%TD*%
D35*
%TO.P,D1,1,K*%
%TO.N,GND*%
X13237500Y29868326D03*
%TO.P,D1,2,A*%
%TO.N,Net-(D1-A)*%
X11362500Y29868326D03*
%TD*%
D15*
%TO.P,PB1,1,1*%
%TO.N,Net-(U2A-PB4-PB4)*%
X18296000Y51530326D03*
%TD*%
D36*
%TO.P,SW1,4*%
%TO.N,N/C*%
X9400000Y42418326D03*
%TO.P,SW1,3*%
X2800000Y42418326D03*
%TO.P,SW1,2,B*%
%TO.N,/NRST*%
X9400000Y46118326D03*
%TO.P,SW1,1,A*%
%TO.N,GND*%
X2800000Y46118326D03*
%TD*%
D37*
%TO.P,Q1,1,B*%
%TO.N,Net-(Q1-B)*%
X53150000Y34930826D03*
%TO.P,Q1,2,E*%
%TO.N,GND*%
X55050000Y34930826D03*
%TO.P,Q1,3,C*%
%TO.N,Net-(Q1-C)*%
X54100000Y36805826D03*
%TD*%
D25*
%TO.P,J1,1,Pin_1*%
%TO.N,+3.3V*%
X8200000Y65268326D03*
D26*
%TO.P,J1,2,Pin_2*%
%TO.N,/SWCLK*%
X8200000Y62728326D03*
%TO.P,J1,3,Pin_3*%
%TO.N,GND*%
X8200000Y60188326D03*
%TO.P,J1,4,Pin_4*%
%TO.N,/SWDIO*%
X8200000Y57648326D03*
%TO.P,J1,5,Pin_5*%
%TO.N,/NRST*%
X8200000Y55108326D03*
%TO.P,J1,6,Pin_6*%
%TO.N,/SWO*%
X8200000Y52568326D03*
%TD*%
D11*
%TO.P,R18,1*%
%TO.N,GND*%
X49225000Y21385826D03*
%TO.P,R18,2*%
%TO.N,Net-(Q3-C)*%
X50875000Y21385826D03*
%TD*%
%TO.P,R13,1*%
%TO.N,/LED_B*%
X49200000Y33105826D03*
%TO.P,R13,2*%
%TO.N,+3.3V*%
X50850000Y33105826D03*
%TD*%
D38*
%TO.P,C2,1*%
%TO.N,/Power/VOUT*%
X9725000Y26268326D03*
%TO.P,C2,2*%
%TO.N,GND*%
X12675000Y26268326D03*
%TD*%
D39*
%TO.P,SW2,3,C*%
%TO.N,GND*%
X18600000Y45968326D03*
%TO.P,SW2,2,B*%
%TO.N,Net-(SW2-B)*%
X17100000Y45968326D03*
%TO.P,SW2,1,A*%
%TO.N,+3.3V*%
X14100000Y45968326D03*
D40*
%TO.P,SW2,*%
%TO.N,*%
X20000000Y43108326D03*
X20000000Y45318326D03*
X12700000Y43108326D03*
X12700000Y45318326D03*
%TD*%
D37*
%TO.P,Q3,1,B*%
%TO.N,Net-(Q3-B)*%
X53150000Y17885826D03*
%TO.P,Q3,2,E*%
%TO.N,GND*%
X55050000Y17885826D03*
%TO.P,Q3,3,C*%
%TO.N,Net-(Q3-C)*%
X54100000Y19760826D03*
%TD*%
D34*
%TO.P,R23,1*%
%TO.N,GND*%
X70000000Y49818326D03*
%TO.P,R23,2*%
%TO.N,/PIR_1_IN*%
X70000000Y51468326D03*
%TD*%
D27*
%TO.P,Q6,1,G*%
%TO.N,Net-(Q3-C)*%
X57925000Y21065826D03*
D28*
%TO.P,Q6,2,D*%
%TO.N,/LED_OUT_R*%
X62550000Y20310826D03*
X62550000Y17260826D03*
D29*
X64225000Y18785826D03*
D28*
X65900000Y20310826D03*
X65900000Y17260826D03*
D27*
%TO.P,Q6,3,S*%
%TO.N,GND*%
X57925000Y16505826D03*
%TD*%
D20*
%TO.P,R22,1*%
%TO.N,/PIR_1*%
X70000000Y55118326D03*
%TO.P,R22,2*%
%TO.N,/PIR_1_IN*%
X70000000Y53468326D03*
%TD*%
D11*
%TO.P,R14,1*%
%TO.N,GND*%
X49200000Y29865826D03*
%TO.P,R14,2*%
%TO.N,Net-(Q2-C)*%
X50850000Y29865826D03*
%TD*%
D32*
%TO.P,D3,1,K*%
%TO.N,GND*%
X33282000Y75072326D03*
%TO.P,D3,2,A*%
%TO.N,Net-(D3-A)*%
X33282000Y73197326D03*
%TD*%
D15*
%TO.P,PB2,1,1*%
%TO.N,Net-(U2A-PB5-PB5)*%
X20328000Y51530326D03*
%TD*%
D11*
%TO.P,R4,1*%
%TO.N,Net-(U1-FB)*%
X18525000Y20118326D03*
%TO.P,R4,2*%
%TO.N,GND*%
X20175000Y20118326D03*
%TD*%
D41*
%TO.P,C14,1*%
%TO.N,+3.3V*%
X34900000Y54888326D03*
%TO.P,C14,2*%
%TO.N,GND*%
X34900000Y55848326D03*
%TD*%
D20*
%TO.P,R7,1*%
%TO.N,Net-(D4-A)*%
X36282000Y71134826D03*
%TO.P,R7,2*%
%TO.N,/LED_STATUS2*%
X36282000Y69484826D03*
%TD*%
%TO.P,R6,1*%
%TO.N,Net-(D3-A)*%
X33282000Y71134826D03*
%TO.P,R6,2*%
%TO.N,/LED_STATUS1*%
X33282000Y69484826D03*
%TD*%
D24*
%TO.P,R11,1*%
%TO.N,Net-(Q1-C)*%
X50850000Y36705826D03*
%TO.P,R11,2*%
%TO.N,+24V*%
X49200000Y36705826D03*
%TD*%
D37*
%TO.P,Q2,1,B*%
%TO.N,Net-(Q2-B)*%
X53150000Y26305826D03*
%TO.P,Q2,2,E*%
%TO.N,GND*%
X55050000Y26305826D03*
%TO.P,Q2,3,C*%
%TO.N,Net-(Q2-C)*%
X54100000Y28180826D03*
%TD*%
D16*
%TO.P,H3,1,1*%
%TO.N,GND*%
X72100000Y74801326D03*
X72802944Y76498382D03*
X72802944Y73104270D03*
X74500000Y77201326D03*
D17*
X74500000Y74801326D03*
D16*
X74500000Y72401326D03*
X76197056Y76498382D03*
X76197056Y73104270D03*
X76900000Y74801326D03*
%TD*%
D42*
%TO.P,F1,1*%
%TO.N,+24V*%
X24737500Y14968326D03*
%TO.P,F1,2*%
%TO.N,Net-(D2-A)*%
X20462500Y14968326D03*
%TD*%
D11*
%TO.P,R21,1*%
%TO.N,/LED_R*%
X49250000Y15885826D03*
%TO.P,R21,2*%
%TO.N,+3.3V*%
X50900000Y15885826D03*
%TD*%
%TO.P,R2,1*%
%TO.N,Net-(SW2-B)*%
X17150000Y48268326D03*
%TO.P,R2,2*%
%TO.N,/BOOT0*%
X18800000Y48268326D03*
%TD*%
%TO.P,R17,1*%
%TO.N,/LED_G*%
X49200000Y24465826D03*
%TO.P,R17,2*%
%TO.N,+3.3V*%
X50850000Y24465826D03*
%TD*%
D32*
%TO.P,D5,1,K*%
%TO.N,GND*%
X39282000Y75134826D03*
%TO.P,D5,2,A*%
%TO.N,Net-(D5-A)*%
X39282000Y73259826D03*
%TD*%
D43*
%TO.P,C4,1*%
%TO.N,Net-(U1-BOOT)*%
X16600000Y23393326D03*
%TO.P,C4,2*%
%TO.N,/Power/SW*%
X16600000Y24943326D03*
%TD*%
D36*
%TO.P,SW3,4*%
%TO.N,N/C*%
X28150000Y72318326D03*
%TO.P,SW3,3*%
X21550000Y72318326D03*
%TO.P,SW3,2,B*%
%TO.N,/PA11*%
X28150000Y76018326D03*
%TO.P,SW3,1,A*%
%TO.N,+3.3V*%
X21550000Y76018326D03*
%TD*%
D16*
%TO.P,H4,1,1*%
%TO.N,GND*%
X72100000Y4801326D03*
X72802944Y6498382D03*
X72802944Y3104270D03*
X74500000Y7201326D03*
D17*
X74500000Y4801326D03*
D16*
X74500000Y2401326D03*
X76197056Y6498382D03*
X76197056Y3104270D03*
X76900000Y4801326D03*
%TD*%
D32*
%TO.P,D4,1,K*%
%TO.N,GND*%
X36282000Y75134826D03*
%TO.P,D4,2,A*%
%TO.N,Net-(D4-A)*%
X36282000Y73259826D03*
%TD*%
D18*
%TO.P,C8,1*%
%TO.N,+3.3V*%
X26500000Y55468326D03*
%TO.P,C8,2*%
%TO.N,GND*%
X25540000Y55468326D03*
%TD*%
D44*
%TO.P,JP1,1,A*%
%TO.N,/Power/VOUT*%
X4300000Y35618326D03*
D45*
%TO.P,JP1,2,B*%
%TO.N,+3.3V*%
X4300000Y36918326D03*
%TD*%
D20*
%TO.P,R3,1*%
%TO.N,/Power/VOUT*%
X18600000Y23468326D03*
%TO.P,R3,2*%
%TO.N,Net-(U1-FB)*%
X18600000Y21818326D03*
%TD*%
D24*
%TO.P,R19,1*%
%TO.N,Net-(Q3-C)*%
X50850000Y19585826D03*
%TO.P,R19,2*%
%TO.N,+24V*%
X49200000Y19585826D03*
%TD*%
D43*
%TO.P,C9,1*%
%TO.N,/OSC_IN*%
X26465000Y39251326D03*
%TO.P,C9,2*%
%TO.N,GND*%
X26465000Y40801326D03*
%TD*%
D24*
%TO.P,R16,1*%
%TO.N,Net-(Q2-B)*%
X50825000Y26265826D03*
%TO.P,R16,2*%
%TO.N,/LED_G*%
X49175000Y26265826D03*
%TD*%
D46*
%TO.P,U3,1,GND*%
%TO.N,GND*%
X52500000Y45768326D03*
D47*
X52500000Y47768326D03*
D46*
%TO.P,U3,2,MISO*%
%TO.N,/MISO*%
X54500000Y45768326D03*
D47*
X54500000Y47768326D03*
D46*
%TO.P,U3,3,MOSI*%
%TO.N,/MOSI*%
X56500000Y45768326D03*
D47*
X56500000Y47768326D03*
D46*
%TO.P,U3,4,SCK*%
%TO.N,/SCK*%
X58500000Y45768326D03*
D47*
X58500000Y47768326D03*
D46*
%TO.P,U3,5,NSS*%
%TO.N,/RF_CS*%
X60500000Y45768326D03*
D47*
X60500000Y47768326D03*
D46*
%TO.P,U3,6,RESET*%
%TO.N,/RF_RST*%
X62500000Y45768326D03*
D47*
X62500000Y47768326D03*
D46*
%TO.P,U3,7,DIO5*%
%TO.N,unconnected-(U3-DIO5-Pad7)*%
X64500000Y45768326D03*
D47*
%TO.N,unconnected-(U3-DIO5-Pad7)_1*%
X64500000Y47768326D03*
D46*
%TO.P,U3,8,GND*%
%TO.N,GND*%
X66500000Y45768326D03*
D47*
X66500000Y47768326D03*
%TO.P,U3,9,ANT*%
%TO.N,Net-(J4-In)*%
X66500000Y61368326D03*
D46*
X66500000Y63368326D03*
D47*
%TO.P,U3,10,GND*%
%TO.N,GND*%
X64500000Y61368326D03*
D46*
X64500000Y63368326D03*
D47*
%TO.P,U3,11,DIO3*%
%TO.N,unconnected-(U3-DIO3-Pad11)_1*%
X62500000Y61368326D03*
D46*
%TO.N,unconnected-(U3-DIO3-Pad11)*%
X62500000Y63368326D03*
D47*
%TO.P,U3,12,DIO4*%
%TO.N,unconnected-(U3-DIO4-Pad12)*%
X60500000Y61368326D03*
D46*
%TO.N,unconnected-(U3-DIO4-Pad12)_1*%
X60500000Y63368326D03*
D47*
%TO.P,U3,13,3.3V*%
%TO.N,+3.3V*%
X58500000Y61368326D03*
D46*
X58500000Y63368326D03*
D47*
%TO.P,U3,14,DIO0*%
%TO.N,/RF_INT*%
X56500000Y61368326D03*
D46*
X56500000Y63368326D03*
D47*
%TO.P,U3,15,DIO1*%
%TO.N,unconnected-(U3-DIO1-Pad15)_1*%
X54500000Y61368326D03*
D46*
%TO.N,unconnected-(U3-DIO1-Pad15)*%
X54500000Y63368326D03*
D47*
%TO.P,U3,16,DIO2*%
%TO.N,unconnected-(U3-DIO2-Pad16)*%
X52500000Y61368326D03*
D46*
%TO.N,unconnected-(U3-DIO2-Pad16)_1*%
X52500000Y63368326D03*
%TD*%
D48*
%TO.P,J4,1,In*%
%TO.N,Net-(J4-In)*%
X72797000Y63568326D03*
D49*
X73272000Y63572826D03*
X75900000Y63572826D03*
D48*
X76400000Y63574326D03*
D15*
%TO.P,J4,2,Ext*%
%TO.N,GND*%
X73600000Y62074326D03*
X75600000Y62074326D03*
X73600000Y65074326D03*
X75600000Y65074326D03*
%TD*%
D50*
%TO.P,L1,1,1*%
%TO.N,/Power/SW*%
X5225000Y20618326D03*
%TO.P,L1,2,2*%
%TO.N,/Power/VOUT*%
X5225000Y26318326D03*
%TD*%
D22*
%TO.P,J6,1,Pin_1*%
%TO.N,GND*%
X74600000Y42368326D03*
D23*
%TO.P,J6,2,Pin_2*%
%TO.N,/PIR_2_IN*%
X74600000Y40368326D03*
%TO.P,J6,3,Pin_3*%
%TO.N,+3.3V*%
X74600000Y38368326D03*
%TD*%
D20*
%TO.P,R8,1*%
%TO.N,Net-(D5-A)*%
X39282000Y71134826D03*
%TO.P,R8,2*%
%TO.N,/LED_STATUS3*%
X39282000Y69484826D03*
%TD*%
D21*
%TO.P,C5,1*%
%TO.N,/Power/VOUT*%
X20400000Y23418326D03*
%TO.P,C5,2*%
%TO.N,Net-(U1-FB)*%
X20400000Y21868326D03*
%TD*%
D16*
%TO.P,H1,1,1*%
%TO.N,GND*%
X2100000Y74801326D03*
X2802944Y76498382D03*
X2802944Y73104270D03*
X4500000Y77201326D03*
D17*
X4500000Y74801326D03*
D16*
X4500000Y72401326D03*
X6197056Y76498382D03*
X6197056Y73104270D03*
X6900000Y74801326D03*
%TD*%
D24*
%TO.P,R12,1*%
%TO.N,Net-(Q1-B)*%
X50850000Y34905826D03*
%TO.P,R12,2*%
%TO.N,/LED_B*%
X49200000Y34905826D03*
%TD*%
D51*
%TO.P,D2,1,K*%
%TO.N,/Power/V_IN*%
X14850000Y14968326D03*
%TO.P,D2,2,A*%
%TO.N,Net-(D2-A)*%
X18150000Y14968326D03*
%TD*%
D52*
%TO.P,U1,1,GND*%
%TO.N,GND*%
X14400000Y21693326D03*
%TO.P,U1,2,SW*%
%TO.N,/Power/SW*%
X14400000Y20743326D03*
%TO.P,U1,3,VIN*%
%TO.N,/Power/V_IN*%
X14400000Y19793326D03*
%TO.P,U1,4,FB*%
%TO.N,Net-(U1-FB)*%
X16600000Y19793326D03*
%TO.P,U1,5,EN*%
%TO.N,unconnected-(U1-EN-Pad5)*%
X16600000Y20743326D03*
%TO.P,U1,6,BOOT*%
%TO.N,Net-(U1-BOOT)*%
X16600000Y21693326D03*
%TD*%
D53*
%TO.N,+3.3V*%
X45400000Y33068326D03*
X51500000Y33068326D03*
%TO.N,/LED_R*%
X48265000Y17768326D03*
X46600000Y17768326D03*
%TO.N,/LED_G*%
X46175000Y26268326D03*
X48250000Y26268326D03*
X34500000Y46068326D03*
X33004267Y48201325D03*
%TO.N,/LED_B*%
X48255000Y34968326D03*
X45400000Y34968326D03*
%TO.N,GND*%
X70000000Y37943326D03*
D54*
X17200000Y18568326D03*
D53*
X22175000Y47668326D03*
X31015000Y48468326D03*
X75600000Y61268326D03*
X18600000Y46868326D03*
D54*
X12100000Y22268326D03*
D53*
X28500000Y53701326D03*
X33100000Y38768326D03*
X60250000Y66250000D03*
D54*
X15500000Y26368326D03*
D53*
X33000000Y52668326D03*
X48550000Y21385826D03*
X56550000Y16465826D03*
X55050000Y34165826D03*
D54*
X15500000Y21568326D03*
D53*
X36250000Y74418326D03*
D54*
X10000000Y24000000D03*
D53*
X59150000Y16465826D03*
X27500000Y43768326D03*
X25500000Y54868326D03*
D54*
X15500000Y20768326D03*
D53*
X73600000Y65868326D03*
X70000000Y49143326D03*
D54*
X14250000Y26368326D03*
D53*
X55050000Y25365826D03*
X34200000Y55848326D03*
X33250000Y74318326D03*
X73600000Y61268326D03*
X27525000Y49168326D03*
D54*
X13100000Y22268326D03*
D53*
X39250000Y74418326D03*
X59150000Y33665826D03*
X48550000Y29865826D03*
X42250000Y74418326D03*
X59150000Y25065826D03*
D54*
X14000000Y24750000D03*
X12750000Y24500000D03*
D53*
X2800000Y47268326D03*
D54*
X9750000Y22500000D03*
D53*
X14700000Y29868326D03*
X56550000Y33665826D03*
X56550000Y25065826D03*
X11460000Y47868326D03*
D54*
X11250000Y24500000D03*
D53*
X26500000Y41468326D03*
X55050000Y16885826D03*
X75600000Y65868326D03*
D54*
X15500000Y19968326D03*
X17200000Y17618326D03*
D53*
X48550000Y38465826D03*
D54*
%TO.N,/Power/SW*%
X15937500Y24918326D03*
X10900000Y20768326D03*
D53*
%TO.N,/NRST*%
X22500000Y42768326D03*
X28700000Y45368326D03*
X25000000Y42768326D03*
X29400000Y48368326D03*
%TO.N,/PA12*%
X27950000Y57652326D03*
X27948000Y59912326D03*
%TO.N,/PA11*%
X28964004Y59912326D03*
X28964002Y57626326D03*
%TD*%
D55*
%TO.N,Net-(U1-BOOT)*%
X16600000Y21693326D02*
X16600000Y23543326D01*
%TO.N,Net-(U1-FB)*%
X18550000Y20093326D02*
X18206674Y19750000D01*
X18206674Y19750000D02*
X16643326Y19750000D01*
X16643326Y19750000D02*
X16600000Y19793326D01*
D56*
%TO.N,+3.3V*%
X23000000Y38668326D02*
X4300000Y38668326D01*
X6100000Y40468326D02*
X4300000Y38668326D01*
D55*
X13400000Y44268326D02*
X6200000Y44268326D01*
X50310000Y15885826D02*
X50025000Y16170826D01*
X14100000Y44968326D02*
X13400000Y44268326D01*
D56*
X6100000Y44168326D02*
X6100000Y40468326D01*
X52100000Y77868326D02*
X21550000Y77868326D01*
X58500000Y63668326D02*
X58500000Y71468326D01*
D57*
X32100000Y48443021D02*
X32100000Y49668326D01*
X29134610Y50368326D02*
X31400000Y50368326D01*
X28042305Y48268326D02*
X26110500Y48268326D01*
D56*
X23700000Y46863826D02*
X23700000Y39368326D01*
D58*
X34920000Y55068326D02*
X34920000Y53888326D01*
D56*
X23700000Y39368326D02*
X23000000Y38668326D01*
X6778000Y65246326D02*
X4300000Y62768326D01*
D55*
X59750000Y58418326D02*
X75900000Y58418326D01*
D57*
X26110500Y48268326D02*
X26102500Y48276326D01*
D55*
X6200000Y44268326D02*
X6100000Y44168326D01*
D57*
X32408000Y53776326D02*
X29067305Y50435631D01*
D56*
X58500000Y71468326D02*
X52100000Y77868326D01*
D55*
X27515000Y46863826D02*
X27515000Y45263326D01*
D56*
X6100000Y48568326D02*
X6100000Y44168326D01*
D57*
X27515000Y51987936D02*
X27515000Y55188826D01*
D55*
X77200000Y49318326D02*
X77200000Y48468326D01*
X50900000Y15885826D02*
X50310000Y15885826D01*
X31515000Y45291326D02*
X31515000Y46863826D01*
D56*
X16100000Y66868326D02*
X14478000Y65246326D01*
X4300000Y62768326D02*
X4300000Y50368326D01*
D57*
X29067305Y50435631D02*
X27515000Y51987936D01*
D55*
X77200000Y48468326D02*
X77200000Y39218326D01*
D57*
X32408000Y53776326D02*
X34427500Y53776326D01*
D56*
X4300000Y50368326D02*
X6100000Y48568326D01*
D55*
X77200000Y57118326D02*
X77200000Y48468326D01*
D56*
X4300000Y37018326D02*
X4300000Y38668326D01*
D55*
X75900000Y58418326D02*
X77200000Y57118326D01*
X50037500Y33105826D02*
X50850000Y33105826D01*
X50025000Y24465826D02*
X50850000Y24465826D01*
X58500000Y59668326D02*
X59750000Y58418326D01*
D56*
X16100000Y75468326D02*
X16100000Y66868326D01*
X21550000Y77868326D02*
X18500000Y77868326D01*
D55*
X14100000Y45968326D02*
X14100000Y44968326D01*
X27080000Y55468326D02*
X27290000Y55258326D01*
D56*
X14478000Y65246326D02*
X6778000Y65246326D01*
D55*
X26500000Y55468326D02*
X27080000Y55468326D01*
X58500000Y63168326D02*
X58500000Y59668326D01*
D57*
X31515000Y46863826D02*
X31515000Y47858021D01*
D55*
X34242000Y44126326D02*
X45300000Y33068326D01*
X31580000Y44126326D02*
X34242000Y44126326D01*
D57*
X31515000Y47858021D02*
X32100000Y48443021D01*
D55*
X77200000Y39218326D02*
X76300000Y38318326D01*
X74600000Y49418326D02*
X77100000Y49418326D01*
D56*
X18500000Y77868326D02*
X16100000Y75468326D01*
D55*
X50025000Y33093326D02*
X50037500Y33105826D01*
D57*
X29134610Y50368326D02*
X29134610Y49360630D01*
X29067305Y50435631D02*
X29134610Y50368326D01*
D55*
X21550000Y76018326D02*
X21550000Y77868326D01*
D57*
X28042305Y48268326D02*
X29134610Y49360630D01*
D58*
X34920000Y53888326D02*
X34900000Y53868326D01*
D55*
X31565000Y44126326D02*
X31565000Y45226326D01*
X76300000Y38318326D02*
X74800000Y38318326D01*
X77100000Y49418326D02*
X77200000Y49318326D01*
X50025000Y16170826D02*
X50025000Y33093326D01*
D57*
X32100000Y49668326D02*
X31400000Y50368326D01*
D55*
%TO.N,/OSC_IN*%
X28765000Y39126326D02*
X29690000Y40051326D01*
X29515000Y41751326D02*
X29515000Y46863826D01*
D59*
X28665000Y39126326D02*
X26590000Y39126326D01*
D55*
X29690000Y40051326D02*
X29690000Y41576326D01*
X29690000Y41576326D02*
X29515000Y41751326D01*
D56*
%TO.N,+24V*%
X77300000Y17418326D02*
X73250000Y13368326D01*
D55*
X47530000Y28065826D02*
X47530000Y36665826D01*
D56*
X47600000Y13368326D02*
X30800000Y13368326D01*
D55*
X47525000Y28060826D02*
X47530000Y28065826D01*
X47540000Y19585826D02*
X47540000Y13428326D01*
X47560000Y36705826D02*
X49200000Y36705826D01*
X49200000Y19585826D02*
X47540000Y19585826D01*
D56*
X30800000Y13368326D02*
X29200000Y14968326D01*
D55*
X47530000Y36665826D02*
X47525000Y36670826D01*
D56*
X73250000Y13368326D02*
X47600000Y13368326D01*
D55*
X47540000Y13428326D02*
X47600000Y13368326D01*
D56*
X76350000Y25268326D02*
X77300000Y24318326D01*
X74600000Y25268326D02*
X76350000Y25268326D01*
D55*
X47525000Y19600826D02*
X47540000Y19585826D01*
X47525000Y36670826D02*
X47560000Y36705826D01*
X47525000Y19600826D02*
X47525000Y28060826D01*
X47530000Y28065826D02*
X49200000Y28065826D01*
D56*
X77300000Y24318326D02*
X77300000Y17418326D01*
X29200000Y14968326D02*
X24737500Y14968326D01*
%TO.N,/LED_OUT_R*%
X74600000Y27268326D02*
X72550000Y27268326D01*
X72550000Y27268326D02*
X65900000Y20618326D01*
%TO.N,/LED_OUT_G*%
X66352500Y29268326D02*
X74600000Y29268326D01*
%TO.N,/LED_OUT_B*%
X69850000Y34368326D02*
X65902500Y34368326D01*
X74600000Y31268326D02*
X72950000Y31268326D01*
X72950000Y31268326D02*
X69850000Y34368326D01*
D55*
%TO.N,Net-(D5-A)*%
X39282000Y73259826D02*
X39282000Y71134826D01*
%TO.N,Net-(Q1-C)*%
X50850000Y36665826D02*
X54085000Y36665826D01*
X54100000Y36805826D02*
X55465000Y38170826D01*
X50850000Y38465826D02*
X50850000Y36665826D01*
X55465000Y38170826D02*
X57925000Y38170826D01*
%TO.N,Net-(Q1-B)*%
X50825000Y34865826D02*
X53210000Y34865826D01*
%TO.N,/OSC_OUT*%
X30465000Y42726326D02*
X30015000Y43176326D01*
X30015000Y43176326D02*
X30015000Y46863826D01*
%TO.N,/BOOT0*%
X24363305Y49789326D02*
X21121000Y49789326D01*
X24825000Y50251021D02*
X24363305Y49789326D01*
X26102500Y50276326D02*
X24825000Y50276326D01*
X19600000Y48268326D02*
X18800000Y48268326D01*
X24825000Y50276326D02*
X24825000Y50251021D01*
X21121000Y49789326D02*
X19600000Y48268326D01*
%TO.N,/LED_R*%
X39604500Y46863826D02*
X33015000Y46863826D01*
X46600000Y17768326D02*
X46900000Y18068326D01*
X46900000Y18068326D02*
X46900000Y39568326D01*
X46900000Y39568326D02*
X39604500Y46863826D01*
X48282500Y17785826D02*
X48265000Y17768326D01*
X49225000Y17785826D02*
X49225000Y15910826D01*
X49225000Y17785826D02*
X48282500Y17785826D01*
%TO.N,/LED_G*%
X49200000Y24465826D02*
X49200000Y26240826D01*
X46200000Y26293326D02*
X46175000Y26268326D01*
X39200000Y46068326D02*
X46200000Y39068326D01*
X49175000Y26265826D02*
X48252500Y26265826D01*
X46200000Y39068326D02*
X46200000Y26293326D01*
X33004267Y48201325D02*
X32515000Y47712058D01*
X48252500Y26265826D02*
X48250000Y26268326D01*
X34500000Y46068326D02*
X39200000Y46068326D01*
X32515000Y47712058D02*
X32515000Y46863826D01*
%TO.N,/LED_B*%
X45400000Y38568326D02*
X38800000Y45168326D01*
X49200000Y33065826D02*
X49200000Y34840826D01*
X38800000Y45168326D02*
X32905236Y45168326D01*
X45400000Y34968326D02*
X45400000Y38568326D01*
X32015000Y46058562D02*
X32015000Y46863826D01*
X48255000Y34968326D02*
X49137500Y34968326D01*
X32905236Y45168326D02*
X32015000Y46058562D01*
%TO.N,/USART1_RX*%
X24900000Y58964245D02*
X25486919Y58377326D01*
X29441505Y58377326D02*
X30015000Y57803831D01*
X24900000Y60166326D02*
X24900000Y58964245D01*
X30015000Y57803831D02*
X30015000Y55188826D01*
X25486919Y58377326D02*
X29441505Y58377326D01*
%TO.N,/USART1_TX*%
X29627901Y58827326D02*
X30515000Y57940227D01*
X27066200Y60540126D02*
X27066200Y59167130D01*
X30515000Y57940227D02*
X30515000Y55188826D01*
X27406004Y58827326D02*
X29627901Y58827326D01*
X24900000Y62706326D02*
X27066200Y60540126D01*
X27066200Y59167130D02*
X27406004Y58827326D01*
%TO.N,Net-(Q3-C)*%
X50875000Y21385826D02*
X50875000Y19610826D01*
X50850000Y19585826D02*
X53925000Y19585826D01*
X55405000Y21065826D02*
X57670000Y21065826D01*
X54100000Y19760826D02*
X55405000Y21065826D01*
%TO.N,GND*%
X10360000Y47868326D02*
X11460000Y47868326D01*
X20175000Y18693326D02*
X19600000Y18118326D01*
X28015000Y55188826D02*
X28015000Y54186326D01*
D59*
X33065000Y39376326D02*
X31115000Y39376326D01*
D55*
X30620000Y45226326D02*
X31015000Y45621326D01*
X18600000Y45968326D02*
X18600000Y46868326D01*
X33000000Y52668326D02*
X33608000Y53276326D01*
X31015000Y45621326D02*
X31015000Y46863826D01*
X25540000Y54908326D02*
X25500000Y54868326D01*
X28015000Y54186326D02*
X28500000Y53701326D01*
X25540000Y55468326D02*
X25540000Y54908326D01*
X33583000Y53251326D02*
X33000000Y52668326D01*
D59*
X26465000Y40801326D02*
X28640000Y40801326D01*
D55*
X19600000Y18118326D02*
X17600000Y18118326D01*
X20175000Y20431465D02*
X20175000Y18693326D01*
X31015000Y48468326D02*
X31015000Y46863826D01*
X33608000Y53276326D02*
X34427500Y53276326D01*
X34200000Y55848326D02*
X34800000Y55848326D01*
X2800000Y46118326D02*
X2800000Y47268326D01*
D59*
X22700000Y46968326D02*
X22700000Y48348326D01*
X14700000Y29868326D02*
X13700000Y29868326D01*
D55*
X27133000Y48776326D02*
X26102500Y48776326D01*
X27525000Y49168326D02*
X27133000Y48776326D01*
X30620000Y44126326D02*
X30620000Y45226326D01*
%TO.N,Net-(D6-A)*%
X42282000Y73259826D02*
X42282000Y71134826D01*
%TO.N,Net-(D3-A)*%
X33282000Y73197326D02*
X33282000Y71134826D01*
%TO.N,Net-(D4-A)*%
X36282000Y73259826D02*
X36282000Y71134826D01*
%TO.N,/LED_STATUS1*%
X33282000Y69484826D02*
X33282000Y58031803D01*
X31515000Y56264803D02*
X31515000Y55188826D01*
X33282000Y58031803D02*
X31515000Y56264803D01*
%TO.N,/LED_STATUS2*%
X32015000Y56128407D02*
X32015000Y55188826D01*
X36282000Y69484826D02*
X36282000Y60395407D01*
X36282000Y60395407D02*
X32015000Y56128407D01*
%TO.N,/LED_STATUS3*%
X39282000Y62759011D02*
X32515000Y55992011D01*
X39282000Y69484826D02*
X39282000Y62759011D01*
X32515000Y55992011D02*
X32515000Y55188826D01*
%TO.N,/LED_STATUS4*%
X33015000Y55835326D02*
X33015000Y55188826D01*
X42282000Y69484826D02*
X42282000Y65102326D01*
X42282000Y65102326D02*
X33015000Y55835326D01*
D60*
%TO.N,Net-(J4-In)*%
X76400000Y63574326D02*
X73273500Y63574326D01*
X66500000Y64449326D02*
X66500000Y67968326D01*
X66500000Y63668326D02*
X76394000Y63568326D01*
D55*
%TO.N,Net-(D1-A)*%
X11362500Y29868326D02*
X9187500Y29868326D01*
%TO.N,Net-(Q3-B)*%
X50875000Y17785826D02*
X53050000Y17785826D01*
%TO.N,Net-(U2A-PB5-PB5)*%
X26102500Y51776326D02*
X24272000Y51776326D01*
X21407000Y52609326D02*
X20582000Y51784326D01*
X23439000Y52609326D02*
X21407000Y52609326D01*
X24272000Y51776326D02*
X23439000Y52609326D01*
%TO.N,Net-(U2A-PB4-PB4)*%
X19825000Y53059326D02*
X18550000Y51784326D01*
X26102500Y52276326D02*
X24408396Y52276326D01*
X24408396Y52276326D02*
X23625396Y53059326D01*
X23625396Y53059326D02*
X19825000Y53059326D01*
%TO.N,Net-(U1-FB)*%
X18600000Y21818326D02*
X18600000Y20043326D01*
X18600000Y21818326D02*
X20350000Y21818326D01*
%TO.N,/Power/VOUT*%
X20400000Y23418326D02*
X20400000Y26868326D01*
X20400000Y26868326D02*
X14600000Y32668326D01*
D56*
X5525000Y26268326D02*
X9725000Y26268326D01*
D55*
X14600000Y32668326D02*
X4300000Y32668326D01*
X4400000Y29868326D02*
X7400000Y29868326D01*
X4300000Y29768326D02*
X4400000Y29868326D01*
D56*
X4300000Y35618326D02*
X4300000Y27243326D01*
D55*
X18600000Y23468326D02*
X20350000Y23468326D01*
D56*
X4300000Y27243326D02*
X5225000Y26318326D01*
%TO.N,Net-(D2-A)*%
X18150000Y14968326D02*
X20462500Y14968326D01*
D55*
%TO.N,/MISO*%
X52592000Y49776326D02*
X54500000Y47868326D01*
X54500000Y47868326D02*
X54500000Y45468326D01*
X34427500Y49776326D02*
X52592000Y49776326D01*
%TO.N,/RF_CS*%
X34427500Y50776326D02*
X57592000Y50776326D01*
X57592000Y50776326D02*
X60500000Y47868326D01*
X60500000Y47868326D02*
X60500000Y45468326D01*
%TO.N,/MOSI*%
X56500000Y47868326D02*
X56500000Y45468326D01*
X54092000Y50276326D02*
X56500000Y47868326D01*
X34427500Y50276326D02*
X54092000Y50276326D01*
%TO.N,/SCK*%
X34427500Y49276326D02*
X44992000Y49276326D01*
X57800000Y42968326D02*
X58500000Y43668326D01*
X44992000Y49276326D02*
X51300000Y42968326D01*
X51300000Y42968326D02*
X57800000Y42968326D01*
X58500000Y43668326D02*
X58500000Y45468326D01*
D59*
%TO.N,/Power/SW*%
X16562500Y24918326D02*
X15937500Y24918326D01*
D55*
%TO.N,Net-(U2A-PB6-PB6)*%
X26102500Y51276326D02*
X23122000Y51276326D01*
X23122000Y51276326D02*
X22614000Y51784326D01*
%TO.N,/NRST*%
X29815764Y48368326D02*
X30515000Y47669090D01*
X28700000Y43368326D02*
X28700000Y45368326D01*
X30515000Y47669090D02*
X30515000Y46863826D01*
X14900000Y48268326D02*
X13400000Y48268326D01*
X9400000Y47868326D02*
X9400000Y46118326D01*
X21700000Y41968326D02*
X18200000Y41968326D01*
X16900000Y43268326D02*
X16800000Y43268326D01*
X11250000Y46118326D02*
X9400000Y46118326D01*
X16000000Y47168326D02*
X14900000Y48268326D01*
X6200000Y53108326D02*
X6200000Y51068326D01*
X8200000Y55108326D02*
X6200000Y53108326D01*
X16000000Y44068326D02*
X16000000Y47168326D01*
X29400000Y48368326D02*
X29815764Y48368326D01*
X18200000Y41968326D02*
X16900000Y43268326D01*
X13400000Y48268326D02*
X11250000Y46118326D01*
X16800000Y43268326D02*
X16000000Y44068326D01*
X6200000Y51068326D02*
X9400000Y47868326D01*
X25000000Y42768326D02*
X28100000Y42768326D01*
X22500000Y42768326D02*
X21700000Y41968326D01*
X28100000Y42768326D02*
X28700000Y43368326D01*
%TO.N,/PIR_2*%
X45124695Y54218326D02*
X42682695Y51776326D01*
X70000000Y44018326D02*
X70000000Y46968326D01*
X62750000Y54218326D02*
X45124695Y54218326D01*
X70000000Y46968326D02*
X62750000Y54218326D01*
X42682695Y51776326D02*
X34427500Y51776326D01*
%TO.N,/PIR_1*%
X44750000Y55118326D02*
X70000000Y55118326D01*
X41908000Y52276326D02*
X44750000Y55118326D01*
X34427500Y52276326D02*
X41908000Y52276326D01*
%TO.N,/SWCLK*%
X6250000Y60778326D02*
X8200000Y62728326D01*
X25365001Y53776326D02*
X22773001Y56368326D01*
X6250000Y57468326D02*
X6250000Y60778326D01*
X26102500Y53776326D02*
X25365001Y53776326D01*
X22773001Y56368326D02*
X7350000Y56368326D01*
X7350000Y56368326D02*
X6250000Y57468326D01*
%TO.N,/SWDIO*%
X22920000Y57648326D02*
X23199000Y57927326D01*
X23199000Y57927326D02*
X25791000Y57927326D01*
X28250000Y56518326D02*
X28515000Y56253326D01*
X8200000Y57648326D02*
X22920000Y57648326D01*
X28515000Y56253326D02*
X28515000Y55188826D01*
X27200000Y56518326D02*
X28250000Y56518326D01*
X25791000Y57927326D02*
X27200000Y56518326D01*
%TO.N,/SWO*%
X26102500Y52776326D02*
X24544792Y52776326D01*
X23811792Y53509326D02*
X15228000Y53509326D01*
X14293500Y52574826D02*
X14287000Y52568326D01*
X15228000Y53509326D02*
X14293500Y52574826D01*
X14287000Y52568326D02*
X8200000Y52568326D01*
X24544792Y52776326D02*
X23811792Y53509326D01*
%TO.N,/PA12*%
X29015000Y56503326D02*
X27950000Y57568326D01*
X29015000Y55188826D02*
X29015000Y56503326D01*
X27948000Y62238726D02*
X27948000Y59912326D01*
X30970600Y65261326D02*
X27948000Y62238726D01*
X27950000Y57568326D02*
X27950000Y57652326D01*
%TO.N,/PA11*%
X31250000Y67868326D02*
X32350000Y66768326D01*
X29515000Y57075328D02*
X28964002Y57626326D01*
X32350000Y64100726D02*
X30970600Y62721326D01*
X29515000Y55188826D02*
X29515000Y57075328D01*
X29900000Y76018326D02*
X31250000Y74668326D01*
X30970600Y62721326D02*
X28964004Y60714730D01*
X31250000Y74668326D02*
X31250000Y67868326D01*
X28964004Y60714730D02*
X28964004Y59912326D01*
X32350000Y66768326D02*
X32350000Y64100726D01*
X28150000Y76018326D02*
X29900000Y76018326D01*
%TO.N,/PA8*%
X31015000Y60136926D02*
X31015000Y55188826D01*
%TO.N,Net-(Q2-B)*%
X50825000Y26265826D02*
X53210000Y26265826D01*
%TO.N,Net-(Q2-C)*%
X54100000Y28180826D02*
X55490000Y29570826D01*
X50850000Y28065826D02*
X54085000Y28065826D01*
X50850000Y29865826D02*
X50850000Y28065826D01*
X55490000Y29570826D02*
X57925000Y29570826D01*
%TO.N,Net-(SW2-B)*%
X17100000Y45968326D02*
X17100000Y48018326D01*
%TO.N,/RF_RST*%
X34427500Y51276326D02*
X59092000Y51276326D01*
X59092000Y51276326D02*
X62500000Y47868326D01*
X62500000Y47868326D02*
X62500000Y45468326D01*
%TO.N,/PIR_1_IN*%
X70000000Y53468326D02*
X70000000Y51468326D01*
X70000000Y51468326D02*
X74500000Y51468326D01*
%TO.N,/PIR_2_IN*%
X70000000Y42368326D02*
X70000000Y40268326D01*
X70000000Y40268326D02*
X74475000Y40268326D01*
%TO.N,/RF_INT*%
X41108000Y52776326D02*
X44250000Y55918326D01*
X56500000Y59568326D02*
X56500000Y61368326D01*
X52850000Y55918326D02*
X56500000Y59568326D01*
X44250000Y55918326D02*
X52850000Y55918326D01*
X34427500Y52776326D02*
X41108000Y52776326D01*
D59*
%TO.N,Net-(C13-Pad1)*%
X30865000Y40826326D02*
X32965000Y40826326D01*
X33065000Y41776326D02*
X32115000Y42726326D01*
X33065000Y40926326D02*
X33065000Y41776326D01*
%TD*%
%TA.AperFunction,Conductor*%
%TO.N,+3.3V*%
G36*
X24643039Y49048641D02*
G01*
X24688794Y48995837D01*
X24700000Y48944326D01*
X24700000Y48368326D01*
X27048638Y48368326D01*
X27115677Y48348641D01*
X27136319Y48332007D01*
X27563681Y47904645D01*
X27597166Y47843322D01*
X27600000Y47816964D01*
X27600000Y46292326D01*
X27580315Y46225287D01*
X27527511Y46179532D01*
X27476000Y46168326D01*
X26624000Y46168326D01*
X26556961Y46188011D01*
X26511206Y46240815D01*
X26500000Y46292326D01*
X26500000Y46668326D01*
X23374500Y46668326D01*
X23307461Y46688011D01*
X23261706Y46740815D01*
X23250500Y46792326D01*
X23250499Y47169066D01*
X23236018Y47260497D01*
X23236017Y47260499D01*
X23236017Y47260501D01*
X23214015Y47303683D01*
X23200500Y47359977D01*
X23200500Y47668519D01*
X23220185Y47735558D01*
X23250190Y47767787D01*
X23264687Y47778639D01*
X23346628Y47888100D01*
X23394412Y48016212D01*
X23396687Y48037382D01*
X23400499Y48072825D01*
X23400499Y48072832D01*
X23400500Y48072841D01*
X23400499Y48663810D01*
X23400498Y48663814D01*
X23400321Y48667130D01*
X23400426Y48667136D01*
X23400000Y48675100D01*
X23400000Y48944326D01*
X23419685Y49011365D01*
X23472489Y49057120D01*
X23524000Y49068326D01*
X24576000Y49068326D01*
X24643039Y49048641D01*
G37*
%TD.AperFunction*%
%TD*%
%TA.AperFunction,Conductor*%
%TO.N,/Power/V_IN*%
G36*
X13886371Y20190855D02*
G01*
X13899328Y20185161D01*
X13903285Y20183144D01*
X13903286Y20183144D01*
X13903288Y20183143D01*
X13940432Y20177261D01*
X13999997Y20167826D01*
X14676000Y20167827D01*
X14743039Y20148143D01*
X14788794Y20095339D01*
X14800000Y20043827D01*
X14800000Y13492326D01*
X14780315Y13425287D01*
X14727511Y13379532D01*
X14676000Y13368326D01*
X8224000Y13368326D01*
X8156961Y13388011D01*
X8111206Y13440815D01*
X8100000Y13492326D01*
X8100000Y19088826D01*
X8119685Y19155865D01*
X8172489Y19201620D01*
X8224000Y19212826D01*
X12648639Y19212826D01*
X12650075Y19212904D01*
X12675952Y19214290D01*
X12702310Y19217124D01*
X12797444Y19246913D01*
X12858767Y19280398D01*
X12916985Y19323979D01*
X13755359Y20162356D01*
X13816680Y20195839D01*
X13886371Y20190855D01*
G37*
%TD.AperFunction*%
%TD*%
%TA.AperFunction,Conductor*%
%TO.N,/Power/SW*%
G36*
X13315677Y21448641D02*
G01*
X13336319Y21432007D01*
X13800000Y20968326D01*
X13976000Y20968326D01*
X14043039Y20948641D01*
X14088794Y20895837D01*
X14100000Y20844326D01*
X14100000Y20692326D01*
X14080315Y20625287D01*
X14027511Y20579532D01*
X13976000Y20568326D01*
X13799999Y20568326D01*
X12736319Y19504645D01*
X12674996Y19471160D01*
X12648638Y19468326D01*
X6924000Y19468326D01*
X6856961Y19488011D01*
X6811206Y19540815D01*
X6800000Y19592326D01*
X6800000Y21344326D01*
X6819685Y21411365D01*
X6872489Y21457120D01*
X6924000Y21468326D01*
X13248638Y21468326D01*
X13315677Y21448641D01*
G37*
%TD.AperFunction*%
%TD*%
%TA.AperFunction,Conductor*%
%TO.N,GND*%
G36*
X15843039Y27048641D02*
G01*
X15888794Y26995837D01*
X15900000Y26944326D01*
X15900000Y25521771D01*
X15880315Y25454732D01*
X15827511Y25408977D01*
X15810936Y25402794D01*
X15803648Y25400654D01*
X15800807Y25399857D01*
X15744317Y25384720D01*
X15738109Y25382149D01*
X15728485Y25378754D01*
X15727449Y25378281D01*
X15679415Y25347412D01*
X15674380Y25344343D01*
X15630189Y25318829D01*
X15625766Y25315434D01*
X15610445Y25303088D01*
X15606377Y25300474D01*
X15606368Y25300466D01*
X15573855Y25262943D01*
X15567824Y25256466D01*
X15536998Y25225640D01*
X15533864Y25220211D01*
X15520201Y25201023D01*
X15512123Y25191700D01*
X15512123Y25191699D01*
X15494588Y25153307D01*
X15489187Y25142831D01*
X15471107Y25111513D01*
X15471106Y25111510D01*
X15467546Y25098223D01*
X15460569Y25078815D01*
X15452335Y25060785D01*
X15447386Y25026370D01*
X15444425Y25011932D01*
X15437000Y24984221D01*
X15437000Y24962995D01*
X15435738Y24945349D01*
X15431853Y24918327D01*
X15435738Y24891306D01*
X15437000Y24873659D01*
X15437000Y24852432D01*
X15444423Y24824730D01*
X15447385Y24810289D01*
X15452335Y24775870D01*
X15452337Y24775862D01*
X15460569Y24757837D01*
X15467550Y24738419D01*
X15471107Y24725143D01*
X15471110Y24725136D01*
X15489181Y24693835D01*
X15494586Y24683352D01*
X15512123Y24644953D01*
X15520194Y24635639D01*
X15533868Y24616436D01*
X15536997Y24611016D01*
X15537001Y24611011D01*
X15567822Y24580190D01*
X15573854Y24573711D01*
X15606370Y24536185D01*
X15606374Y24536181D01*
X15610428Y24533576D01*
X15625711Y24521260D01*
X15630184Y24517828D01*
X15630186Y24517826D01*
X15674387Y24492307D01*
X15679371Y24489270D01*
X15727447Y24458373D01*
X15727450Y24458372D01*
X15727452Y24458371D01*
X15728494Y24457895D01*
X15738121Y24454499D01*
X15744311Y24451936D01*
X15744314Y24451934D01*
X15800761Y24436810D01*
X15803583Y24436019D01*
X15810928Y24433862D01*
X15869707Y24396093D01*
X15898737Y24332539D01*
X15900000Y24314883D01*
X15900000Y23794859D01*
X15892182Y23751525D01*
X15880587Y23720441D01*
X15874500Y23663828D01*
X15874500Y23122845D01*
X15874501Y23122836D01*
X15880587Y23066214D01*
X15880588Y23066212D01*
X15892181Y23035128D01*
X15900000Y22991796D01*
X15900000Y22142738D01*
X15886485Y22086444D01*
X15834816Y21985039D01*
X15819500Y21888330D01*
X15819500Y21498319D01*
X15834817Y21401613D01*
X15834819Y21401607D01*
X15886484Y21300210D01*
X15900000Y21243915D01*
X15900000Y21192738D01*
X15886485Y21136444D01*
X15834816Y21035039D01*
X15819500Y20938330D01*
X15819500Y20548319D01*
X15834817Y20451613D01*
X15834817Y20451612D01*
X15861072Y20400084D01*
X15894211Y20335045D01*
X15894212Y20335044D01*
X15898642Y20326350D01*
X15895589Y20324795D01*
X15913211Y20275396D01*
X15898130Y20210564D01*
X15898642Y20210303D01*
X15897588Y20208236D01*
X15897381Y20207343D01*
X15896188Y20205488D01*
X15834816Y20085038D01*
X15819500Y19988330D01*
X15819500Y19598319D01*
X15834817Y19501613D01*
X15834817Y19501612D01*
X15834818Y19501611D01*
X15894211Y19385045D01*
X15894213Y19385043D01*
X15894215Y19385040D01*
X15986713Y19292542D01*
X15986716Y19292540D01*
X15986719Y19292537D01*
X16103285Y19233144D01*
X16103286Y19233144D01*
X16103288Y19233143D01*
X16103287Y19233143D01*
X16146618Y19226281D01*
X16199997Y19217826D01*
X17000002Y19217827D01*
X17000007Y19217827D01*
X17000007Y19217828D01*
X17096715Y19233144D01*
X17213281Y19292537D01*
X17258924Y19338180D01*
X17320247Y19371666D01*
X17346606Y19374500D01*
X17576000Y19374500D01*
X17643039Y19354815D01*
X17688794Y19302011D01*
X17700000Y19250500D01*
X17700000Y17092326D01*
X17680315Y17025287D01*
X17627511Y16979532D01*
X17576000Y16968326D01*
X15179500Y16968326D01*
X15112461Y16988011D01*
X15066706Y17040815D01*
X15055500Y17092326D01*
X15055500Y19283394D01*
X15075185Y19350433D01*
X15091821Y19371077D01*
X15105785Y19385041D01*
X15105789Y19385045D01*
X15165182Y19501611D01*
X15180500Y19598323D01*
X15180499Y19988328D01*
X15180499Y19988330D01*
X15180499Y19988334D01*
X15165182Y20085040D01*
X15165182Y20085041D01*
X15144567Y20125500D01*
X15105789Y20201607D01*
X15105787Y20201609D01*
X15101358Y20210302D01*
X15104415Y20211860D01*
X15086790Y20261209D01*
X15101857Y20326095D01*
X15101358Y20326349D01*
X15102385Y20328366D01*
X15102595Y20329268D01*
X15103803Y20331149D01*
X15105787Y20335044D01*
X15105789Y20335045D01*
X15165182Y20451611D01*
X15180500Y20548323D01*
X15180499Y20938328D01*
X15180499Y20938330D01*
X15180499Y20938334D01*
X15165182Y21035040D01*
X15165182Y21035041D01*
X15105789Y21151607D01*
X15105785Y21151611D01*
X15105784Y21151613D01*
X15013286Y21244111D01*
X15013282Y21244114D01*
X15013281Y21244115D01*
X14896715Y21303508D01*
X14896714Y21303509D01*
X14896711Y21303510D01*
X14896712Y21303510D01*
X14800003Y21318826D01*
X13999998Y21318826D01*
X13899098Y21302845D01*
X13829804Y21311801D01*
X13792020Y21337638D01*
X13516998Y21612660D01*
X13516985Y21612673D01*
X13496635Y21630952D01*
X13496629Y21630957D01*
X13496620Y21630965D01*
X13475999Y21647582D01*
X13475996Y21647584D01*
X13475993Y21647586D01*
X13387662Y21693791D01*
X13387659Y21693792D01*
X13320624Y21713476D01*
X13320616Y21713478D01*
X13248639Y21723826D01*
X13248638Y21723826D01*
X9524000Y21723826D01*
X9456961Y21743511D01*
X9411206Y21796315D01*
X9400000Y21847826D01*
X9400000Y24844326D01*
X9419685Y24911365D01*
X9472489Y24957120D01*
X9524000Y24968326D01*
X11641192Y24968326D01*
X11641193Y24968326D01*
X11676038Y26946511D01*
X11696900Y27013192D01*
X11750502Y27058010D01*
X11800019Y27068326D01*
X15776000Y27068326D01*
X15843039Y27048641D01*
G37*
%TD.AperFunction*%
%TD*%
M02*
