%TF.GenerationSoftware,KiCad,Pcbnew,8.0.4*%
%TF.CreationDate,2024-08-31T15:47:31-07:00*%
%TF.ProjectId,aunisoma-panel-controller,61756e69-736f-46d6-912d-70616e656c2d,rev?*%
%TF.SameCoordinates,Original*%
%TF.FileFunction,Copper,L2,Bot*%
%TF.FilePolarity,Positive*%
%FSLAX46Y46*%
G04 Gerber Fmt 4.6, Leading zero omitted, Abs format (unit mm)*
G04 Created by KiCad (PCBNEW 8.0.4) date 2024-08-31 15:47:31*
%MOMM*%
%LPD*%
G01*
G04 APERTURE LIST*
G04 Aperture macros list*
%AMRoundRect*
0 Rectangle with rounded corners*
0 $1 Rounding radius*
0 $2 $3 $4 $5 $6 $7 $8 $9 X,Y pos of 4 corners*
0 Add a 4 corners polygon primitive as box body*
4,1,4,$2,$3,$4,$5,$6,$7,$8,$9,$2,$3,0*
0 Add four circle primitives for the rounded corners*
1,1,$1+$1,$2,$3*
1,1,$1+$1,$4,$5*
1,1,$1+$1,$6,$7*
1,1,$1+$1,$8,$9*
0 Add four rect primitives between the rounded corners*
20,1,$1+$1,$2,$3,$4,$5,0*
20,1,$1+$1,$4,$5,$6,$7,0*
20,1,$1+$1,$6,$7,$8,$9,0*
20,1,$1+$1,$8,$9,$2,$3,0*%
G04 Aperture macros list end*
%TA.AperFunction,ComponentPad*%
%ADD10C,0.800000*%
%TD*%
%TA.AperFunction,ComponentPad*%
%ADD11C,6.400000*%
%TD*%
%TA.AperFunction,ComponentPad*%
%ADD12C,2.000000*%
%TD*%
%TA.AperFunction,ComponentPad*%
%ADD13RoundRect,0.250000X-0.625000X0.350000X-0.625000X-0.350000X0.625000X-0.350000X0.625000X0.350000X0*%
%TD*%
%TA.AperFunction,ComponentPad*%
%ADD14O,1.750000X1.200000*%
%TD*%
%TA.AperFunction,ComponentPad*%
%ADD15R,1.700000X1.700000*%
%TD*%
%TA.AperFunction,ComponentPad*%
%ADD16O,1.700000X1.700000*%
%TD*%
%TA.AperFunction,ComponentPad*%
%ADD17C,1.600000*%
%TD*%
%TA.AperFunction,ViaPad*%
%ADD18C,0.800000*%
%TD*%
%TA.AperFunction,ViaPad*%
%ADD19C,0.500000*%
%TD*%
%TA.AperFunction,Conductor*%
%ADD20C,0.250000*%
%TD*%
G04 APERTURE END LIST*
D10*
%TO.P,H2,1,1*%
%TO.N,GND*%
X2100000Y4801326D03*
X2802944Y6498382D03*
X2802944Y3104270D03*
X4500000Y7201326D03*
D11*
X4500000Y4801326D03*
D10*
X4500000Y2401326D03*
X6197056Y6498382D03*
X6197056Y3104270D03*
X6900000Y4801326D03*
%TD*%
D12*
%TO.P,X1,1,1*%
%TO.N,Net-(J4-In)*%
X66500000Y67968326D03*
%TD*%
D13*
%TO.P,J7,1,Pin_1*%
%TO.N,/LED_OUT_B*%
X74600000Y31268326D03*
D14*
%TO.P,J7,2,Pin_2*%
%TO.N,/LED_OUT_G*%
X74600000Y29268326D03*
%TO.P,J7,3,Pin_3*%
%TO.N,/LED_OUT_R*%
X74600000Y27268326D03*
%TO.P,J7,4,Pin_4*%
%TO.N,+24V*%
X74600000Y25268326D03*
%TO.P,J7,5,Pin_5*%
%TO.N,GND*%
X74600000Y23268326D03*
%TD*%
D15*
%TO.P,J3,1,Pin_1*%
%TO.N,/PA8*%
X30970600Y60181326D03*
D16*
%TO.P,J3,2,Pin_2*%
%TO.N,/PA11*%
X30970600Y62721326D03*
%TO.P,J3,3,Pin_3*%
%TO.N,/PA12*%
X30970600Y65261326D03*
%TD*%
D15*
%TO.P,J2,1,Pin_1*%
%TO.N,GND*%
X24900000Y65246326D03*
D16*
%TO.P,J2,2,Pin_2*%
%TO.N,/USART1_TX*%
X24900000Y62706326D03*
%TO.P,J2,3,Pin_3*%
%TO.N,/USART1_RX*%
X24900000Y60166326D03*
%TD*%
D13*
%TO.P,J5,1,Pin_1*%
%TO.N,GND*%
X74600000Y53468326D03*
D14*
%TO.P,J5,2,Pin_2*%
%TO.N,/PIR_1_IN*%
X74600000Y51468326D03*
%TO.P,J5,3,Pin_3*%
%TO.N,+3.3V*%
X74600000Y49468326D03*
%TD*%
D15*
%TO.P,J1,1,Pin_1*%
%TO.N,+3.3V*%
X8200000Y65268326D03*
D16*
%TO.P,J1,2,Pin_2*%
%TO.N,/SWCLK*%
X8200000Y62728326D03*
%TO.P,J1,3,Pin_3*%
%TO.N,GND*%
X8200000Y60188326D03*
%TO.P,J1,4,Pin_4*%
%TO.N,/SWDIO*%
X8200000Y57648326D03*
%TO.P,J1,5,Pin_5*%
%TO.N,/NRST*%
X8200000Y55108326D03*
%TO.P,J1,6,Pin_6*%
%TO.N,/SWO*%
X8200000Y52568326D03*
%TD*%
D10*
%TO.P,H3,1,1*%
%TO.N,GND*%
X72100000Y74801326D03*
X72802944Y76498382D03*
X72802944Y73104270D03*
X74500000Y77201326D03*
D11*
X74500000Y74801326D03*
D10*
X74500000Y72401326D03*
X76197056Y76498382D03*
X76197056Y73104270D03*
X76900000Y74801326D03*
%TD*%
%TO.P,H4,1,1*%
%TO.N,GND*%
X72100000Y4801326D03*
X72802944Y6498382D03*
X72802944Y3104270D03*
X74500000Y7201326D03*
D11*
X74500000Y4801326D03*
D10*
X74500000Y2401326D03*
X76197056Y6498382D03*
X76197056Y3104270D03*
X76900000Y4801326D03*
%TD*%
D17*
%TO.P,U3,1,GND*%
%TO.N,GND*%
X52500000Y47768326D03*
%TO.P,U3,2,MISO*%
%TO.N,/MISO*%
X54500000Y47768326D03*
%TO.P,U3,3,MOSI*%
%TO.N,/MOSI*%
X56500000Y47768326D03*
%TO.P,U3,4,SCK*%
%TO.N,/SCK*%
X58500000Y47768326D03*
%TO.P,U3,5,NSS*%
%TO.N,/RF_CS*%
X60500000Y47768326D03*
%TO.P,U3,6,RESET*%
%TO.N,/RF_RST*%
X62500000Y47768326D03*
%TO.P,U3,7,DIO5*%
%TO.N,unconnected-(U3-DIO5-Pad7)_1*%
X64500000Y47768326D03*
%TO.P,U3,8,GND*%
%TO.N,GND*%
X66500000Y47768326D03*
%TO.P,U3,9,ANT*%
%TO.N,Net-(J4-In)*%
X66500000Y61368326D03*
%TO.P,U3,10,GND*%
%TO.N,GND*%
X64500000Y61368326D03*
%TO.P,U3,11,DIO3*%
%TO.N,unconnected-(U3-DIO3-Pad11)_1*%
X62500000Y61368326D03*
%TO.P,U3,12,DIO4*%
%TO.N,unconnected-(U3-DIO4-Pad12)*%
X60500000Y61368326D03*
%TO.P,U3,13,3.3V*%
%TO.N,+3.3V*%
X58500000Y61368326D03*
%TO.P,U3,14,DIO0*%
%TO.N,/RF_INT*%
X56500000Y61368326D03*
%TO.P,U3,15,DIO1*%
%TO.N,unconnected-(U3-DIO1-Pad15)_1*%
X54500000Y61368326D03*
%TO.P,U3,16,DIO2*%
%TO.N,unconnected-(U3-DIO2-Pad16)*%
X52500000Y61368326D03*
%TD*%
D13*
%TO.P,J6,1,Pin_1*%
%TO.N,GND*%
X74600000Y42368326D03*
D14*
%TO.P,J6,2,Pin_2*%
%TO.N,/PIR_2_IN*%
X74600000Y40368326D03*
%TO.P,J6,3,Pin_3*%
%TO.N,+3.3V*%
X74600000Y38368326D03*
%TD*%
D10*
%TO.P,H1,1,1*%
%TO.N,GND*%
X2100000Y74801326D03*
X2802944Y76498382D03*
X2802944Y73104270D03*
X4500000Y77201326D03*
D11*
X4500000Y74801326D03*
D10*
X4500000Y72401326D03*
X6197056Y76498382D03*
X6197056Y73104270D03*
X6900000Y74801326D03*
%TD*%
D18*
%TO.N,+3.3V*%
X45400000Y33068326D03*
X51500000Y33068326D03*
%TO.N,/LED_R*%
X48265000Y17768326D03*
X46600000Y17768326D03*
%TO.N,/LED_G*%
X46175000Y26268326D03*
X48250000Y26268326D03*
X34500000Y46068326D03*
X33004267Y48201325D03*
%TO.N,/LED_B*%
X48255000Y34968326D03*
X45400000Y34968326D03*
%TO.N,GND*%
X70000000Y37943326D03*
D19*
X17200000Y18568326D03*
D18*
X22175000Y47668326D03*
X31015000Y48468326D03*
X75600000Y61268326D03*
X18600000Y46868326D03*
D19*
X12100000Y22268326D03*
D18*
X28500000Y53701326D03*
X33100000Y38768326D03*
X60250000Y66250000D03*
D19*
X15500000Y26368326D03*
D18*
X33000000Y52668326D03*
X48550000Y21385826D03*
X56550000Y16465826D03*
X55050000Y34165826D03*
D19*
X15500000Y21568326D03*
D18*
X36250000Y74418326D03*
D19*
X10000000Y24000000D03*
D18*
X59150000Y16465826D03*
X27500000Y43768326D03*
X25500000Y54868326D03*
D19*
X15500000Y20768326D03*
D18*
X73600000Y65868326D03*
X70000000Y49143326D03*
D19*
X14250000Y26368326D03*
D18*
X55050000Y25365826D03*
X34200000Y55848326D03*
X33250000Y74318326D03*
X73600000Y61268326D03*
X27525000Y49168326D03*
D19*
X13100000Y22268326D03*
D18*
X39250000Y74418326D03*
X59150000Y33665826D03*
X48550000Y29865826D03*
X42250000Y74418326D03*
X59150000Y25065826D03*
D19*
X14000000Y24750000D03*
X12750000Y24500000D03*
D18*
X2800000Y47268326D03*
D19*
X9750000Y22500000D03*
D18*
X14700000Y29868326D03*
X56550000Y33665826D03*
X56550000Y25065826D03*
X11460000Y47868326D03*
D19*
X11250000Y24500000D03*
D18*
X26500000Y41468326D03*
X55050000Y16885826D03*
X75600000Y65868326D03*
D19*
X15500000Y19968326D03*
X17200000Y17618326D03*
D18*
X48550000Y38465826D03*
D19*
%TO.N,/Power/SW*%
X15937500Y24918326D03*
X10900000Y20768326D03*
D18*
%TO.N,/NRST*%
X22500000Y42768326D03*
X28700000Y45368326D03*
X25000000Y42768326D03*
X29400000Y48368326D03*
%TO.N,/PA12*%
X27950000Y57652326D03*
X27948000Y59912326D03*
%TO.N,/PA11*%
X28964004Y59912326D03*
X28964002Y57626326D03*
%TD*%
D20*
%TO.N,+3.3V*%
X45400000Y33068326D02*
X51600000Y33068326D01*
%TO.N,/LED_R*%
X48265000Y17768326D02*
X46600000Y17768326D01*
%TO.N,/LED_G*%
X33267001Y48201325D02*
X33004267Y48201325D01*
X34500000Y46968326D02*
X33267001Y48201325D01*
X34500000Y46068326D02*
X34500000Y46968326D01*
X48250000Y26268326D02*
X46175000Y26268326D01*
%TO.N,/LED_B*%
X45400000Y34968326D02*
X48255000Y34968326D01*
%TO.N,GND*%
X54032600Y15067826D02*
X54058000Y15093226D01*
X53600800Y15067826D02*
X54032600Y15067826D01*
%TO.N,/Power/SW*%
X15937500Y24918326D02*
X14412500Y23393326D01*
X11125000Y23393326D02*
X10900000Y23168326D01*
X10900000Y23168326D02*
X10900000Y20768326D01*
X14412500Y23393326D02*
X11125000Y23393326D01*
%TO.N,/NRST*%
X29400000Y48368326D02*
X28700000Y47668326D01*
X22500000Y42768326D02*
X25000000Y42768326D01*
X28700000Y47668326D02*
X28700000Y45368326D01*
%TO.N,/PA12*%
X27950000Y57652326D02*
X27950000Y59910326D01*
X27950000Y59910326D02*
X27948000Y59912326D01*
%TO.N,/PA11*%
X28964004Y57626328D02*
X28964002Y57626326D01*
X28964004Y59912326D02*
X28964004Y57626328D01*
%TD*%
%TA.AperFunction,Conductor*%
%TO.N,GND*%
G36*
X79276166Y79297512D02*
G01*
X79343178Y79277738D01*
X79388863Y79224874D01*
X79400000Y79173512D01*
X79400000Y229141D01*
X79380315Y162102D01*
X79327511Y116347D01*
X79276164Y105141D01*
X124164Y165D01*
X57099Y19761D01*
X11274Y72504D01*
X0Y124165D01*
X0Y4801327D01*
X794922Y4801327D01*
X794922Y4801326D01*
X815219Y4414039D01*
X875886Y4031003D01*
X875887Y4030996D01*
X976262Y3656390D01*
X1115244Y3294332D01*
X1291310Y2948783D01*
X1502531Y2623533D01*
X1711095Y2365976D01*
X1711096Y2365976D01*
X3205748Y3860628D01*
X3279588Y3758996D01*
X3457670Y3580914D01*
X3559300Y3507075D01*
X2064648Y2012423D01*
X2064649Y2012422D01*
X2322206Y1803858D01*
X2647456Y1592637D01*
X2993005Y1416571D01*
X3355063Y1277589D01*
X3729669Y1177214D01*
X3729676Y1177213D01*
X4112712Y1116546D01*
X4499999Y1096248D01*
X4500001Y1096248D01*
X4887287Y1116546D01*
X5270323Y1177213D01*
X5270330Y1177214D01*
X5644936Y1277589D01*
X6006994Y1416571D01*
X6352543Y1592637D01*
X6677783Y1803850D01*
X6677785Y1803851D01*
X6935349Y2012424D01*
X5440698Y3507075D01*
X5542330Y3580914D01*
X5720412Y3758996D01*
X5794251Y3860628D01*
X7288902Y2365977D01*
X7497475Y2623541D01*
X7497476Y2623543D01*
X7708689Y2948783D01*
X7884755Y3294332D01*
X8023737Y3656390D01*
X8124112Y4030996D01*
X8124113Y4031003D01*
X8184780Y4414039D01*
X8205078Y4801326D01*
X8205078Y4801327D01*
X70794922Y4801327D01*
X70794922Y4801326D01*
X70815219Y4414039D01*
X70875886Y4031003D01*
X70875887Y4030996D01*
X70976262Y3656390D01*
X71115244Y3294332D01*
X71291310Y2948783D01*
X71502531Y2623533D01*
X71711095Y2365976D01*
X71711096Y2365976D01*
X73205748Y3860628D01*
X73279588Y3758996D01*
X73457670Y3580914D01*
X73559300Y3507075D01*
X72064648Y2012423D01*
X72064649Y2012422D01*
X72322206Y1803858D01*
X72647456Y1592637D01*
X72993005Y1416571D01*
X73355063Y1277589D01*
X73729669Y1177214D01*
X73729676Y1177213D01*
X74112712Y1116546D01*
X74499999Y1096248D01*
X74500001Y1096248D01*
X74887287Y1116546D01*
X75270323Y1177213D01*
X75270330Y1177214D01*
X75644936Y1277589D01*
X76006994Y1416571D01*
X76352543Y1592637D01*
X76677783Y1803850D01*
X76677785Y1803851D01*
X76935349Y2012424D01*
X75440698Y3507075D01*
X75542330Y3580914D01*
X75720412Y3758996D01*
X75794251Y3860628D01*
X77288902Y2365977D01*
X77497475Y2623541D01*
X77497476Y2623543D01*
X77708689Y2948783D01*
X77884755Y3294332D01*
X78023737Y3656390D01*
X78124112Y4030996D01*
X78124113Y4031003D01*
X78184780Y4414039D01*
X78205078Y4801326D01*
X78205078Y4801327D01*
X78184780Y5188614D01*
X78124113Y5571650D01*
X78124112Y5571657D01*
X78023737Y5946263D01*
X77884755Y6308321D01*
X77708689Y6653870D01*
X77497468Y6979120D01*
X77288904Y7236677D01*
X77288903Y7236678D01*
X75794251Y5742026D01*
X75720412Y5843656D01*
X75542330Y6021738D01*
X75440698Y6095578D01*
X76935350Y7590230D01*
X76935350Y7590231D01*
X76677793Y7798795D01*
X76352543Y8010016D01*
X76006994Y8186082D01*
X75644936Y8325064D01*
X75270330Y8425439D01*
X75270323Y8425440D01*
X74887287Y8486107D01*
X74500001Y8506404D01*
X74499999Y8506404D01*
X74112712Y8486107D01*
X73729676Y8425440D01*
X73729669Y8425439D01*
X73355063Y8325064D01*
X72993005Y8186082D01*
X72647456Y8010016D01*
X72322206Y7798795D01*
X72064648Y7590231D01*
X72064648Y7590230D01*
X73559301Y6095578D01*
X73457670Y6021738D01*
X73279588Y5843656D01*
X73205748Y5742026D01*
X71711096Y7236678D01*
X71711095Y7236678D01*
X71502531Y6979120D01*
X71291310Y6653870D01*
X71115244Y6308321D01*
X70976262Y5946263D01*
X70875887Y5571657D01*
X70875886Y5571650D01*
X70815219Y5188614D01*
X70794922Y4801327D01*
X8205078Y4801327D01*
X8184780Y5188614D01*
X8124113Y5571650D01*
X8124112Y5571657D01*
X8023737Y5946263D01*
X7884755Y6308321D01*
X7708689Y6653870D01*
X7497468Y6979120D01*
X7288904Y7236677D01*
X7288903Y7236678D01*
X5794251Y5742026D01*
X5720412Y5843656D01*
X5542330Y6021738D01*
X5440698Y6095578D01*
X6935350Y7590230D01*
X6935350Y7590231D01*
X6677793Y7798795D01*
X6352543Y8010016D01*
X6006994Y8186082D01*
X5644936Y8325064D01*
X5270330Y8425439D01*
X5270323Y8425440D01*
X4887287Y8486107D01*
X4500001Y8506404D01*
X4499999Y8506404D01*
X4112712Y8486107D01*
X3729676Y8425440D01*
X3729669Y8425439D01*
X3355063Y8325064D01*
X2993005Y8186082D01*
X2647456Y8010016D01*
X2322206Y7798795D01*
X2064648Y7590231D01*
X2064648Y7590230D01*
X3559301Y6095578D01*
X3457670Y6021738D01*
X3279588Y5843656D01*
X3205748Y5742026D01*
X1711096Y7236678D01*
X1711095Y7236678D01*
X1502531Y6979120D01*
X1291310Y6653870D01*
X1115244Y6308321D01*
X976262Y5946263D01*
X875887Y5571657D01*
X875886Y5571650D01*
X815219Y5188614D01*
X794922Y4801327D01*
X0Y4801327D01*
X0Y17768326D01*
X45694540Y17768326D01*
X45714326Y17580070D01*
X45714327Y17580067D01*
X45772818Y17400049D01*
X45772821Y17400042D01*
X45867467Y17236110D01*
X45969185Y17123141D01*
X45994129Y17095438D01*
X46147265Y16984178D01*
X46147270Y16984175D01*
X46320192Y16907184D01*
X46320197Y16907182D01*
X46505354Y16867826D01*
X46505355Y16867826D01*
X46694644Y16867826D01*
X46694646Y16867826D01*
X46879803Y16907182D01*
X47052730Y16984175D01*
X47205871Y17095438D01*
X47208788Y17098679D01*
X47211600Y17101800D01*
X47271087Y17138447D01*
X47303748Y17142826D01*
X47561252Y17142826D01*
X47628291Y17123141D01*
X47653400Y17101800D01*
X47659126Y17095441D01*
X47659130Y17095437D01*
X47812265Y16984178D01*
X47812270Y16984175D01*
X47985192Y16907184D01*
X47985197Y16907182D01*
X48170354Y16867826D01*
X48170355Y16867826D01*
X48359644Y16867826D01*
X48359646Y16867826D01*
X48544803Y16907182D01*
X48717730Y16984175D01*
X48870871Y17095438D01*
X48997533Y17236110D01*
X49092179Y17400042D01*
X49150674Y17580070D01*
X49170460Y17768326D01*
X49150674Y17956582D01*
X49092179Y18136610D01*
X48997533Y18300542D01*
X48870871Y18441214D01*
X48870870Y18441215D01*
X48717734Y18552475D01*
X48717729Y18552478D01*
X48544807Y18629469D01*
X48544802Y18629471D01*
X48399001Y18660461D01*
X48359646Y18668826D01*
X48170354Y18668826D01*
X48137897Y18661928D01*
X47985197Y18629471D01*
X47985192Y18629469D01*
X47812270Y18552478D01*
X47812265Y18552475D01*
X47659130Y18441216D01*
X47659126Y18441212D01*
X47653400Y18434852D01*
X47593913Y18398205D01*
X47561252Y18393826D01*
X47303748Y18393826D01*
X47236709Y18413511D01*
X47211600Y18434852D01*
X47205873Y18441212D01*
X47205869Y18441216D01*
X47052734Y18552475D01*
X47052729Y18552478D01*
X46879807Y18629469D01*
X46879802Y18629471D01*
X46734001Y18660461D01*
X46694646Y18668826D01*
X46505354Y18668826D01*
X46472897Y18661928D01*
X46320197Y18629471D01*
X46320192Y18629469D01*
X46147270Y18552478D01*
X46147265Y18552475D01*
X45994129Y18441215D01*
X45867466Y18300541D01*
X45772821Y18136611D01*
X45772818Y18136604D01*
X45714327Y17956586D01*
X45714326Y17956582D01*
X45694540Y17768326D01*
X0Y17768326D01*
X0Y20768329D01*
X10144751Y20768329D01*
X10144751Y20768324D01*
X10163685Y20600270D01*
X10219545Y20440632D01*
X10219547Y20440629D01*
X10309518Y20297442D01*
X10309523Y20297436D01*
X10429109Y20177850D01*
X10429115Y20177845D01*
X10572302Y20087874D01*
X10572305Y20087872D01*
X10572309Y20087871D01*
X10572310Y20087870D01*
X10644913Y20062466D01*
X10731943Y20032012D01*
X10899997Y20013077D01*
X10900000Y20013077D01*
X10900003Y20013077D01*
X11068056Y20032012D01*
X11068059Y20032013D01*
X11227690Y20087870D01*
X11227692Y20087872D01*
X11227694Y20087872D01*
X11227697Y20087874D01*
X11370884Y20177845D01*
X11370885Y20177846D01*
X11370890Y20177849D01*
X11490477Y20297436D01*
X11580452Y20440629D01*
X11580454Y20440632D01*
X11580454Y20440634D01*
X11580456Y20440636D01*
X11636313Y20600267D01*
X11636313Y20600268D01*
X11636314Y20600270D01*
X11655249Y20768324D01*
X11655249Y20768329D01*
X11636314Y20936383D01*
X11622904Y20974705D01*
X11580456Y21096016D01*
X11574295Y21105821D01*
X11544506Y21153231D01*
X11525500Y21219203D01*
X11525500Y22643826D01*
X11545185Y22710865D01*
X11597989Y22756620D01*
X11649500Y22767826D01*
X14474107Y22767826D01*
X14534529Y22779845D01*
X14594952Y22791863D01*
X14594955Y22791865D01*
X14594958Y22791865D01*
X14628287Y22805672D01*
X14628286Y22805672D01*
X14628292Y22805674D01*
X14708786Y22839014D01*
X14760009Y22873242D01*
X14811233Y22907468D01*
X14898358Y22994593D01*
X14898358Y22994595D01*
X14908566Y23004802D01*
X14908568Y23004805D01*
X16055116Y24151354D01*
X16101841Y24180713D01*
X16105554Y24182013D01*
X16105559Y24182013D01*
X16265190Y24237870D01*
X16265192Y24237871D01*
X16265197Y24237874D01*
X16408384Y24327845D01*
X16408385Y24327846D01*
X16408390Y24327849D01*
X16527977Y24447436D01*
X16593300Y24551396D01*
X16617952Y24590629D01*
X16617954Y24590632D01*
X16617954Y24590634D01*
X16617956Y24590636D01*
X16673813Y24750267D01*
X16673813Y24750268D01*
X16673814Y24750270D01*
X16692749Y24918324D01*
X16692749Y24918329D01*
X16673814Y25086383D01*
X16617954Y25246021D01*
X16617952Y25246024D01*
X16527981Y25389211D01*
X16527976Y25389217D01*
X16408390Y25508803D01*
X16408384Y25508808D01*
X16265197Y25598779D01*
X16265194Y25598781D01*
X16105556Y25654641D01*
X15937503Y25673575D01*
X15937497Y25673575D01*
X15769443Y25654641D01*
X15609805Y25598781D01*
X15609802Y25598779D01*
X15466615Y25508808D01*
X15466609Y25508803D01*
X15347023Y25389217D01*
X15347018Y25389211D01*
X15257047Y25246024D01*
X15257044Y25246018D01*
X15199888Y25082672D01*
X15170527Y25035945D01*
X14189729Y24055145D01*
X14128406Y24021660D01*
X14102048Y24018826D01*
X11063389Y24018826D01*
X11002971Y24006808D01*
X10965259Y23999307D01*
X10942550Y23994790D01*
X10942548Y23994789D01*
X10909207Y23980979D01*
X10828719Y23947642D01*
X10828705Y23947634D01*
X10726272Y23879188D01*
X10726264Y23879182D01*
X10414144Y23567062D01*
X10414138Y23567054D01*
X10345692Y23464621D01*
X10345684Y23464607D01*
X10324339Y23413071D01*
X10312347Y23384119D01*
X10306823Y23370783D01*
X10298537Y23350781D01*
X10298535Y23350773D01*
X10274500Y23229937D01*
X10274500Y21219203D01*
X10255494Y21153231D01*
X10219545Y21096019D01*
X10163685Y20936383D01*
X10144751Y20768329D01*
X0Y20768329D01*
X0Y26268326D01*
X45269540Y26268326D01*
X45289326Y26080070D01*
X45289327Y26080067D01*
X45347818Y25900049D01*
X45347821Y25900042D01*
X45442467Y25736110D01*
X45544185Y25623141D01*
X45569129Y25595438D01*
X45722265Y25484178D01*
X45722270Y25484175D01*
X45895192Y25407184D01*
X45895197Y25407182D01*
X46080354Y25367826D01*
X46080355Y25367826D01*
X46269644Y25367826D01*
X46269646Y25367826D01*
X46454803Y25407182D01*
X46627730Y25484175D01*
X46780871Y25595438D01*
X46783882Y25598782D01*
X46786600Y25601800D01*
X46846087Y25638447D01*
X46878748Y25642826D01*
X47546252Y25642826D01*
X47613291Y25623141D01*
X47638400Y25601800D01*
X47644126Y25595441D01*
X47644130Y25595437D01*
X47797265Y25484178D01*
X47797270Y25484175D01*
X47970192Y25407184D01*
X47970197Y25407182D01*
X48155354Y25367826D01*
X48155355Y25367826D01*
X48344644Y25367826D01*
X48344646Y25367826D01*
X48529803Y25407182D01*
X48702730Y25484175D01*
X48855871Y25595438D01*
X48982533Y25736110D01*
X49077179Y25900042D01*
X49135674Y26080070D01*
X49155460Y26268326D01*
X49135674Y26456582D01*
X49077179Y26636610D01*
X48982533Y26800542D01*
X48855871Y26941214D01*
X48855870Y26941215D01*
X48702734Y27052475D01*
X48702729Y27052478D01*
X48529807Y27129469D01*
X48529802Y27129471D01*
X48384001Y27160461D01*
X48344646Y27168826D01*
X48155354Y27168826D01*
X48122897Y27161928D01*
X47970197Y27129471D01*
X47970192Y27129469D01*
X47797270Y27052478D01*
X47797265Y27052475D01*
X47644130Y26941216D01*
X47644126Y26941212D01*
X47638400Y26934852D01*
X47578913Y26898205D01*
X47546252Y26893826D01*
X46878748Y26893826D01*
X46811709Y26913511D01*
X46786600Y26934852D01*
X46780873Y26941212D01*
X46780869Y26941216D01*
X46627734Y27052475D01*
X46627729Y27052478D01*
X46454807Y27129469D01*
X46454802Y27129471D01*
X46309001Y27160461D01*
X46269646Y27168826D01*
X46080354Y27168826D01*
X46047897Y27161928D01*
X45895197Y27129471D01*
X45895192Y27129469D01*
X45722270Y27052478D01*
X45722265Y27052475D01*
X45569129Y26941215D01*
X45442466Y26800541D01*
X45347821Y26636611D01*
X45347818Y26636604D01*
X45289327Y26456586D01*
X45289326Y26456582D01*
X45269540Y26268326D01*
X0Y26268326D01*
X0Y31668343D01*
X73224500Y31668343D01*
X73224500Y30868325D01*
X73224501Y30868307D01*
X73235000Y30765530D01*
X73235001Y30765527D01*
X73290185Y30598995D01*
X73290186Y30598992D01*
X73382288Y30449670D01*
X73506344Y30325614D01*
X73570543Y30286016D01*
X73617268Y30234068D01*
X73628489Y30165105D01*
X73600646Y30101023D01*
X73593128Y30092796D01*
X73485585Y29985253D01*
X73383768Y29845115D01*
X73305128Y29690774D01*
X73251597Y29526024D01*
X73224500Y29354937D01*
X73224500Y29181715D01*
X73251598Y29010625D01*
X73305127Y28845881D01*
X73383768Y28691538D01*
X73485586Y28551398D01*
X73608072Y28428912D01*
X73608078Y28428908D01*
X73691023Y28368643D01*
X73733689Y28313313D01*
X73739667Y28243700D01*
X73707061Y28181905D01*
X73691023Y28168009D01*
X73608078Y28107745D01*
X73608069Y28107738D01*
X73485588Y27985257D01*
X73485588Y27985256D01*
X73485586Y27985254D01*
X73441859Y27925070D01*
X73383768Y27845115D01*
X73305128Y27690774D01*
X73251597Y27526024D01*
X73224500Y27354937D01*
X73224500Y27181715D01*
X73232677Y27130087D01*
X73244969Y27052475D01*
X73251598Y27010625D01*
X73305127Y26845881D01*
X73383768Y26691538D01*
X73485586Y26551398D01*
X73608072Y26428912D01*
X73608078Y26428908D01*
X73691023Y26368643D01*
X73733689Y26313313D01*
X73739667Y26243700D01*
X73707061Y26181905D01*
X73691023Y26168009D01*
X73608078Y26107745D01*
X73608069Y26107738D01*
X73485588Y25985257D01*
X73485588Y25985256D01*
X73485586Y25985254D01*
X73441859Y25925070D01*
X73383768Y25845115D01*
X73305128Y25690774D01*
X73251597Y25526024D01*
X73224500Y25354937D01*
X73224500Y25181716D01*
X73247587Y25035945D01*
X73251598Y25010625D01*
X73305127Y24845881D01*
X73383768Y24691538D01*
X73485586Y24551398D01*
X73608072Y24428912D01*
X73691449Y24368335D01*
X73734114Y24313004D01*
X73740093Y24243391D01*
X73707487Y24181596D01*
X73691448Y24167699D01*
X73608404Y24107365D01*
X73608399Y24107361D01*
X73485967Y23984929D01*
X73384195Y23844851D01*
X73305591Y23690582D01*
X73252085Y23525911D01*
X73250884Y23518327D01*
X73250885Y23518326D01*
X74319670Y23518326D01*
X74299925Y23498581D01*
X74250556Y23413071D01*
X74225000Y23317696D01*
X74225000Y23218956D01*
X74250556Y23123581D01*
X74299925Y23038071D01*
X74319670Y23018326D01*
X73250885Y23018326D01*
X73252085Y23010742D01*
X73305591Y22846071D01*
X73384195Y22691802D01*
X73485967Y22551724D01*
X73608397Y22429294D01*
X73748475Y22327522D01*
X73902742Y22248918D01*
X74067415Y22195412D01*
X74238429Y22168326D01*
X74350000Y22168326D01*
X74350000Y22987996D01*
X74369745Y22968251D01*
X74455255Y22918882D01*
X74550630Y22893326D01*
X74649370Y22893326D01*
X74744745Y22918882D01*
X74830255Y22968251D01*
X74850000Y22987996D01*
X74850000Y22168326D01*
X74961571Y22168326D01*
X75132584Y22195412D01*
X75297257Y22248918D01*
X75451524Y22327522D01*
X75591602Y22429294D01*
X75714032Y22551724D01*
X75815804Y22691802D01*
X75894408Y22846071D01*
X75947914Y23010742D01*
X75949115Y23018326D01*
X74880330Y23018326D01*
X74900075Y23038071D01*
X74949444Y23123581D01*
X74975000Y23218956D01*
X74975000Y23317696D01*
X74949444Y23413071D01*
X74900075Y23498581D01*
X74880330Y23518326D01*
X75949115Y23518326D01*
X75949115Y23518327D01*
X75947914Y23525911D01*
X75894408Y23690582D01*
X75815804Y23844851D01*
X75714032Y23984929D01*
X75591602Y24107359D01*
X75508551Y24167698D01*
X75465885Y24223028D01*
X75459906Y24292641D01*
X75492511Y24354437D01*
X75508551Y24368335D01*
X75591928Y24428912D01*
X75714414Y24551398D01*
X75816232Y24691538D01*
X75894873Y24845881D01*
X75948402Y25010625D01*
X75975500Y25181715D01*
X75975500Y25354937D01*
X75948402Y25526027D01*
X75894873Y25690771D01*
X75816232Y25845114D01*
X75714414Y25985254D01*
X75591928Y26107740D01*
X75508975Y26168009D01*
X75466311Y26223338D01*
X75460332Y26292952D01*
X75492938Y26354747D01*
X75508976Y26368644D01*
X75591928Y26428912D01*
X75714414Y26551398D01*
X75816232Y26691538D01*
X75894873Y26845881D01*
X75948402Y27010625D01*
X75975500Y27181715D01*
X75975500Y27354937D01*
X75948402Y27526027D01*
X75894873Y27690771D01*
X75816232Y27845114D01*
X75714414Y27985254D01*
X75591928Y28107740D01*
X75508975Y28168009D01*
X75466311Y28223338D01*
X75460332Y28292952D01*
X75492938Y28354747D01*
X75508976Y28368644D01*
X75591928Y28428912D01*
X75714414Y28551398D01*
X75816232Y28691538D01*
X75894873Y28845881D01*
X75948402Y29010625D01*
X75975500Y29181715D01*
X75975500Y29354937D01*
X75948402Y29526027D01*
X75894873Y29690771D01*
X75816232Y29845114D01*
X75714414Y29985254D01*
X75606872Y30092796D01*
X75573387Y30154119D01*
X75578371Y30223811D01*
X75620243Y30279744D01*
X75629457Y30286016D01*
X75693656Y30325614D01*
X75817712Y30449670D01*
X75909814Y30598992D01*
X75964999Y30765529D01*
X75975500Y30868317D01*
X75975499Y31668334D01*
X75964999Y31771123D01*
X75909814Y31937660D01*
X75817712Y32086982D01*
X75693656Y32211038D01*
X75600888Y32268257D01*
X75544336Y32303139D01*
X75544331Y32303141D01*
X75542862Y32303628D01*
X75377797Y32358325D01*
X75377795Y32358326D01*
X75275010Y32368826D01*
X73924998Y32368826D01*
X73924981Y32368825D01*
X73822203Y32358326D01*
X73822200Y32358325D01*
X73655668Y32303141D01*
X73655663Y32303139D01*
X73506342Y32211037D01*
X73382289Y32086984D01*
X73290187Y31937663D01*
X73290186Y31937660D01*
X73235001Y31771123D01*
X73235001Y31771122D01*
X73235000Y31771122D01*
X73224500Y31668343D01*
X0Y31668343D01*
X0Y34968326D01*
X44494540Y34968326D01*
X44514326Y34780070D01*
X44514327Y34780067D01*
X44572818Y34600049D01*
X44572821Y34600042D01*
X44667467Y34436110D01*
X44769185Y34323141D01*
X44794129Y34295438D01*
X44947265Y34184178D01*
X44947267Y34184177D01*
X44947270Y34184175D01*
X45027163Y34148604D01*
X45065342Y34131605D01*
X45118578Y34086354D01*
X45138899Y34019505D01*
X45119853Y33952282D01*
X45067487Y33906027D01*
X45065342Y33905047D01*
X44947267Y33852476D01*
X44947265Y33852475D01*
X44794129Y33741215D01*
X44667466Y33600541D01*
X44572821Y33436611D01*
X44572818Y33436604D01*
X44514327Y33256586D01*
X44514326Y33256582D01*
X44494540Y33068326D01*
X44514326Y32880070D01*
X44514327Y32880067D01*
X44572818Y32700049D01*
X44572821Y32700042D01*
X44667467Y32536110D01*
X44769185Y32423141D01*
X44794129Y32395438D01*
X44947265Y32284178D01*
X44947270Y32284175D01*
X45120192Y32207184D01*
X45120197Y32207182D01*
X45305354Y32167826D01*
X45305355Y32167826D01*
X45494644Y32167826D01*
X45494646Y32167826D01*
X45679803Y32207182D01*
X45852730Y32284175D01*
X46005871Y32395438D01*
X46008788Y32398679D01*
X46011600Y32401800D01*
X46071087Y32438447D01*
X46103748Y32442826D01*
X50796252Y32442826D01*
X50863291Y32423141D01*
X50888400Y32401800D01*
X50894126Y32395441D01*
X50894130Y32395437D01*
X51047265Y32284178D01*
X51047270Y32284175D01*
X51220192Y32207184D01*
X51220197Y32207182D01*
X51405354Y32167826D01*
X51405355Y32167826D01*
X51594644Y32167826D01*
X51594646Y32167826D01*
X51779803Y32207182D01*
X51952730Y32284175D01*
X52105871Y32395438D01*
X52232533Y32536110D01*
X52327179Y32700042D01*
X52385674Y32880070D01*
X52405460Y33068326D01*
X52385674Y33256582D01*
X52327179Y33436610D01*
X52232533Y33600542D01*
X52105871Y33741214D01*
X52105870Y33741215D01*
X51952734Y33852475D01*
X51952729Y33852478D01*
X51779807Y33929469D01*
X51779802Y33929471D01*
X51634001Y33960461D01*
X51594646Y33968826D01*
X51405354Y33968826D01*
X51372897Y33961928D01*
X51220197Y33929471D01*
X51220192Y33929469D01*
X51047270Y33852478D01*
X51047265Y33852475D01*
X50894130Y33741216D01*
X50894126Y33741212D01*
X50888400Y33734852D01*
X50828913Y33698205D01*
X50796252Y33693826D01*
X46103748Y33693826D01*
X46036709Y33713511D01*
X46011600Y33734852D01*
X46005873Y33741212D01*
X46005869Y33741216D01*
X45852734Y33852475D01*
X45852729Y33852478D01*
X45734658Y33905047D01*
X45681421Y33950297D01*
X45661100Y34017146D01*
X45680146Y34084370D01*
X45732512Y34130625D01*
X45734658Y34131605D01*
X45783801Y34153486D01*
X45852730Y34184175D01*
X46005871Y34295438D01*
X46008788Y34298679D01*
X46011600Y34301800D01*
X46071087Y34338447D01*
X46103748Y34342826D01*
X47551252Y34342826D01*
X47618291Y34323141D01*
X47643400Y34301800D01*
X47649126Y34295441D01*
X47649130Y34295437D01*
X47802265Y34184178D01*
X47802270Y34184175D01*
X47975192Y34107184D01*
X47975197Y34107182D01*
X48160354Y34067826D01*
X48160355Y34067826D01*
X48349644Y34067826D01*
X48349646Y34067826D01*
X48534803Y34107182D01*
X48707730Y34184175D01*
X48860871Y34295438D01*
X48987533Y34436110D01*
X49082179Y34600042D01*
X49140674Y34780070D01*
X49160460Y34968326D01*
X49140674Y35156582D01*
X49082179Y35336610D01*
X48987533Y35500542D01*
X48860871Y35641214D01*
X48860870Y35641215D01*
X48707734Y35752475D01*
X48707729Y35752478D01*
X48534807Y35829469D01*
X48534802Y35829471D01*
X48389001Y35860461D01*
X48349646Y35868826D01*
X48160354Y35868826D01*
X48127897Y35861928D01*
X47975197Y35829471D01*
X47975192Y35829469D01*
X47802270Y35752478D01*
X47802265Y35752475D01*
X47649130Y35641216D01*
X47649126Y35641212D01*
X47643400Y35634852D01*
X47583913Y35598205D01*
X47551252Y35593826D01*
X46103748Y35593826D01*
X46036709Y35613511D01*
X46011600Y35634852D01*
X46005873Y35641212D01*
X46005869Y35641216D01*
X45852734Y35752475D01*
X45852729Y35752478D01*
X45679807Y35829469D01*
X45679802Y35829471D01*
X45534001Y35860461D01*
X45494646Y35868826D01*
X45305354Y35868826D01*
X45272897Y35861928D01*
X45120197Y35829471D01*
X45120192Y35829469D01*
X44947270Y35752478D01*
X44947265Y35752475D01*
X44794129Y35641215D01*
X44667466Y35500541D01*
X44572821Y35336611D01*
X44572818Y35336604D01*
X44514327Y35156586D01*
X44514326Y35156582D01*
X44494540Y34968326D01*
X0Y34968326D01*
X0Y40454937D01*
X73224500Y40454937D01*
X73224500Y40281715D01*
X73251598Y40110625D01*
X73305127Y39945881D01*
X73383768Y39791538D01*
X73485586Y39651398D01*
X73608072Y39528912D01*
X73608078Y39528908D01*
X73691023Y39468643D01*
X73733689Y39413313D01*
X73739667Y39343700D01*
X73707061Y39281905D01*
X73691023Y39268009D01*
X73608078Y39207745D01*
X73608069Y39207738D01*
X73485588Y39085257D01*
X73485588Y39085256D01*
X73485586Y39085254D01*
X73441859Y39025070D01*
X73383768Y38945115D01*
X73305128Y38790774D01*
X73251597Y38626024D01*
X73224500Y38454937D01*
X73224500Y38281715D01*
X73251598Y38110625D01*
X73305127Y37945881D01*
X73383768Y37791538D01*
X73485586Y37651398D01*
X73608072Y37528912D01*
X73748212Y37427094D01*
X73902555Y37348453D01*
X74067299Y37294924D01*
X74238389Y37267826D01*
X74238390Y37267826D01*
X74961610Y37267826D01*
X74961611Y37267826D01*
X75132701Y37294924D01*
X75297445Y37348453D01*
X75451788Y37427094D01*
X75591928Y37528912D01*
X75714414Y37651398D01*
X75816232Y37791538D01*
X75894873Y37945881D01*
X75948402Y38110625D01*
X75975500Y38281715D01*
X75975500Y38454937D01*
X75948402Y38626027D01*
X75894873Y38790771D01*
X75816232Y38945114D01*
X75714414Y39085254D01*
X75591928Y39207740D01*
X75508975Y39268009D01*
X75466311Y39323338D01*
X75460332Y39392952D01*
X75492938Y39454747D01*
X75508976Y39468644D01*
X75591928Y39528912D01*
X75714414Y39651398D01*
X75816232Y39791538D01*
X75894873Y39945881D01*
X75948402Y40110625D01*
X75975500Y40281715D01*
X75975500Y40454937D01*
X75948402Y40626027D01*
X75894873Y40790771D01*
X75816232Y40945114D01*
X75714414Y41085254D01*
X75606508Y41193160D01*
X75573023Y41254483D01*
X75578007Y41324175D01*
X75619879Y41380108D01*
X75629094Y41386381D01*
X75693345Y41426011D01*
X75817315Y41549981D01*
X75909356Y41699202D01*
X75909358Y41699207D01*
X75964505Y41865629D01*
X75964506Y41865636D01*
X75974999Y41968340D01*
X75975000Y41968353D01*
X75975000Y42118326D01*
X74880330Y42118326D01*
X74900075Y42138071D01*
X74949444Y42223581D01*
X74975000Y42318956D01*
X74975000Y42417696D01*
X74949444Y42513071D01*
X74900075Y42598581D01*
X74880330Y42618326D01*
X75974999Y42618326D01*
X75974999Y42768298D01*
X75974998Y42768313D01*
X75964505Y42871024D01*
X75909358Y43037446D01*
X75909356Y43037451D01*
X75817315Y43186672D01*
X75693345Y43310642D01*
X75544124Y43402683D01*
X75544119Y43402685D01*
X75377697Y43457832D01*
X75377690Y43457833D01*
X75274986Y43468326D01*
X74850000Y43468326D01*
X74850000Y42648656D01*
X74830255Y42668401D01*
X74744745Y42717770D01*
X74649370Y42743326D01*
X74550630Y42743326D01*
X74455255Y42717770D01*
X74369745Y42668401D01*
X74350000Y42648656D01*
X74350000Y43468326D01*
X73925028Y43468326D01*
X73925012Y43468325D01*
X73822302Y43457832D01*
X73655880Y43402685D01*
X73655875Y43402683D01*
X73506654Y43310642D01*
X73382684Y43186672D01*
X73290643Y43037451D01*
X73290641Y43037446D01*
X73235494Y42871024D01*
X73235493Y42871017D01*
X73225000Y42768313D01*
X73225000Y42618326D01*
X74319670Y42618326D01*
X74299925Y42598581D01*
X74250556Y42513071D01*
X74225000Y42417696D01*
X74225000Y42318956D01*
X74250556Y42223581D01*
X74299925Y42138071D01*
X74319670Y42118326D01*
X73225001Y42118326D01*
X73225001Y41968340D01*
X73235494Y41865629D01*
X73290641Y41699207D01*
X73290643Y41699202D01*
X73382684Y41549981D01*
X73506656Y41426009D01*
X73570906Y41386380D01*
X73617631Y41334433D01*
X73628854Y41265470D01*
X73601011Y41201388D01*
X73593492Y41193160D01*
X73485585Y41085253D01*
X73383768Y40945115D01*
X73305128Y40790774D01*
X73251597Y40626024D01*
X73224500Y40454937D01*
X0Y40454937D01*
X0Y42768326D01*
X21594540Y42768326D01*
X21614326Y42580070D01*
X21614327Y42580067D01*
X21672818Y42400049D01*
X21672821Y42400042D01*
X21767467Y42236110D01*
X21888401Y42101800D01*
X21894129Y42095438D01*
X22047265Y41984178D01*
X22047270Y41984175D01*
X22220192Y41907184D01*
X22220197Y41907182D01*
X22405354Y41867826D01*
X22405355Y41867826D01*
X22594644Y41867826D01*
X22594646Y41867826D01*
X22779803Y41907182D01*
X22952730Y41984175D01*
X23105871Y42095438D01*
X23108788Y42098679D01*
X23111600Y42101800D01*
X23171087Y42138447D01*
X23203748Y42142826D01*
X24296252Y42142826D01*
X24363291Y42123141D01*
X24388400Y42101800D01*
X24394126Y42095441D01*
X24394130Y42095437D01*
X24547265Y41984178D01*
X24547270Y41984175D01*
X24720192Y41907184D01*
X24720197Y41907182D01*
X24905354Y41867826D01*
X24905355Y41867826D01*
X25094644Y41867826D01*
X25094646Y41867826D01*
X25279803Y41907182D01*
X25452730Y41984175D01*
X25605871Y42095438D01*
X25732533Y42236110D01*
X25827179Y42400042D01*
X25885674Y42580070D01*
X25905460Y42768326D01*
X25885674Y42956582D01*
X25827179Y43136610D01*
X25732533Y43300542D01*
X25605871Y43441214D01*
X25605870Y43441215D01*
X25452734Y43552475D01*
X25452729Y43552478D01*
X25279807Y43629469D01*
X25279802Y43629471D01*
X25116339Y43664215D01*
X25094646Y43668826D01*
X24905354Y43668826D01*
X24883661Y43664215D01*
X24720197Y43629471D01*
X24720192Y43629469D01*
X24547270Y43552478D01*
X24547265Y43552475D01*
X24394130Y43441216D01*
X24394126Y43441212D01*
X24388400Y43434852D01*
X24328913Y43398205D01*
X24296252Y43393826D01*
X23203748Y43393826D01*
X23136709Y43413511D01*
X23111600Y43434852D01*
X23105873Y43441212D01*
X23105869Y43441216D01*
X22952734Y43552475D01*
X22952729Y43552478D01*
X22779807Y43629469D01*
X22779802Y43629471D01*
X22616339Y43664215D01*
X22594646Y43668826D01*
X22405354Y43668826D01*
X22383661Y43664215D01*
X22220197Y43629471D01*
X22220192Y43629469D01*
X22047270Y43552478D01*
X22047265Y43552475D01*
X21894129Y43441215D01*
X21767466Y43300541D01*
X21672821Y43136611D01*
X21672818Y43136604D01*
X21640600Y43037446D01*
X21614326Y42956582D01*
X21594540Y42768326D01*
X0Y42768326D01*
X0Y44139331D01*
X14149499Y44139331D01*
X14176418Y44004004D01*
X14176421Y44003994D01*
X14229221Y43876522D01*
X14229228Y43876509D01*
X14305885Y43761785D01*
X14305888Y43761781D01*
X14403454Y43664215D01*
X14403458Y43664212D01*
X14518182Y43587555D01*
X14518195Y43587548D01*
X14602865Y43552477D01*
X14645672Y43534746D01*
X14645676Y43534746D01*
X14645677Y43534745D01*
X14781004Y43507826D01*
X14781007Y43507826D01*
X14918995Y43507826D01*
X15010041Y43525937D01*
X15054328Y43534746D01*
X15181811Y43587551D01*
X15296542Y43664212D01*
X15394114Y43761784D01*
X15470775Y43876515D01*
X15523580Y44003998D01*
X15550500Y44139331D01*
X17149499Y44139331D01*
X17176418Y44004004D01*
X17176421Y44003994D01*
X17229221Y43876522D01*
X17229228Y43876509D01*
X17305885Y43761785D01*
X17305888Y43761781D01*
X17403454Y43664215D01*
X17403458Y43664212D01*
X17518182Y43587555D01*
X17518195Y43587548D01*
X17602865Y43552477D01*
X17645672Y43534746D01*
X17645676Y43534746D01*
X17645677Y43534745D01*
X17781004Y43507826D01*
X17781007Y43507826D01*
X17918995Y43507826D01*
X18010041Y43525937D01*
X18054328Y43534746D01*
X18181811Y43587551D01*
X18296542Y43664212D01*
X18394114Y43761784D01*
X18470775Y43876515D01*
X18523580Y44003998D01*
X18550500Y44139333D01*
X18550500Y44277319D01*
X18550500Y44277322D01*
X18523581Y44412649D01*
X18523580Y44412650D01*
X18523580Y44412654D01*
X18500727Y44467826D01*
X18470778Y44540131D01*
X18470771Y44540144D01*
X18394114Y44654868D01*
X18394111Y44654872D01*
X18296545Y44752438D01*
X18296541Y44752441D01*
X18181817Y44829098D01*
X18181804Y44829105D01*
X18054332Y44881905D01*
X18054322Y44881908D01*
X17918995Y44908826D01*
X17918993Y44908826D01*
X17781007Y44908826D01*
X17781005Y44908826D01*
X17645677Y44881908D01*
X17645667Y44881905D01*
X17518195Y44829105D01*
X17518182Y44829098D01*
X17403458Y44752441D01*
X17403454Y44752438D01*
X17305888Y44654872D01*
X17305885Y44654868D01*
X17229228Y44540144D01*
X17229221Y44540131D01*
X17176421Y44412659D01*
X17176418Y44412649D01*
X17149500Y44277322D01*
X17149500Y44277319D01*
X17149500Y44139333D01*
X17149500Y44139331D01*
X17149499Y44139331D01*
X15550500Y44139331D01*
X15550500Y44139333D01*
X15550500Y44277319D01*
X15550500Y44277322D01*
X15523581Y44412649D01*
X15523580Y44412650D01*
X15523580Y44412654D01*
X15500727Y44467826D01*
X15470778Y44540131D01*
X15470771Y44540144D01*
X15394114Y44654868D01*
X15394111Y44654872D01*
X15296545Y44752438D01*
X15296541Y44752441D01*
X15181817Y44829098D01*
X15181804Y44829105D01*
X15054332Y44881905D01*
X15054322Y44881908D01*
X14918995Y44908826D01*
X14918993Y44908826D01*
X14781007Y44908826D01*
X14781005Y44908826D01*
X14645677Y44881908D01*
X14645667Y44881905D01*
X14518195Y44829105D01*
X14518182Y44829098D01*
X14403458Y44752441D01*
X14403454Y44752438D01*
X14305888Y44654872D01*
X14305885Y44654868D01*
X14229228Y44540144D01*
X14229221Y44540131D01*
X14176421Y44412659D01*
X14176418Y44412649D01*
X14149500Y44277322D01*
X14149500Y44277319D01*
X14149500Y44139333D01*
X14149500Y44139331D01*
X14149499Y44139331D01*
X0Y44139331D01*
X0Y45368326D01*
X27794540Y45368326D01*
X27814326Y45180070D01*
X27814327Y45180067D01*
X27872818Y45000049D01*
X27872821Y45000042D01*
X27967467Y44836110D01*
X27973781Y44829098D01*
X28094129Y44695438D01*
X28247265Y44584178D01*
X28247270Y44584175D01*
X28420192Y44507184D01*
X28420197Y44507182D01*
X28605354Y44467826D01*
X28605355Y44467826D01*
X28794644Y44467826D01*
X28794646Y44467826D01*
X28979803Y44507182D01*
X29152730Y44584175D01*
X29305871Y44695438D01*
X29432533Y44836110D01*
X29527179Y45000042D01*
X29585674Y45180070D01*
X29605460Y45368326D01*
X29585674Y45556582D01*
X29527179Y45736610D01*
X29432533Y45900542D01*
X29357350Y45984042D01*
X29327120Y46047034D01*
X29325500Y46067014D01*
X29325500Y47343826D01*
X29345185Y47410865D01*
X29397989Y47456620D01*
X29449500Y47467826D01*
X29494644Y47467826D01*
X29494646Y47467826D01*
X29679803Y47507182D01*
X29852730Y47584175D01*
X30005871Y47695438D01*
X30132533Y47836110D01*
X30227179Y48000042D01*
X30285674Y48180070D01*
X30287908Y48201325D01*
X32098807Y48201325D01*
X32118593Y48013069D01*
X32118594Y48013066D01*
X32177085Y47833048D01*
X32177088Y47833041D01*
X32271734Y47669109D01*
X32348209Y47584175D01*
X32398396Y47528437D01*
X32551532Y47417177D01*
X32551537Y47417174D01*
X32724459Y47340183D01*
X32724464Y47340181D01*
X32909621Y47300825D01*
X32909622Y47300825D01*
X33098911Y47300825D01*
X33098913Y47300825D01*
X33184804Y47319082D01*
X33254467Y47313767D01*
X33298263Y47285473D01*
X33786471Y46797265D01*
X33819956Y46735942D01*
X33814972Y46666250D01*
X33790941Y46626613D01*
X33767468Y46600544D01*
X33767464Y46600539D01*
X33672821Y46436611D01*
X33672818Y46436604D01*
X33614327Y46256586D01*
X33614326Y46256582D01*
X33594540Y46068326D01*
X33614326Y45880070D01*
X33614327Y45880067D01*
X33672818Y45700049D01*
X33672821Y45700042D01*
X33767467Y45536110D01*
X33894129Y45395438D01*
X34047265Y45284178D01*
X34047270Y45284175D01*
X34220192Y45207184D01*
X34220197Y45207182D01*
X34405354Y45167826D01*
X34405355Y45167826D01*
X34594644Y45167826D01*
X34594646Y45167826D01*
X34779803Y45207182D01*
X34952730Y45284175D01*
X35105871Y45395438D01*
X35232533Y45536110D01*
X35327179Y45700042D01*
X35385674Y45880070D01*
X35405460Y46068326D01*
X35385674Y46256582D01*
X35327179Y46436610D01*
X35232533Y46600542D01*
X35198633Y46638192D01*
X35157350Y46684042D01*
X35127120Y46747034D01*
X35125500Y46767014D01*
X35125500Y47029930D01*
X35125500Y47029932D01*
X35101463Y47150778D01*
X35101461Y47150783D01*
X35081962Y47197858D01*
X35081947Y47197891D01*
X35081932Y47197929D01*
X35054312Y47264611D01*
X35030114Y47300825D01*
X34985858Y47367059D01*
X34985856Y47367062D01*
X34895637Y47457281D01*
X34895606Y47457310D01*
X34334589Y48018327D01*
X51221127Y48018327D01*
X51221128Y48018326D01*
X52124722Y48018326D01*
X52080667Y47942020D01*
X52050000Y47827570D01*
X52050000Y47709082D01*
X52080667Y47594632D01*
X52124722Y47518326D01*
X51221128Y47518326D01*
X51273730Y47322009D01*
X51273734Y47322000D01*
X51369865Y47115844D01*
X51500342Y46929506D01*
X51661179Y46768669D01*
X51847517Y46638192D01*
X52053673Y46542061D01*
X52053682Y46542057D01*
X52249999Y46489454D01*
X52250000Y46489455D01*
X52250000Y47393049D01*
X52326306Y47348993D01*
X52440756Y47318326D01*
X52559244Y47318326D01*
X52673694Y47348993D01*
X52750000Y47393049D01*
X52750000Y46489454D01*
X52946317Y46542057D01*
X52946326Y46542061D01*
X53152482Y46638192D01*
X53338816Y46768666D01*
X53411963Y46841813D01*
X53473286Y46875298D01*
X53542978Y46870314D01*
X53587326Y46841813D01*
X53660858Y46768281D01*
X53691202Y46747034D01*
X53847266Y46637758D01*
X54053504Y46541587D01*
X54273308Y46482691D01*
X54435230Y46468525D01*
X54499998Y46462858D01*
X54500000Y46462858D01*
X54500002Y46462858D01*
X54556673Y46467817D01*
X54726692Y46482691D01*
X54946496Y46541587D01*
X55152734Y46637758D01*
X55339139Y46768279D01*
X55412320Y46841461D01*
X55473641Y46874944D01*
X55543333Y46869960D01*
X55587679Y46841461D01*
X55631875Y46797265D01*
X55660862Y46768278D01*
X55691202Y46747034D01*
X55847266Y46637758D01*
X56053504Y46541587D01*
X56273308Y46482691D01*
X56435230Y46468525D01*
X56499998Y46462858D01*
X56500000Y46462858D01*
X56500002Y46462858D01*
X56556673Y46467817D01*
X56726692Y46482691D01*
X56946496Y46541587D01*
X57152734Y46637758D01*
X57339139Y46768279D01*
X57412320Y46841461D01*
X57473641Y46874944D01*
X57543333Y46869960D01*
X57587679Y46841461D01*
X57631875Y46797265D01*
X57660862Y46768278D01*
X57691202Y46747034D01*
X57847266Y46637758D01*
X58053504Y46541587D01*
X58273308Y46482691D01*
X58435230Y46468525D01*
X58499998Y46462858D01*
X58500000Y46462858D01*
X58500002Y46462858D01*
X58556673Y46467817D01*
X58726692Y46482691D01*
X58946496Y46541587D01*
X59152734Y46637758D01*
X59339139Y46768279D01*
X59412320Y46841461D01*
X59473641Y46874944D01*
X59543333Y46869960D01*
X59587679Y46841461D01*
X59631875Y46797265D01*
X59660862Y46768278D01*
X59691202Y46747034D01*
X59847266Y46637758D01*
X60053504Y46541587D01*
X60273308Y46482691D01*
X60435230Y46468525D01*
X60499998Y46462858D01*
X60500000Y46462858D01*
X60500002Y46462858D01*
X60556673Y46467817D01*
X60726692Y46482691D01*
X60946496Y46541587D01*
X61152734Y46637758D01*
X61339139Y46768279D01*
X61412320Y46841461D01*
X61473641Y46874944D01*
X61543333Y46869960D01*
X61587679Y46841461D01*
X61631875Y46797265D01*
X61660862Y46768278D01*
X61691202Y46747034D01*
X61847266Y46637758D01*
X62053504Y46541587D01*
X62273308Y46482691D01*
X62435230Y46468525D01*
X62499998Y46462858D01*
X62500000Y46462858D01*
X62500002Y46462858D01*
X62556673Y46467817D01*
X62726692Y46482691D01*
X62946496Y46541587D01*
X63152734Y46637758D01*
X63339139Y46768279D01*
X63412320Y46841461D01*
X63473641Y46874944D01*
X63543333Y46869960D01*
X63587679Y46841461D01*
X63631875Y46797265D01*
X63660862Y46768278D01*
X63691202Y46747034D01*
X63847266Y46637758D01*
X64053504Y46541587D01*
X64273308Y46482691D01*
X64435230Y46468525D01*
X64499998Y46462858D01*
X64500000Y46462858D01*
X64500002Y46462858D01*
X64556673Y46467817D01*
X64726692Y46482691D01*
X64946496Y46541587D01*
X65152734Y46637758D01*
X65339139Y46768279D01*
X65412674Y46841815D01*
X65473995Y46875298D01*
X65543687Y46870314D01*
X65588035Y46841813D01*
X65661179Y46768669D01*
X65847517Y46638192D01*
X66053673Y46542061D01*
X66053682Y46542057D01*
X66249999Y46489454D01*
X66250000Y46489455D01*
X66250000Y47393049D01*
X66326306Y47348993D01*
X66440756Y47318326D01*
X66559244Y47318326D01*
X66673694Y47348993D01*
X66750000Y47393049D01*
X66750000Y46489454D01*
X66946317Y46542057D01*
X66946326Y46542061D01*
X67152482Y46638192D01*
X67338820Y46768669D01*
X67499657Y46929506D01*
X67630134Y47115844D01*
X67726265Y47322000D01*
X67726269Y47322009D01*
X67778872Y47518326D01*
X66875278Y47518326D01*
X66919333Y47594632D01*
X66950000Y47709082D01*
X66950000Y47827570D01*
X66919333Y47942020D01*
X66875278Y48018326D01*
X67778872Y48018326D01*
X67778872Y48018327D01*
X67726269Y48214644D01*
X67726265Y48214653D01*
X67630134Y48420809D01*
X67499657Y48607147D01*
X67338820Y48767984D01*
X67152482Y48898461D01*
X66946328Y48994592D01*
X66750000Y49047199D01*
X66750000Y48143604D01*
X66673694Y48187659D01*
X66559244Y48218326D01*
X66440756Y48218326D01*
X66326306Y48187659D01*
X66250000Y48143604D01*
X66250000Y49047199D01*
X66053671Y48994592D01*
X65847517Y48898461D01*
X65661182Y48767987D01*
X65588035Y48694839D01*
X65526711Y48661355D01*
X65457020Y48666340D01*
X65412673Y48694840D01*
X65339141Y48768372D01*
X65152734Y48898894D01*
X65152732Y48898895D01*
X64946497Y48995065D01*
X64946488Y48995068D01*
X64726697Y49053960D01*
X64726693Y49053961D01*
X64726692Y49053961D01*
X64726691Y49053962D01*
X64726686Y49053962D01*
X64500002Y49073794D01*
X64499998Y49073794D01*
X64273313Y49053962D01*
X64273302Y49053960D01*
X64053511Y48995068D01*
X64053502Y48995065D01*
X63847267Y48898895D01*
X63847265Y48898894D01*
X63660858Y48768372D01*
X63587681Y48695194D01*
X63526358Y48661709D01*
X63456666Y48666693D01*
X63412319Y48695194D01*
X63339141Y48768372D01*
X63152734Y48898894D01*
X63152732Y48898895D01*
X62946497Y48995065D01*
X62946488Y48995068D01*
X62726697Y49053960D01*
X62726693Y49053961D01*
X62726692Y49053961D01*
X62726691Y49053962D01*
X62726686Y49053962D01*
X62500002Y49073794D01*
X62499998Y49073794D01*
X62273313Y49053962D01*
X62273302Y49053960D01*
X62053511Y48995068D01*
X62053502Y48995065D01*
X61847267Y48898895D01*
X61847265Y48898894D01*
X61660858Y48768372D01*
X61587681Y48695194D01*
X61526358Y48661709D01*
X61456666Y48666693D01*
X61412319Y48695194D01*
X61339141Y48768372D01*
X61152734Y48898894D01*
X61152732Y48898895D01*
X60946497Y48995065D01*
X60946488Y48995068D01*
X60726697Y49053960D01*
X60726693Y49053961D01*
X60726692Y49053961D01*
X60726691Y49053962D01*
X60726686Y49053962D01*
X60500002Y49073794D01*
X60499998Y49073794D01*
X60273313Y49053962D01*
X60273302Y49053960D01*
X60053511Y48995068D01*
X60053502Y48995065D01*
X59847267Y48898895D01*
X59847265Y48898894D01*
X59660858Y48768372D01*
X59587681Y48695194D01*
X59526358Y48661709D01*
X59456666Y48666693D01*
X59412319Y48695194D01*
X59339141Y48768372D01*
X59152734Y48898894D01*
X59152732Y48898895D01*
X58946497Y48995065D01*
X58946488Y48995068D01*
X58726697Y49053960D01*
X58726693Y49053961D01*
X58726692Y49053961D01*
X58726691Y49053962D01*
X58726686Y49053962D01*
X58500002Y49073794D01*
X58499998Y49073794D01*
X58273313Y49053962D01*
X58273302Y49053960D01*
X58053511Y48995068D01*
X58053502Y48995065D01*
X57847267Y48898895D01*
X57847265Y48898894D01*
X57660858Y48768372D01*
X57587681Y48695194D01*
X57526358Y48661709D01*
X57456666Y48666693D01*
X57412319Y48695194D01*
X57339141Y48768372D01*
X57152734Y48898894D01*
X57152732Y48898895D01*
X56946497Y48995065D01*
X56946488Y48995068D01*
X56726697Y49053960D01*
X56726693Y49053961D01*
X56726692Y49053961D01*
X56726691Y49053962D01*
X56726686Y49053962D01*
X56500002Y49073794D01*
X56499998Y49073794D01*
X56273313Y49053962D01*
X56273302Y49053960D01*
X56053511Y48995068D01*
X56053502Y48995065D01*
X55847267Y48898895D01*
X55847265Y48898894D01*
X55660858Y48768372D01*
X55587681Y48695194D01*
X55526358Y48661709D01*
X55456666Y48666693D01*
X55412319Y48695194D01*
X55339141Y48768372D01*
X55152734Y48898894D01*
X55152732Y48898895D01*
X54946497Y48995065D01*
X54946488Y48995068D01*
X54726697Y49053960D01*
X54726693Y49053961D01*
X54726692Y49053961D01*
X54726691Y49053962D01*
X54726686Y49053962D01*
X54500002Y49073794D01*
X54499998Y49073794D01*
X54273313Y49053962D01*
X54273302Y49053960D01*
X54053511Y48995068D01*
X54053502Y48995065D01*
X53847267Y48898895D01*
X53847265Y48898894D01*
X53660862Y48768375D01*
X53587326Y48694839D01*
X53526002Y48661355D01*
X53456311Y48666340D01*
X53411964Y48694840D01*
X53338820Y48767984D01*
X53152482Y48898461D01*
X52946328Y48994592D01*
X52750000Y49047199D01*
X52750000Y48143604D01*
X52673694Y48187659D01*
X52559244Y48218326D01*
X52440756Y48218326D01*
X52326306Y48187659D01*
X52250000Y48143604D01*
X52250000Y49047199D01*
X52053671Y48994592D01*
X51847517Y48898461D01*
X51661179Y48767984D01*
X51500342Y48607147D01*
X51369865Y48420809D01*
X51273734Y48214653D01*
X51273730Y48214644D01*
X51221127Y48018327D01*
X34334589Y48018327D01*
X33875666Y48477250D01*
X33845416Y48526613D01*
X33831445Y48569612D01*
X33831444Y48569613D01*
X33736801Y48733540D01*
X33610137Y48874214D01*
X33457001Y48985474D01*
X33456996Y48985477D01*
X33284074Y49062468D01*
X33284069Y49062470D01*
X33138268Y49093460D01*
X33098913Y49101825D01*
X32909621Y49101825D01*
X32877164Y49094927D01*
X32724464Y49062470D01*
X32724459Y49062468D01*
X32551537Y48985477D01*
X32551532Y48985474D01*
X32398396Y48874214D01*
X32271733Y48733540D01*
X32177088Y48569610D01*
X32177085Y48569603D01*
X32120329Y48394924D01*
X32118593Y48389581D01*
X32098807Y48201325D01*
X30287908Y48201325D01*
X30305460Y48368326D01*
X30285674Y48556582D01*
X30227179Y48736610D01*
X30132533Y48900542D01*
X30005871Y49041214D01*
X30005870Y49041215D01*
X29852734Y49152475D01*
X29852729Y49152478D01*
X29679807Y49229469D01*
X29679802Y49229471D01*
X29534001Y49260461D01*
X29494646Y49268826D01*
X29305354Y49268826D01*
X29272897Y49261928D01*
X29120197Y49229471D01*
X29120192Y49229469D01*
X28947270Y49152478D01*
X28947265Y49152475D01*
X28794129Y49041215D01*
X28667466Y48900541D01*
X28572821Y48736611D01*
X28572818Y48736604D01*
X28514327Y48556586D01*
X28514326Y48556582D01*
X28496774Y48389581D01*
X28496679Y48388676D01*
X28470094Y48324062D01*
X28461047Y48313965D01*
X28301269Y48154186D01*
X28301267Y48154184D01*
X28275499Y48128416D01*
X28214142Y48067060D01*
X28202542Y48049699D01*
X28191019Y48032453D01*
X28145688Y47964612D01*
X28121013Y47905039D01*
X28098537Y47850780D01*
X28074500Y47729930D01*
X28074500Y46067014D01*
X28054815Y45999975D01*
X28042650Y45984042D01*
X27967466Y45900542D01*
X27872821Y45736611D01*
X27872818Y45736604D01*
X27814327Y45556586D01*
X27814326Y45556582D01*
X27794540Y45368326D01*
X0Y45368326D01*
X0Y62728327D01*
X6844341Y62728327D01*
X6844341Y62728326D01*
X6864936Y62492923D01*
X6864938Y62492913D01*
X6926094Y62264671D01*
X6926096Y62264667D01*
X6926097Y62264663D01*
X6952747Y62207512D01*
X7025965Y62050496D01*
X7025967Y62050492D01*
X7161501Y61856931D01*
X7161506Y61856924D01*
X7328597Y61689833D01*
X7328603Y61689828D01*
X7361666Y61666677D01*
X7505436Y61566008D01*
X7514594Y61559596D01*
X7558219Y61505019D01*
X7565413Y61435521D01*
X7533890Y61373166D01*
X7514595Y61356446D01*
X7328922Y61226436D01*
X7328920Y61226435D01*
X7161891Y61059406D01*
X7161886Y61059400D01*
X7026400Y60865906D01*
X7026399Y60865904D01*
X6926570Y60651819D01*
X6926567Y60651813D01*
X6869364Y60438327D01*
X6869364Y60438326D01*
X7766988Y60438326D01*
X7734075Y60381319D01*
X7700000Y60254152D01*
X7700000Y60122500D01*
X7734075Y59995333D01*
X7766988Y59938326D01*
X6869364Y59938326D01*
X6926567Y59724840D01*
X6926570Y59724834D01*
X7026399Y59510748D01*
X7161894Y59317244D01*
X7328917Y59150221D01*
X7514595Y59020207D01*
X7558219Y58965630D01*
X7565412Y58896131D01*
X7533890Y58833777D01*
X7514595Y58817057D01*
X7328594Y58686818D01*
X7161505Y58519729D01*
X7025965Y58326157D01*
X7025964Y58326155D01*
X6926098Y58111991D01*
X6926094Y58111982D01*
X6864938Y57883740D01*
X6864936Y57883730D01*
X6844341Y57648327D01*
X6844341Y57648326D01*
X6864936Y57412923D01*
X6864938Y57412913D01*
X6926094Y57184671D01*
X6926096Y57184667D01*
X6926097Y57184663D01*
X6956198Y57120112D01*
X7025965Y56970496D01*
X7025967Y56970492D01*
X7161501Y56776931D01*
X7161506Y56776924D01*
X7328597Y56609833D01*
X7328603Y56609828D01*
X7514158Y56479901D01*
X7557783Y56425324D01*
X7564977Y56355826D01*
X7533454Y56293471D01*
X7514158Y56276751D01*
X7328597Y56146821D01*
X7161505Y55979729D01*
X7025965Y55786157D01*
X7025964Y55786155D01*
X6926098Y55571991D01*
X6926094Y55571982D01*
X6864938Y55343740D01*
X6864936Y55343730D01*
X6844341Y55108327D01*
X6844341Y55108326D01*
X6864936Y54872923D01*
X6864938Y54872913D01*
X6926094Y54644671D01*
X6926096Y54644667D01*
X6926097Y54644663D01*
X6961694Y54568326D01*
X7025965Y54430496D01*
X7025967Y54430492D01*
X7161501Y54236931D01*
X7161506Y54236924D01*
X7328597Y54069833D01*
X7328603Y54069828D01*
X7514158Y53939901D01*
X7557783Y53885324D01*
X7564977Y53815826D01*
X7533454Y53753471D01*
X7514158Y53736751D01*
X7328597Y53606821D01*
X7161505Y53439729D01*
X7025965Y53246157D01*
X7025964Y53246155D01*
X6926098Y53031991D01*
X6926094Y53031982D01*
X6864938Y52803740D01*
X6864936Y52803730D01*
X6844341Y52568327D01*
X6844341Y52568326D01*
X6864936Y52332923D01*
X6864938Y52332913D01*
X6926094Y52104671D01*
X6926096Y52104667D01*
X6926097Y52104663D01*
X7025835Y51890774D01*
X7025965Y51890496D01*
X7025967Y51890492D01*
X7134281Y51735805D01*
X7161505Y51696925D01*
X7328599Y51529831D01*
X7425384Y51462061D01*
X7522165Y51394294D01*
X7522167Y51394293D01*
X7522170Y51394291D01*
X7736337Y51294423D01*
X7964592Y51233263D01*
X8152918Y51216787D01*
X8199999Y51212667D01*
X8200000Y51212667D01*
X8200001Y51212667D01*
X8239234Y51216100D01*
X8435408Y51233263D01*
X8663663Y51294423D01*
X8877830Y51394291D01*
X9071401Y51529831D01*
X9096507Y51554937D01*
X73224500Y51554937D01*
X73224500Y51381716D01*
X73251274Y51212667D01*
X73251598Y51210625D01*
X73305127Y51045881D01*
X73383768Y50891538D01*
X73485586Y50751398D01*
X73608072Y50628912D01*
X73608078Y50628908D01*
X73691023Y50568643D01*
X73733689Y50513313D01*
X73739667Y50443700D01*
X73707061Y50381905D01*
X73691023Y50368009D01*
X73608078Y50307745D01*
X73608069Y50307738D01*
X73485588Y50185257D01*
X73485588Y50185256D01*
X73485586Y50185254D01*
X73441859Y50125070D01*
X73383768Y50045115D01*
X73305128Y49890774D01*
X73251597Y49726024D01*
X73224500Y49554937D01*
X73224500Y49381715D01*
X73251598Y49210625D01*
X73305127Y49045881D01*
X73383768Y48891538D01*
X73485586Y48751398D01*
X73608072Y48628912D01*
X73748212Y48527094D01*
X73902555Y48448453D01*
X74067299Y48394924D01*
X74238389Y48367826D01*
X74238390Y48367826D01*
X74961610Y48367826D01*
X74961611Y48367826D01*
X75132701Y48394924D01*
X75297445Y48448453D01*
X75451788Y48527094D01*
X75591928Y48628912D01*
X75714414Y48751398D01*
X75816232Y48891538D01*
X75894873Y49045881D01*
X75948402Y49210625D01*
X75975500Y49381715D01*
X75975500Y49554937D01*
X75948402Y49726027D01*
X75894873Y49890771D01*
X75816232Y50045114D01*
X75714414Y50185254D01*
X75591928Y50307740D01*
X75508975Y50368009D01*
X75466311Y50423338D01*
X75460332Y50492952D01*
X75492938Y50554747D01*
X75508976Y50568644D01*
X75591928Y50628912D01*
X75714414Y50751398D01*
X75816232Y50891538D01*
X75894873Y51045881D01*
X75948402Y51210625D01*
X75975500Y51381715D01*
X75975500Y51554937D01*
X75948402Y51726027D01*
X75894873Y51890771D01*
X75816232Y52045114D01*
X75714414Y52185254D01*
X75606508Y52293160D01*
X75573023Y52354483D01*
X75578007Y52424175D01*
X75619879Y52480108D01*
X75629094Y52486381D01*
X75693345Y52526011D01*
X75817315Y52649981D01*
X75909356Y52799202D01*
X75909358Y52799207D01*
X75964505Y52965629D01*
X75964506Y52965636D01*
X75974999Y53068340D01*
X75975000Y53068353D01*
X75975000Y53218326D01*
X74880330Y53218326D01*
X74900075Y53238071D01*
X74949444Y53323581D01*
X74975000Y53418956D01*
X74975000Y53517696D01*
X74949444Y53613071D01*
X74900075Y53698581D01*
X74880330Y53718326D01*
X75974999Y53718326D01*
X75974999Y53868298D01*
X75974998Y53868313D01*
X75964505Y53971024D01*
X75909358Y54137446D01*
X75909356Y54137451D01*
X75817315Y54286672D01*
X75693345Y54410642D01*
X75544124Y54502683D01*
X75544119Y54502685D01*
X75377697Y54557832D01*
X75377690Y54557833D01*
X75274986Y54568326D01*
X74850000Y54568326D01*
X74850000Y53748656D01*
X74830255Y53768401D01*
X74744745Y53817770D01*
X74649370Y53843326D01*
X74550630Y53843326D01*
X74455255Y53817770D01*
X74369745Y53768401D01*
X74350000Y53748656D01*
X74350000Y54568326D01*
X73925028Y54568326D01*
X73925012Y54568325D01*
X73822302Y54557832D01*
X73655880Y54502685D01*
X73655875Y54502683D01*
X73506654Y54410642D01*
X73382684Y54286672D01*
X73290643Y54137451D01*
X73290641Y54137446D01*
X73235494Y53971024D01*
X73235493Y53971017D01*
X73225000Y53868313D01*
X73225000Y53718326D01*
X74319670Y53718326D01*
X74299925Y53698581D01*
X74250556Y53613071D01*
X74225000Y53517696D01*
X74225000Y53418956D01*
X74250556Y53323581D01*
X74299925Y53238071D01*
X74319670Y53218326D01*
X73225001Y53218326D01*
X73225001Y53068340D01*
X73235494Y52965629D01*
X73290641Y52799207D01*
X73290643Y52799202D01*
X73382684Y52649981D01*
X73506656Y52526009D01*
X73570906Y52486380D01*
X73617631Y52434433D01*
X73628854Y52365470D01*
X73601011Y52301388D01*
X73593492Y52293160D01*
X73485585Y52185253D01*
X73383768Y52045115D01*
X73305128Y51890774D01*
X73251597Y51726024D01*
X73224500Y51554937D01*
X9096507Y51554937D01*
X9238495Y51696925D01*
X9374035Y51890496D01*
X9473903Y52104663D01*
X9535063Y52332918D01*
X9555659Y52568326D01*
X9535063Y52803734D01*
X9473903Y53031989D01*
X9374035Y53246155D01*
X9238495Y53439727D01*
X9238494Y53439729D01*
X9071402Y53606820D01*
X9071396Y53606825D01*
X8885842Y53736751D01*
X8842217Y53791328D01*
X8835023Y53860826D01*
X8866546Y53923181D01*
X8885842Y53939901D01*
X8930290Y53971024D01*
X9071401Y54069831D01*
X9238495Y54236925D01*
X9374035Y54430496D01*
X9473903Y54644663D01*
X9535063Y54872918D01*
X9555659Y55108326D01*
X9535063Y55343734D01*
X9473903Y55571989D01*
X9374035Y55786155D01*
X9238495Y55979727D01*
X9238494Y55979729D01*
X9071402Y56146820D01*
X9071396Y56146825D01*
X8885842Y56276751D01*
X8842217Y56331328D01*
X8835023Y56400826D01*
X8866546Y56463181D01*
X8885842Y56479901D01*
X8908026Y56495435D01*
X9071401Y56609831D01*
X9238495Y56776925D01*
X9374035Y56970496D01*
X9473903Y57184663D01*
X9535063Y57412918D01*
X9555659Y57648326D01*
X9535063Y57883734D01*
X9473903Y58111989D01*
X9374035Y58326155D01*
X9238495Y58519727D01*
X9238494Y58519729D01*
X9071402Y58686820D01*
X9071401Y58686821D01*
X8885405Y58817057D01*
X8841781Y58871634D01*
X8834588Y58941133D01*
X8866110Y59003487D01*
X8885405Y59020207D01*
X9071082Y59150221D01*
X9238105Y59317244D01*
X9373600Y59510748D01*
X9473429Y59724834D01*
X9473432Y59724840D01*
X9530636Y59938326D01*
X8633012Y59938326D01*
X8665925Y59995333D01*
X8700000Y60122500D01*
X8700000Y60254152D01*
X8665925Y60381319D01*
X8633012Y60438326D01*
X9530636Y60438326D01*
X9530635Y60438327D01*
X9473432Y60651813D01*
X9473429Y60651819D01*
X9373600Y60865904D01*
X9373599Y60865906D01*
X9238113Y61059400D01*
X9238108Y61059406D01*
X9071078Y61226436D01*
X8885405Y61356447D01*
X8841780Y61411024D01*
X8834588Y61480522D01*
X8866110Y61542877D01*
X8885406Y61559596D01*
X9071401Y61689831D01*
X9238495Y61856925D01*
X9374035Y62050496D01*
X9473903Y62264663D01*
X9535063Y62492918D01*
X9553734Y62706327D01*
X23544341Y62706327D01*
X23544341Y62706326D01*
X23564936Y62470923D01*
X23564938Y62470913D01*
X23626094Y62242671D01*
X23626096Y62242667D01*
X23626097Y62242663D01*
X23715706Y62050496D01*
X23725965Y62028496D01*
X23725967Y62028492D01*
X23731172Y62021059D01*
X23846100Y61856925D01*
X23861501Y61834931D01*
X23861506Y61834924D01*
X24028597Y61667833D01*
X24028603Y61667828D01*
X24214158Y61537901D01*
X24257783Y61483324D01*
X24264977Y61413826D01*
X24233454Y61351471D01*
X24214158Y61334751D01*
X24028597Y61204821D01*
X23861505Y61037729D01*
X23725965Y60844157D01*
X23725964Y60844155D01*
X23626098Y60629991D01*
X23626094Y60629982D01*
X23564938Y60401740D01*
X23564936Y60401730D01*
X23544341Y60166327D01*
X23544341Y60166326D01*
X23564936Y59930923D01*
X23564938Y59930913D01*
X23626094Y59702671D01*
X23626096Y59702667D01*
X23626097Y59702663D01*
X23715589Y59510748D01*
X23725965Y59488496D01*
X23725967Y59488492D01*
X23801856Y59380112D01*
X23861505Y59294925D01*
X24028599Y59127831D01*
X24125384Y59060061D01*
X24222165Y58992294D01*
X24222167Y58992293D01*
X24222170Y58992291D01*
X24436337Y58892423D01*
X24664592Y58831263D01*
X24826964Y58817057D01*
X24899999Y58810667D01*
X24900000Y58810667D01*
X24900001Y58810667D01*
X24973036Y58817057D01*
X25135408Y58831263D01*
X25363663Y58892423D01*
X25577830Y58992291D01*
X25771401Y59127831D01*
X25938495Y59294925D01*
X26074035Y59488496D01*
X26173903Y59702663D01*
X26230081Y59912326D01*
X27042540Y59912326D01*
X27062326Y59724070D01*
X27062327Y59724067D01*
X27120818Y59544049D01*
X27120821Y59544042D01*
X27215467Y59380110D01*
X27272072Y59317244D01*
X27292650Y59294390D01*
X27322880Y59231399D01*
X27324500Y59211418D01*
X27324500Y58351014D01*
X27304815Y58283975D01*
X27292650Y58268042D01*
X27217466Y58184542D01*
X27122821Y58020611D01*
X27122818Y58020604D01*
X27064327Y57840586D01*
X27064326Y57840582D01*
X27044540Y57652326D01*
X27064326Y57464070D01*
X27064327Y57464067D01*
X27122818Y57284049D01*
X27122821Y57284042D01*
X27217467Y57120110D01*
X27240876Y57094112D01*
X27344129Y56979438D01*
X27497265Y56868178D01*
X27497270Y56868175D01*
X27670192Y56791184D01*
X27670197Y56791182D01*
X27855354Y56751826D01*
X27855355Y56751826D01*
X28044644Y56751826D01*
X28044646Y56751826D01*
X28229803Y56791182D01*
X28382440Y56859142D01*
X28451687Y56868427D01*
X28505760Y56846180D01*
X28511272Y56842175D01*
X28684194Y56765184D01*
X28684199Y56765182D01*
X28869356Y56725826D01*
X28869357Y56725826D01*
X29058646Y56725826D01*
X29058648Y56725826D01*
X29243805Y56765182D01*
X29416732Y56842175D01*
X29569873Y56953438D01*
X29696535Y57094110D01*
X29791181Y57258042D01*
X29849676Y57438070D01*
X29869462Y57626326D01*
X29849676Y57814582D01*
X29791181Y57994610D01*
X29696535Y58158542D01*
X29621354Y58242039D01*
X29591124Y58305030D01*
X29589504Y58325011D01*
X29589504Y58855978D01*
X29609189Y58923017D01*
X29661993Y58968772D01*
X29731151Y58978716D01*
X29787813Y58955246D01*
X29878265Y58887533D01*
X29878268Y58887531D01*
X29878271Y58887529D01*
X30013117Y58837235D01*
X30013116Y58837235D01*
X30020044Y58836491D01*
X30072727Y58830826D01*
X31868472Y58830827D01*
X31928083Y58837235D01*
X32062931Y58887530D01*
X32178146Y58973780D01*
X32264396Y59088995D01*
X32314691Y59223843D01*
X32321100Y59283453D01*
X32321099Y61079198D01*
X32314691Y61138809D01*
X32313639Y61141629D01*
X32264397Y61273655D01*
X32264393Y61273662D01*
X32193526Y61368328D01*
X51194532Y61368328D01*
X51194532Y61368325D01*
X51214364Y61141640D01*
X51214366Y61141629D01*
X51273258Y60921838D01*
X51273261Y60921829D01*
X51369431Y60715594D01*
X51369432Y60715592D01*
X51499954Y60529185D01*
X51660858Y60368281D01*
X51660861Y60368279D01*
X51847266Y60237758D01*
X52053504Y60141587D01*
X52273308Y60082691D01*
X52435230Y60068525D01*
X52499998Y60062858D01*
X52500000Y60062858D01*
X52500002Y60062858D01*
X52556673Y60067817D01*
X52726692Y60082691D01*
X52946496Y60141587D01*
X53152734Y60237758D01*
X53339139Y60368279D01*
X53412320Y60441461D01*
X53473641Y60474944D01*
X53543333Y60469960D01*
X53587679Y60441461D01*
X53660861Y60368279D01*
X53847266Y60237758D01*
X54053504Y60141587D01*
X54273308Y60082691D01*
X54435230Y60068525D01*
X54499998Y60062858D01*
X54500000Y60062858D01*
X54500002Y60062858D01*
X54556673Y60067817D01*
X54726692Y60082691D01*
X54946496Y60141587D01*
X55152734Y60237758D01*
X55339139Y60368279D01*
X55412320Y60441461D01*
X55473641Y60474944D01*
X55543333Y60469960D01*
X55587679Y60441461D01*
X55660861Y60368279D01*
X55847266Y60237758D01*
X56053504Y60141587D01*
X56273308Y60082691D01*
X56435230Y60068525D01*
X56499998Y60062858D01*
X56500000Y60062858D01*
X56500002Y60062858D01*
X56556673Y60067817D01*
X56726692Y60082691D01*
X56946496Y60141587D01*
X57152734Y60237758D01*
X57339139Y60368279D01*
X57412320Y60441461D01*
X57473641Y60474944D01*
X57543333Y60469960D01*
X57587679Y60441461D01*
X57660861Y60368279D01*
X57847266Y60237758D01*
X58053504Y60141587D01*
X58273308Y60082691D01*
X58435230Y60068525D01*
X58499998Y60062858D01*
X58500000Y60062858D01*
X58500002Y60062858D01*
X58556673Y60067817D01*
X58726692Y60082691D01*
X58946496Y60141587D01*
X59152734Y60237758D01*
X59339139Y60368279D01*
X59412320Y60441461D01*
X59473641Y60474944D01*
X59543333Y60469960D01*
X59587679Y60441461D01*
X59660861Y60368279D01*
X59847266Y60237758D01*
X60053504Y60141587D01*
X60273308Y60082691D01*
X60435230Y60068525D01*
X60499998Y60062858D01*
X60500000Y60062858D01*
X60500002Y60062858D01*
X60556673Y60067817D01*
X60726692Y60082691D01*
X60946496Y60141587D01*
X61152734Y60237758D01*
X61339139Y60368279D01*
X61412320Y60441461D01*
X61473641Y60474944D01*
X61543333Y60469960D01*
X61587679Y60441461D01*
X61660861Y60368279D01*
X61847266Y60237758D01*
X62053504Y60141587D01*
X62273308Y60082691D01*
X62435230Y60068525D01*
X62499998Y60062858D01*
X62500000Y60062858D01*
X62500002Y60062858D01*
X62556673Y60067817D01*
X62726692Y60082691D01*
X62946496Y60141587D01*
X63152734Y60237758D01*
X63339139Y60368279D01*
X63412674Y60441815D01*
X63473995Y60475298D01*
X63543687Y60470314D01*
X63588035Y60441813D01*
X63661179Y60368669D01*
X63847517Y60238192D01*
X64053673Y60142061D01*
X64053682Y60142057D01*
X64249999Y60089454D01*
X64250000Y60089455D01*
X64250000Y60993049D01*
X64326306Y60948993D01*
X64440756Y60918326D01*
X64559244Y60918326D01*
X64673694Y60948993D01*
X64750000Y60993049D01*
X64750000Y60089454D01*
X64946317Y60142057D01*
X64946326Y60142061D01*
X65152482Y60238192D01*
X65338816Y60368666D01*
X65411963Y60441813D01*
X65473286Y60475298D01*
X65542978Y60470314D01*
X65587326Y60441813D01*
X65660858Y60368281D01*
X65660861Y60368279D01*
X65847266Y60237758D01*
X66053504Y60141587D01*
X66273308Y60082691D01*
X66435230Y60068525D01*
X66499998Y60062858D01*
X66500000Y60062858D01*
X66500002Y60062858D01*
X66556673Y60067817D01*
X66726692Y60082691D01*
X66946496Y60141587D01*
X67152734Y60237758D01*
X67339139Y60368279D01*
X67500047Y60529187D01*
X67630568Y60715592D01*
X67726739Y60921830D01*
X67785635Y61141634D01*
X67805468Y61368326D01*
X67803670Y61388872D01*
X67796125Y61475120D01*
X67785635Y61595018D01*
X67726739Y61814822D01*
X67630568Y62021060D01*
X67500047Y62207465D01*
X67500045Y62207468D01*
X67339141Y62368372D01*
X67152734Y62498894D01*
X67152732Y62498895D01*
X66946497Y62595065D01*
X66946488Y62595068D01*
X66726697Y62653960D01*
X66726693Y62653961D01*
X66726692Y62653961D01*
X66726691Y62653962D01*
X66726686Y62653962D01*
X66500002Y62673794D01*
X66499998Y62673794D01*
X66273313Y62653962D01*
X66273302Y62653960D01*
X66053511Y62595068D01*
X66053502Y62595065D01*
X65847267Y62498895D01*
X65847265Y62498894D01*
X65660862Y62368375D01*
X65587326Y62294839D01*
X65526002Y62261355D01*
X65456311Y62266340D01*
X65411964Y62294840D01*
X65338820Y62367984D01*
X65152482Y62498461D01*
X64946328Y62594592D01*
X64750000Y62647199D01*
X64750000Y61743604D01*
X64673694Y61787659D01*
X64559244Y61818326D01*
X64440756Y61818326D01*
X64326306Y61787659D01*
X64250000Y61743604D01*
X64250000Y62647199D01*
X64053671Y62594592D01*
X63847517Y62498461D01*
X63661182Y62367987D01*
X63588035Y62294839D01*
X63526711Y62261355D01*
X63457020Y62266340D01*
X63412673Y62294840D01*
X63339141Y62368372D01*
X63152734Y62498894D01*
X63152732Y62498895D01*
X62946497Y62595065D01*
X62946488Y62595068D01*
X62726697Y62653960D01*
X62726693Y62653961D01*
X62726692Y62653961D01*
X62726691Y62653962D01*
X62726686Y62653962D01*
X62500002Y62673794D01*
X62499998Y62673794D01*
X62273313Y62653962D01*
X62273302Y62653960D01*
X62053511Y62595068D01*
X62053502Y62595065D01*
X61847267Y62498895D01*
X61847265Y62498894D01*
X61660858Y62368372D01*
X61587681Y62295194D01*
X61526358Y62261709D01*
X61456666Y62266693D01*
X61412319Y62295194D01*
X61339141Y62368372D01*
X61152734Y62498894D01*
X61152732Y62498895D01*
X60946497Y62595065D01*
X60946488Y62595068D01*
X60726697Y62653960D01*
X60726693Y62653961D01*
X60726692Y62653961D01*
X60726691Y62653962D01*
X60726686Y62653962D01*
X60500002Y62673794D01*
X60499998Y62673794D01*
X60273313Y62653962D01*
X60273302Y62653960D01*
X60053511Y62595068D01*
X60053502Y62595065D01*
X59847267Y62498895D01*
X59847265Y62498894D01*
X59660858Y62368372D01*
X59587681Y62295194D01*
X59526358Y62261709D01*
X59456666Y62266693D01*
X59412319Y62295194D01*
X59339141Y62368372D01*
X59152734Y62498894D01*
X59152732Y62498895D01*
X58946497Y62595065D01*
X58946488Y62595068D01*
X58726697Y62653960D01*
X58726693Y62653961D01*
X58726692Y62653961D01*
X58726691Y62653962D01*
X58726686Y62653962D01*
X58500002Y62673794D01*
X58499998Y62673794D01*
X58273313Y62653962D01*
X58273302Y62653960D01*
X58053511Y62595068D01*
X58053502Y62595065D01*
X57847267Y62498895D01*
X57847265Y62498894D01*
X57660858Y62368372D01*
X57587681Y62295194D01*
X57526358Y62261709D01*
X57456666Y62266693D01*
X57412319Y62295194D01*
X57339141Y62368372D01*
X57152734Y62498894D01*
X57152732Y62498895D01*
X56946497Y62595065D01*
X56946488Y62595068D01*
X56726697Y62653960D01*
X56726693Y62653961D01*
X56726692Y62653961D01*
X56726691Y62653962D01*
X56726686Y62653962D01*
X56500002Y62673794D01*
X56499998Y62673794D01*
X56273313Y62653962D01*
X56273302Y62653960D01*
X56053511Y62595068D01*
X56053502Y62595065D01*
X55847267Y62498895D01*
X55847265Y62498894D01*
X55660858Y62368372D01*
X55587681Y62295194D01*
X55526358Y62261709D01*
X55456666Y62266693D01*
X55412319Y62295194D01*
X55339141Y62368372D01*
X55152734Y62498894D01*
X55152732Y62498895D01*
X54946497Y62595065D01*
X54946488Y62595068D01*
X54726697Y62653960D01*
X54726693Y62653961D01*
X54726692Y62653961D01*
X54726691Y62653962D01*
X54726686Y62653962D01*
X54500002Y62673794D01*
X54499998Y62673794D01*
X54273313Y62653962D01*
X54273302Y62653960D01*
X54053511Y62595068D01*
X54053502Y62595065D01*
X53847267Y62498895D01*
X53847265Y62498894D01*
X53660858Y62368372D01*
X53587681Y62295194D01*
X53526358Y62261709D01*
X53456666Y62266693D01*
X53412319Y62295194D01*
X53339141Y62368372D01*
X53152734Y62498894D01*
X53152732Y62498895D01*
X52946497Y62595065D01*
X52946488Y62595068D01*
X52726697Y62653960D01*
X52726693Y62653961D01*
X52726692Y62653961D01*
X52726691Y62653962D01*
X52726686Y62653962D01*
X52500002Y62673794D01*
X52499998Y62673794D01*
X52273313Y62653962D01*
X52273302Y62653960D01*
X52053511Y62595068D01*
X52053502Y62595065D01*
X51847267Y62498895D01*
X51847265Y62498894D01*
X51660858Y62368372D01*
X51499954Y62207468D01*
X51369432Y62021061D01*
X51369431Y62021059D01*
X51273261Y61814824D01*
X51273258Y61814815D01*
X51214366Y61595024D01*
X51214364Y61595013D01*
X51194532Y61368328D01*
X32193526Y61368328D01*
X32178147Y61388871D01*
X32178144Y61388874D01*
X32062935Y61475120D01*
X32062928Y61475124D01*
X31931517Y61524137D01*
X31875583Y61566008D01*
X31851166Y61631473D01*
X31866018Y61699746D01*
X31887163Y61727994D01*
X32009095Y61849925D01*
X32144635Y62043496D01*
X32244503Y62257663D01*
X32305663Y62485918D01*
X32326259Y62721326D01*
X32325646Y62728327D01*
X32322139Y62768408D01*
X32305663Y62956734D01*
X32244503Y63184989D01*
X32144635Y63399155D01*
X32139733Y63406157D01*
X32009094Y63592729D01*
X31842002Y63759820D01*
X31841996Y63759825D01*
X31656442Y63889751D01*
X31612817Y63944328D01*
X31605623Y64013826D01*
X31637146Y64076181D01*
X31656442Y64092901D01*
X31744043Y64154240D01*
X31842001Y64222831D01*
X32009095Y64389925D01*
X32144635Y64583496D01*
X32244503Y64797663D01*
X32305663Y65025918D01*
X32326259Y65261326D01*
X32305663Y65496734D01*
X32244503Y65724989D01*
X32144635Y65939155D01*
X32009095Y66132727D01*
X32009094Y66132729D01*
X31842002Y66299820D01*
X31841995Y66299825D01*
X31648434Y66435359D01*
X31648430Y66435361D01*
X31609494Y66453517D01*
X31434263Y66535229D01*
X31434259Y66535230D01*
X31434255Y66535232D01*
X31206013Y66596388D01*
X31206003Y66596390D01*
X30970601Y66616985D01*
X30970599Y66616985D01*
X30735196Y66596390D01*
X30735186Y66596388D01*
X30506944Y66535232D01*
X30506935Y66535228D01*
X30292771Y66435362D01*
X30292769Y66435361D01*
X30099197Y66299821D01*
X29932105Y66132729D01*
X29796565Y65939157D01*
X29796564Y65939155D01*
X29696698Y65724991D01*
X29696694Y65724982D01*
X29635538Y65496740D01*
X29635536Y65496730D01*
X29614941Y65261327D01*
X29614941Y65261326D01*
X29635536Y65025923D01*
X29635538Y65025913D01*
X29696694Y64797671D01*
X29696696Y64797667D01*
X29696697Y64797663D01*
X29720636Y64746326D01*
X29796565Y64583496D01*
X29796567Y64583492D01*
X29932101Y64389931D01*
X29932106Y64389924D01*
X30099197Y64222833D01*
X30099203Y64222828D01*
X30284758Y64092901D01*
X30328383Y64038324D01*
X30335577Y63968826D01*
X30304054Y63906471D01*
X30284758Y63889751D01*
X30099197Y63759821D01*
X29932105Y63592729D01*
X29796565Y63399157D01*
X29796564Y63399155D01*
X29696698Y63184991D01*
X29696694Y63184982D01*
X29635538Y62956740D01*
X29635536Y62956730D01*
X29614941Y62721327D01*
X29614941Y62721326D01*
X29635536Y62485923D01*
X29635538Y62485913D01*
X29696694Y62257671D01*
X29696696Y62257667D01*
X29696697Y62257663D01*
X29720105Y62207465D01*
X29796565Y62043496D01*
X29796567Y62043492D01*
X29904881Y61888805D01*
X29932101Y61849930D01*
X29932106Y61849924D01*
X30054030Y61728000D01*
X30087515Y61666677D01*
X30082531Y61596985D01*
X30040659Y61541052D01*
X30009683Y61524137D01*
X29878269Y61475123D01*
X29878264Y61475120D01*
X29763055Y61388874D01*
X29763052Y61388871D01*
X29676806Y61273662D01*
X29676802Y61273655D01*
X29626508Y61138809D01*
X29621478Y61092020D01*
X29620101Y61079203D01*
X29620100Y61079191D01*
X29620100Y60792087D01*
X29600415Y60725048D01*
X29547611Y60679293D01*
X29478453Y60669349D01*
X29423216Y60691768D01*
X29416737Y60696476D01*
X29416733Y60696478D01*
X29243811Y60773469D01*
X29243806Y60773471D01*
X29098005Y60804461D01*
X29058650Y60812826D01*
X28869358Y60812826D01*
X28836901Y60805928D01*
X28684201Y60773471D01*
X28684196Y60773469D01*
X28506438Y60694324D01*
X28437188Y60685039D01*
X28405566Y60694324D01*
X28227807Y60773469D01*
X28227802Y60773471D01*
X28082001Y60804461D01*
X28042646Y60812826D01*
X27853354Y60812826D01*
X27820897Y60805928D01*
X27668197Y60773471D01*
X27668192Y60773469D01*
X27495270Y60696478D01*
X27495265Y60696475D01*
X27342129Y60585215D01*
X27215466Y60444541D01*
X27120821Y60280611D01*
X27120818Y60280604D01*
X27062327Y60100586D01*
X27062326Y60100582D01*
X27042540Y59912326D01*
X26230081Y59912326D01*
X26235063Y59930918D01*
X26255659Y60166326D01*
X26235063Y60401734D01*
X26173903Y60629989D01*
X26074035Y60844155D01*
X26058807Y60865904D01*
X25938494Y61037729D01*
X25771402Y61204820D01*
X25771396Y61204825D01*
X25585842Y61334751D01*
X25542217Y61389328D01*
X25535023Y61458826D01*
X25566546Y61521181D01*
X25585842Y61537901D01*
X25667422Y61595024D01*
X25771401Y61667831D01*
X25938495Y61834925D01*
X26074035Y62028496D01*
X26173903Y62242663D01*
X26235063Y62470918D01*
X26255659Y62706326D01*
X26235063Y62941734D01*
X26173903Y63169989D01*
X26074035Y63384155D01*
X26058630Y63406155D01*
X25938496Y63577726D01*
X25916495Y63599727D01*
X25816179Y63700043D01*
X25782696Y63761363D01*
X25787680Y63831055D01*
X25829551Y63886989D01*
X25860529Y63903904D01*
X25992086Y63952972D01*
X25992093Y63952976D01*
X26107187Y64039136D01*
X26107190Y64039139D01*
X26193350Y64154233D01*
X26193354Y64154240D01*
X26243596Y64288947D01*
X26243598Y64288954D01*
X26249999Y64348482D01*
X26250000Y64348499D01*
X26250000Y64996326D01*
X25333012Y64996326D01*
X25365925Y65053333D01*
X25400000Y65180500D01*
X25400000Y65312152D01*
X25365925Y65439319D01*
X25333012Y65496326D01*
X26250000Y65496326D01*
X26250000Y66144154D01*
X26249999Y66144171D01*
X26243598Y66203699D01*
X26243596Y66203706D01*
X26193354Y66338413D01*
X26193350Y66338420D01*
X26107190Y66453514D01*
X26107187Y66453517D01*
X25992093Y66539677D01*
X25992086Y66539681D01*
X25857379Y66589923D01*
X25857372Y66589925D01*
X25797844Y66596326D01*
X25150000Y66596326D01*
X25150000Y65679338D01*
X25092993Y65712251D01*
X24965826Y65746326D01*
X24834174Y65746326D01*
X24707007Y65712251D01*
X24650000Y65679338D01*
X24650000Y66596326D01*
X24002155Y66596326D01*
X23942627Y66589925D01*
X23942620Y66589923D01*
X23807913Y66539681D01*
X23807906Y66539677D01*
X23692812Y66453517D01*
X23692809Y66453514D01*
X23606649Y66338420D01*
X23606645Y66338413D01*
X23556403Y66203706D01*
X23556401Y66203699D01*
X23550000Y66144171D01*
X23550000Y65496326D01*
X24466988Y65496326D01*
X24434075Y65439319D01*
X24400000Y65312152D01*
X24400000Y65180500D01*
X24434075Y65053333D01*
X24466988Y64996326D01*
X23550000Y64996326D01*
X23550000Y64348482D01*
X23556401Y64288954D01*
X23556403Y64288947D01*
X23606645Y64154240D01*
X23606649Y64154233D01*
X23692809Y64039139D01*
X23692812Y64039136D01*
X23807906Y63952976D01*
X23807913Y63952972D01*
X23939470Y63903905D01*
X23995403Y63862034D01*
X24019821Y63796570D01*
X24004970Y63728297D01*
X23983819Y63700042D01*
X23861503Y63577726D01*
X23725965Y63384157D01*
X23725964Y63384155D01*
X23626098Y63169991D01*
X23626094Y63169982D01*
X23564938Y62941740D01*
X23564936Y62941730D01*
X23544341Y62706327D01*
X9553734Y62706327D01*
X9555659Y62728326D01*
X9535063Y62963734D01*
X9479797Y63169991D01*
X9473905Y63191982D01*
X9473904Y63191983D01*
X9473903Y63191989D01*
X9374035Y63406155D01*
X9253900Y63577726D01*
X9238496Y63599726D01*
X9238495Y63599727D01*
X9116567Y63721655D01*
X9083084Y63782975D01*
X9088068Y63852667D01*
X9129939Y63908601D01*
X9160915Y63925516D01*
X9292331Y63974530D01*
X9407546Y64060780D01*
X9493796Y64175995D01*
X9544091Y64310843D01*
X9550500Y64370453D01*
X9550499Y66166198D01*
X9544091Y66225809D01*
X9516486Y66299821D01*
X9493797Y66360655D01*
X9493793Y66360662D01*
X9407547Y66475871D01*
X9407544Y66475874D01*
X9292335Y66562120D01*
X9292328Y66562124D01*
X9157482Y66612418D01*
X9157483Y66612418D01*
X9097883Y66618825D01*
X9097881Y66618826D01*
X9097873Y66618826D01*
X9097864Y66618826D01*
X7302129Y66618826D01*
X7302123Y66618825D01*
X7242516Y66612418D01*
X7107671Y66562124D01*
X7107664Y66562120D01*
X6992455Y66475874D01*
X6992452Y66475871D01*
X6906206Y66360662D01*
X6906202Y66360655D01*
X6855908Y66225809D01*
X6849501Y66166210D01*
X6849501Y66166203D01*
X6849500Y66166191D01*
X6849500Y64370456D01*
X6849501Y64370450D01*
X6855908Y64310843D01*
X6906202Y64175998D01*
X6906206Y64175991D01*
X6992452Y64060782D01*
X6992455Y64060779D01*
X7107664Y63974533D01*
X7107671Y63974529D01*
X7239081Y63925516D01*
X7295015Y63883645D01*
X7319432Y63818181D01*
X7304580Y63749908D01*
X7283430Y63721653D01*
X7161503Y63599726D01*
X7025965Y63406157D01*
X7025964Y63406155D01*
X6926098Y63191991D01*
X6926094Y63191982D01*
X6864938Y62963740D01*
X6864936Y62963730D01*
X6844341Y62728327D01*
X0Y62728327D01*
X0Y67968332D01*
X64994357Y67968332D01*
X64994357Y67968321D01*
X65014890Y67720514D01*
X65014892Y67720502D01*
X65075936Y67479445D01*
X65175826Y67251720D01*
X65311833Y67043544D01*
X65311836Y67043541D01*
X65480256Y66860588D01*
X65676491Y66707852D01*
X65676493Y66707851D01*
X65882456Y66596389D01*
X65895190Y66589498D01*
X66130386Y66508755D01*
X66375665Y66467826D01*
X66624335Y66467826D01*
X66869614Y66508755D01*
X67104810Y66589498D01*
X67323509Y66707852D01*
X67519744Y66860588D01*
X67688164Y67043541D01*
X67824173Y67251719D01*
X67924063Y67479445D01*
X67985108Y67720505D01*
X68005643Y67968326D01*
X67985108Y68216147D01*
X67924063Y68457207D01*
X67824173Y68684933D01*
X67688166Y68893109D01*
X67666557Y68916582D01*
X67519744Y69076064D01*
X67323509Y69228800D01*
X67323507Y69228801D01*
X67323506Y69228802D01*
X67104811Y69347154D01*
X67104802Y69347157D01*
X66869616Y69427897D01*
X66624335Y69468826D01*
X66375665Y69468826D01*
X66130383Y69427897D01*
X65895197Y69347157D01*
X65895188Y69347154D01*
X65676493Y69228802D01*
X65480257Y69076065D01*
X65311833Y68893109D01*
X65175826Y68684933D01*
X65075936Y68457208D01*
X65014892Y68216151D01*
X65014890Y68216139D01*
X64994357Y67968332D01*
X0Y67968332D01*
X0Y74801327D01*
X794922Y74801327D01*
X794922Y74801326D01*
X815219Y74414039D01*
X875886Y74031003D01*
X875887Y74030996D01*
X976262Y73656390D01*
X1115244Y73294332D01*
X1291310Y72948783D01*
X1502531Y72623533D01*
X1711095Y72365976D01*
X1711096Y72365976D01*
X3205748Y73860628D01*
X3279588Y73758996D01*
X3457670Y73580914D01*
X3559300Y73507075D01*
X2064648Y72012423D01*
X2064649Y72012422D01*
X2322206Y71803858D01*
X2647456Y71592637D01*
X2993005Y71416571D01*
X3355063Y71277589D01*
X3729669Y71177214D01*
X3729676Y71177213D01*
X4112712Y71116546D01*
X4499999Y71096248D01*
X4500001Y71096248D01*
X4887287Y71116546D01*
X5270323Y71177213D01*
X5270330Y71177214D01*
X5644936Y71277589D01*
X6006994Y71416571D01*
X6352543Y71592637D01*
X6677783Y71803850D01*
X6677785Y71803851D01*
X6935349Y72012424D01*
X5440698Y73507075D01*
X5542330Y73580914D01*
X5720412Y73758996D01*
X5794251Y73860628D01*
X7288902Y72365977D01*
X7497475Y72623541D01*
X7497476Y72623543D01*
X7708689Y72948783D01*
X7884755Y73294332D01*
X8023737Y73656390D01*
X8124112Y74030996D01*
X8124113Y74031003D01*
X8184780Y74414039D01*
X8205078Y74801326D01*
X8205078Y74801327D01*
X70794922Y74801327D01*
X70794922Y74801326D01*
X70815219Y74414039D01*
X70875886Y74031003D01*
X70875887Y74030996D01*
X70976262Y73656390D01*
X71115244Y73294332D01*
X71291310Y72948783D01*
X71502531Y72623533D01*
X71711095Y72365976D01*
X71711096Y72365976D01*
X73205748Y73860628D01*
X73279588Y73758996D01*
X73457670Y73580914D01*
X73559300Y73507075D01*
X72064648Y72012423D01*
X72064649Y72012422D01*
X72322206Y71803858D01*
X72647456Y71592637D01*
X72993005Y71416571D01*
X73355063Y71277589D01*
X73729669Y71177214D01*
X73729676Y71177213D01*
X74112712Y71116546D01*
X74499999Y71096248D01*
X74500001Y71096248D01*
X74887287Y71116546D01*
X75270323Y71177213D01*
X75270330Y71177214D01*
X75644936Y71277589D01*
X76006994Y71416571D01*
X76352543Y71592637D01*
X76677783Y71803850D01*
X76677785Y71803851D01*
X76935349Y72012424D01*
X75440698Y73507075D01*
X75542330Y73580914D01*
X75720412Y73758996D01*
X75794251Y73860628D01*
X77288902Y72365977D01*
X77497475Y72623541D01*
X77497476Y72623543D01*
X77708689Y72948783D01*
X77884755Y73294332D01*
X78023737Y73656390D01*
X78124112Y74030996D01*
X78124113Y74031003D01*
X78184780Y74414039D01*
X78205078Y74801326D01*
X78205078Y74801327D01*
X78184780Y75188614D01*
X78124113Y75571650D01*
X78124112Y75571657D01*
X78023737Y75946263D01*
X77884755Y76308321D01*
X77708689Y76653870D01*
X77497468Y76979120D01*
X77288904Y77236677D01*
X77288903Y77236678D01*
X75794251Y75742026D01*
X75720412Y75843656D01*
X75542330Y76021738D01*
X75440698Y76095578D01*
X76935350Y77590230D01*
X76935350Y77590231D01*
X76677793Y77798795D01*
X76352543Y78010016D01*
X76006994Y78186082D01*
X75644936Y78325064D01*
X75270330Y78425439D01*
X75270323Y78425440D01*
X74887287Y78486107D01*
X74500001Y78506404D01*
X74499999Y78506404D01*
X74112712Y78486107D01*
X73729676Y78425440D01*
X73729669Y78425439D01*
X73355063Y78325064D01*
X72993005Y78186082D01*
X72647456Y78010016D01*
X72322206Y77798795D01*
X72064648Y77590231D01*
X72064648Y77590230D01*
X73559301Y76095578D01*
X73457670Y76021738D01*
X73279588Y75843656D01*
X73205748Y75742026D01*
X71711096Y77236678D01*
X71711095Y77236678D01*
X71502531Y76979120D01*
X71291310Y76653870D01*
X71115244Y76308321D01*
X70976262Y75946263D01*
X70875887Y75571657D01*
X70875886Y75571650D01*
X70815219Y75188614D01*
X70794922Y74801327D01*
X8205078Y74801327D01*
X8184780Y75188614D01*
X8124113Y75571650D01*
X8124112Y75571657D01*
X8023737Y75946263D01*
X7884755Y76308321D01*
X7708689Y76653870D01*
X7497468Y76979120D01*
X7288904Y77236677D01*
X7288903Y77236678D01*
X5794251Y75742026D01*
X5720412Y75843656D01*
X5542330Y76021738D01*
X5440698Y76095578D01*
X6935350Y77590230D01*
X6935350Y77590231D01*
X6677793Y77798795D01*
X6352543Y78010016D01*
X6006994Y78186082D01*
X5644936Y78325064D01*
X5270330Y78425439D01*
X5270323Y78425440D01*
X4887287Y78486107D01*
X4500001Y78506404D01*
X4499999Y78506404D01*
X4112712Y78486107D01*
X3729676Y78425440D01*
X3729669Y78425439D01*
X3355063Y78325064D01*
X2993005Y78186082D01*
X2647456Y78010016D01*
X2322206Y77798795D01*
X2064648Y77590231D01*
X2064648Y77590230D01*
X3559301Y76095578D01*
X3457670Y76021738D01*
X3279588Y75843656D01*
X3205748Y75742026D01*
X1711096Y77236678D01*
X1711095Y77236678D01*
X1502531Y76979120D01*
X1291310Y76653870D01*
X1115244Y76308321D01*
X976262Y75946263D01*
X875887Y75571657D01*
X875886Y75571650D01*
X815219Y75188614D01*
X794922Y74801327D01*
X0Y74801327D01*
X0Y79278488D01*
X19685Y79345527D01*
X72489Y79391282D01*
X124160Y79402488D01*
X79276166Y79297512D01*
G37*
%TD.AperFunction*%
%TD*%
M02*
