%TF.GenerationSoftware,KiCad,Pcbnew,8.0.4*%
%TF.CreationDate,2024-08-31T15:47:31-07:00*%
%TF.ProjectId,aunisoma-panel-controller,61756e69-736f-46d6-912d-70616e656c2d,rev?*%
%TF.SameCoordinates,Original*%
%TF.FileFunction,Soldermask,Bot*%
%TF.FilePolarity,Negative*%
%FSLAX46Y46*%
G04 Gerber Fmt 4.6, Leading zero omitted, Abs format (unit mm)*
G04 Created by KiCad (PCBNEW 8.0.4) date 2024-08-31 15:47:31*
%MOMM*%
%LPD*%
G01*
G04 APERTURE LIST*
G04 Aperture macros list*
%AMRoundRect*
0 Rectangle with rounded corners*
0 $1 Rounding radius*
0 $2 $3 $4 $5 $6 $7 $8 $9 X,Y pos of 4 corners*
0 Add a 4 corners polygon primitive as box body*
4,1,4,$2,$3,$4,$5,$6,$7,$8,$9,$2,$3,0*
0 Add four circle primitives for the rounded corners*
1,1,$1+$1,$2,$3*
1,1,$1+$1,$4,$5*
1,1,$1+$1,$6,$7*
1,1,$1+$1,$8,$9*
0 Add four rect primitives between the rounded corners*
20,1,$1+$1,$2,$3,$4,$5,0*
20,1,$1+$1,$4,$5,$6,$7,0*
20,1,$1+$1,$6,$7,$8,$9,0*
20,1,$1+$1,$8,$9,$2,$3,0*%
G04 Aperture macros list end*
%ADD10C,0.800000*%
%ADD11C,6.400000*%
%ADD12C,2.000000*%
%ADD13RoundRect,0.250000X-0.625000X0.350000X-0.625000X-0.350000X0.625000X-0.350000X0.625000X0.350000X0*%
%ADD14O,1.750000X1.200000*%
%ADD15R,1.700000X1.700000*%
%ADD16O,1.700000X1.700000*%
%ADD17C,0.900000*%
%ADD18C,0.500000*%
G04 APERTURE END LIST*
D10*
%TO.C,H2*%
X2100000Y4801326D03*
X2802944Y6498382D03*
X2802944Y3104270D03*
X4500000Y7201326D03*
D11*
X4500000Y4801326D03*
D10*
X4500000Y2401326D03*
X6197056Y6498382D03*
X6197056Y3104270D03*
X6900000Y4801326D03*
%TD*%
D12*
%TO.C,X1*%
X66500000Y67968326D03*
%TD*%
D13*
%TO.C,J7*%
X74600000Y31268326D03*
D14*
X74600000Y29268326D03*
X74600000Y27268326D03*
X74600000Y25268326D03*
X74600000Y23268326D03*
%TD*%
D15*
%TO.C,J3*%
X30970600Y60181326D03*
D16*
X30970600Y62721326D03*
X30970600Y65261326D03*
%TD*%
D15*
%TO.C,J2*%
X24900000Y65246326D03*
D16*
X24900000Y62706326D03*
X24900000Y60166326D03*
%TD*%
D13*
%TO.C,J5*%
X74600000Y53468326D03*
D14*
X74600000Y51468326D03*
X74600000Y49468326D03*
%TD*%
D15*
%TO.C,J1*%
X8200000Y65268326D03*
D16*
X8200000Y62728326D03*
X8200000Y60188326D03*
X8200000Y57648326D03*
X8200000Y55108326D03*
X8200000Y52568326D03*
%TD*%
D17*
%TO.C,SW2*%
X17850000Y44208326D03*
X14850000Y44208326D03*
%TD*%
D10*
%TO.C,H3*%
X72100000Y74801326D03*
X72802944Y76498382D03*
X72802944Y73104270D03*
X74500000Y77201326D03*
D11*
X74500000Y74801326D03*
D10*
X74500000Y72401326D03*
X76197056Y76498382D03*
X76197056Y73104270D03*
X76900000Y74801326D03*
%TD*%
%TO.C,H4*%
X72100000Y4801326D03*
X72802944Y6498382D03*
X72802944Y3104270D03*
X74500000Y7201326D03*
D11*
X74500000Y4801326D03*
D10*
X74500000Y2401326D03*
X76197056Y6498382D03*
X76197056Y3104270D03*
X76900000Y4801326D03*
%TD*%
D13*
%TO.C,J6*%
X74600000Y42368326D03*
D14*
X74600000Y40368326D03*
X74600000Y38368326D03*
%TD*%
D10*
%TO.C,H1*%
X2100000Y74801326D03*
X2802944Y76498382D03*
X2802944Y73104270D03*
X4500000Y77201326D03*
D11*
X4500000Y74801326D03*
D10*
X4500000Y72401326D03*
X6197056Y76498382D03*
X6197056Y73104270D03*
X6900000Y74801326D03*
%TD*%
X45400000Y33068326D03*
X51500000Y33068326D03*
X48265000Y17768326D03*
X46600000Y17768326D03*
X46175000Y26268326D03*
X48250000Y26268326D03*
X34500000Y46068326D03*
X33004267Y48201325D03*
X48255000Y34968326D03*
X45400000Y34968326D03*
X70000000Y37943326D03*
D18*
X17200000Y18568326D03*
D10*
X22175000Y47668326D03*
X31015000Y48468326D03*
X75600000Y61268326D03*
X18600000Y46868326D03*
D18*
X12100000Y22268326D03*
D10*
X28500000Y53701326D03*
X33100000Y38768326D03*
X60250000Y66250000D03*
D18*
X15500000Y26368326D03*
D10*
X33000000Y52668326D03*
X48550000Y21385826D03*
X56550000Y16465826D03*
X55050000Y34165826D03*
D18*
X15500000Y21568326D03*
D10*
X36250000Y74418326D03*
D18*
X10000000Y24000000D03*
D10*
X59150000Y16465826D03*
X27500000Y43768326D03*
X25500000Y54868326D03*
D18*
X15500000Y20768326D03*
D10*
X73600000Y65868326D03*
X70000000Y49143326D03*
D18*
X14250000Y26368326D03*
D10*
X55050000Y25365826D03*
X34200000Y55848326D03*
X33250000Y74318326D03*
X73600000Y61268326D03*
X27525000Y49168326D03*
D18*
X13100000Y22268326D03*
D10*
X39250000Y74418326D03*
X59150000Y33665826D03*
X48550000Y29865826D03*
X42250000Y74418326D03*
X59150000Y25065826D03*
D18*
X14000000Y24750000D03*
X12750000Y24500000D03*
D10*
X2800000Y47268326D03*
D18*
X9750000Y22500000D03*
D10*
X14700000Y29868326D03*
X56550000Y33665826D03*
X56550000Y25065826D03*
X11460000Y47868326D03*
D18*
X11250000Y24500000D03*
D10*
X26500000Y41468326D03*
X55050000Y16885826D03*
X75600000Y65868326D03*
D18*
X15500000Y19968326D03*
X17200000Y17618326D03*
D10*
X48550000Y38465826D03*
D18*
X15937500Y24918326D03*
X10900000Y20768326D03*
D10*
X22500000Y42768326D03*
X28700000Y45368326D03*
X25000000Y42768326D03*
X29400000Y48368326D03*
X27950000Y57652326D03*
X27948000Y59912326D03*
X28964004Y59912326D03*
X28964002Y57626326D03*
M02*
