M48
; DRILL file {KiCad 8.0.4} date 2024-08-31T15:47:31-0700
; FORMAT={-:-/ absolute / inch / decimal}
; #@! TF.CreationDate,2024-08-31T15:47:31-07:00
; #@! TF.GenerationSoftware,Kicad,Pcbnew,8.0.4
; #@! TF.FileFunction,Plated,1,2,PTH
FMAT,2
INCH
; #@! TA.AperFunction,Plated,PTH,ViaDrill
T1C0.0100
; #@! TA.AperFunction,Plated,PTH,ViaDrill
T2C0.0157
; #@! TA.AperFunction,Plated,PTH,ComponentDrill
T3C0.0197
; #@! TA.AperFunction,Plated,PTH,ComponentDrill
T4C0.0295
; #@! TA.AperFunction,Plated,PTH,ComponentDrill
T5C0.0354
; #@! TA.AperFunction,Plated,PTH,ComponentDrill
T6C0.0394
; #@! TA.AperFunction,Plated,PTH,ComponentDrill
T7C0.1260
%
G90
G05
T1
X0.3839Y0.8858
X0.3937Y0.9449
X0.4291Y0.8177
X0.4429Y0.9646
X0.4764Y0.8767
X0.502Y0.9646
X0.5157Y0.8767
X0.5512Y0.9744
X0.561Y1.0381
X0.6102Y1.0381
X0.6102Y0.8491
X0.6102Y0.8177
X0.6102Y0.7862
X0.6275Y0.981
X0.6772Y0.731
X0.6772Y0.6936
T2
X0.1102Y1.861
X0.4512Y1.8846
X0.5787Y1.1759
X0.7323Y1.8452
X0.873Y1.8767
X0.8858Y1.6838
X0.9843Y1.6838
X1.0039Y2.1602
X1.0433Y1.6326
X1.0827Y1.7232
X1.0837Y1.9358
X1.1003Y2.3588
X1.1004Y2.2698
X1.122Y2.1142
X1.1299Y1.7862
X1.1403Y2.2688
X1.1403Y2.3588
X1.1575Y1.9043
X1.2211Y1.9082
X1.2992Y2.0736
X1.2994Y1.8977
X1.3031Y1.5263
X1.3091Y2.9259
X1.3465Y2.1988
X1.3583Y1.8137
X1.4272Y2.9299
X1.5453Y2.9299
X1.6634Y2.9299
X1.7874Y1.3767
X1.7874Y1.3019
X1.8179Y1.0342
X1.8346Y0.6995
X1.8996Y1.0342
X1.8998Y1.3767
X1.9002Y0.6995
X1.9114Y1.5144
X1.9114Y1.1758
X1.9114Y0.842
X2.0276Y1.3019
X2.1673Y1.3451
X2.1673Y0.9987
X2.1673Y0.6648
X2.2264Y1.3254
X2.2264Y0.9868
X2.2264Y0.6483
X2.3287Y1.3254
X2.3287Y0.9868
X2.3287Y0.6483
X2.372Y2.6083
X2.7559Y1.9348
X2.7559Y1.4938
X2.8976Y2.5932
X2.8976Y2.4121
X2.9764Y2.5932
X2.9764Y2.4121
T3
X0.0827Y2.9449
X0.0827Y0.189
X0.1104Y3.0117
X0.1104Y2.8781
X0.1104Y0.2558
X0.1104Y0.1222
X0.1772Y3.0394
X0.1772Y2.8504
X0.1772Y0.2835
X0.1772Y0.0945
X0.244Y3.0117
X0.244Y2.8781
X0.244Y0.2558
X0.244Y0.1222
X0.2717Y2.9449
X0.2717Y0.189
X2.8386Y2.9449
X2.8386Y0.189
X2.8663Y3.0117
X2.8663Y2.8781
X2.8663Y0.2558
X2.8663Y0.1222
X2.9331Y3.0394
X2.9331Y2.8504
X2.9331Y0.2835
X2.9331Y0.0945
X2.9999Y3.0117
X2.9999Y2.8781
X2.9999Y0.2558
X2.9999Y0.1222
X3.0276Y2.9449
X3.0276Y0.189
T4
X2.937Y2.1051
X2.937Y2.0263
X2.937Y1.9476
X2.937Y1.668
X2.937Y1.5893
X2.937Y1.5106
X2.937Y1.231
X2.937Y1.1523
X2.937Y1.0736
X2.937Y0.9948
X2.937Y0.9161
T5
X2.0669Y2.4161
X2.0669Y1.8806
X2.1457Y2.4161
X2.1457Y1.8806
X2.2244Y2.4161
X2.2244Y1.8806
X2.3031Y2.4161
X2.3031Y1.8806
X2.3819Y2.4161
X2.3819Y1.8806
X2.4606Y2.4161
X2.4606Y1.8806
X2.5394Y2.4161
X2.5394Y1.8806
X2.6181Y2.4161
X2.6181Y1.8806
T6
X0.3228Y2.5696
X0.3228Y2.4696
X0.3228Y2.3696
X0.3228Y2.2696
X0.3228Y2.1696
X0.3228Y2.0696
X0.9803Y2.5688
X0.9803Y2.4688
X0.9803Y2.3688
X1.2193Y2.5693
X1.2193Y2.4693
X1.2193Y2.3693
X2.6181Y2.6759
T7
X0.1772Y2.9449
X0.1772Y0.189
X2.9331Y2.9449
X2.9331Y0.189
M30
